G04 (created by PCBNEW-RS274X (2011-nov-30)-testing) date Sat 18 Aug 2012 05:52:09 PM EDT*
%MOIN*%
G04 Gerber Fmt 3.4, Leading zero omitted, Abs format*
%FSLAX34Y34*%
G01*
G70*
G90*
G04 APERTURE LIST*
%ADD10C,0.006*%
%ADD11R,0.12X0.07*%
%ADD12R,0.32X0.17*%
%ADD13R,0.17X0.32*%
G04 APERTURE END LIST*
G54D10*
G54D11*
X77000Y-68000D03*
X74000Y-68000D03*
G54D12*
X98744Y-52724D03*
X98744Y-56724D03*
G54D13*
X82709Y-73154D03*
X78709Y-73154D03*
X82709Y-36933D03*
X78709Y-36933D03*
G54D12*
X62524Y-53118D03*
X62524Y-57118D03*
G54D11*
X67500Y-68000D03*
X64500Y-68000D03*
X96750Y-68000D03*
X93750Y-68000D03*
X86750Y-68000D03*
X83750Y-68000D03*
X69000Y-57000D03*
X66000Y-57000D03*
X95250Y-57000D03*
X92250Y-57000D03*
X86000Y-57000D03*
X83000Y-57000D03*
X77250Y-57000D03*
X74250Y-57000D03*
X67500Y-48750D03*
X64500Y-48750D03*
X96750Y-48750D03*
X93750Y-48750D03*
X86750Y-48750D03*
X83750Y-48750D03*
X77000Y-48750D03*
X74000Y-48750D03*
X67500Y-41500D03*
X64500Y-41500D03*
X96750Y-41500D03*
X93750Y-41500D03*
X86750Y-41500D03*
X83750Y-41500D03*
X77000Y-41500D03*
X74000Y-41500D03*
M02*
