G04 (created by PCBNEW-RS274X (2011-nov-30)-testing) date Sat 18 Aug 2012 05:52:09 PM EDT*
%MOIN*%
G04 Gerber Fmt 3.4, Leading zero omitted, Abs format*
%FSLAX34Y34*%
G01*
G70*
G90*
G04 APERTURE LIST*
%ADD10C,0.006*%
%ADD11C,0.015*%
%ADD12R,0.1X0.05*%
%ADD13C,0.14*%
%ADD14R,0.3X0.15*%
%ADD15R,0.15X0.3*%
%ADD16C,0.035*%
%ADD17C,0.05*%
%ADD18C,0.01*%
G04 APERTURE END LIST*
G54D10*
G54D11*
X74000Y-68000D02*
X74790Y-68000D01*
X64500Y-68000D02*
X65290Y-68000D01*
X93750Y-68000D02*
X94540Y-68000D01*
X83750Y-68000D02*
X84540Y-68000D01*
X66000Y-57000D02*
X66790Y-57000D01*
X92250Y-57000D02*
X93040Y-57000D01*
X83000Y-57000D02*
X83790Y-57000D01*
X74250Y-57000D02*
X75040Y-57000D01*
X64500Y-48750D02*
X65290Y-48750D01*
X93750Y-48750D02*
X94540Y-48750D01*
X83750Y-48750D02*
X84540Y-48750D01*
X74000Y-48750D02*
X74790Y-48750D01*
X64500Y-41500D02*
X65290Y-41500D01*
X93750Y-41500D02*
X94540Y-41500D01*
X83750Y-41500D02*
X84540Y-41500D01*
X74000Y-41500D02*
X74790Y-41500D01*
G54D12*
X77000Y-68000D03*
G54D13*
X75500Y-68000D03*
G54D12*
X74000Y-68000D03*
G54D14*
X98744Y-52724D03*
X98744Y-56724D03*
G54D15*
X82709Y-73154D03*
X78709Y-73154D03*
X82709Y-36933D03*
X78709Y-36933D03*
G54D14*
X62524Y-53118D03*
X62524Y-57118D03*
G54D12*
X67500Y-68000D03*
G54D13*
X66000Y-68000D03*
G54D12*
X64500Y-68000D03*
X96750Y-68000D03*
G54D13*
X95250Y-68000D03*
G54D12*
X93750Y-68000D03*
X86750Y-68000D03*
G54D13*
X85250Y-68000D03*
G54D12*
X83750Y-68000D03*
X69000Y-57000D03*
G54D13*
X67500Y-57000D03*
G54D12*
X66000Y-57000D03*
X95250Y-57000D03*
G54D13*
X93750Y-57000D03*
G54D12*
X92250Y-57000D03*
X86000Y-57000D03*
G54D13*
X84500Y-57000D03*
G54D12*
X83000Y-57000D03*
X77250Y-57000D03*
G54D13*
X75750Y-57000D03*
G54D12*
X74250Y-57000D03*
X67500Y-48750D03*
G54D13*
X66000Y-48750D03*
G54D12*
X64500Y-48750D03*
X96750Y-48750D03*
G54D13*
X95250Y-48750D03*
G54D12*
X93750Y-48750D03*
X86750Y-48750D03*
G54D13*
X85250Y-48750D03*
G54D12*
X83750Y-48750D03*
X77000Y-48750D03*
G54D13*
X75500Y-48750D03*
G54D12*
X74000Y-48750D03*
X67500Y-41500D03*
G54D13*
X66000Y-41500D03*
G54D12*
X64500Y-41500D03*
X96750Y-41500D03*
G54D13*
X95250Y-41500D03*
G54D12*
X93750Y-41500D03*
X86750Y-41500D03*
G54D13*
X85250Y-41500D03*
G54D12*
X83750Y-41500D03*
X77000Y-41500D03*
G54D13*
X75500Y-41500D03*
G54D12*
X74000Y-41500D03*
G54D16*
X76750Y-74000D03*
X98750Y-60250D03*
X78750Y-39000D03*
X62500Y-59750D03*
G54D17*
X78709Y-73154D02*
X77596Y-73154D01*
X77596Y-73154D02*
X76750Y-74000D01*
X98744Y-59500D02*
X98744Y-60244D01*
X98744Y-60244D02*
X98750Y-60250D01*
X98744Y-56724D02*
X98744Y-59500D01*
X98744Y-59500D02*
X98744Y-59994D01*
X98744Y-59994D02*
X98750Y-60000D01*
X78709Y-36933D02*
X78709Y-38959D01*
X78709Y-38959D02*
X78750Y-39000D01*
X62524Y-57118D02*
X62524Y-59726D01*
X62524Y-59726D02*
X62500Y-59750D01*
G54D10*
G36*
X99200Y-74178D02*
X97500Y-74178D01*
X97500Y-68187D01*
X97500Y-67813D01*
X97499Y-67799D01*
X97499Y-67700D01*
X97461Y-67609D01*
X97391Y-67539D01*
X97299Y-67501D01*
X97012Y-67500D01*
X96950Y-67562D01*
X96950Y-67875D01*
X97438Y-67875D01*
X97500Y-67813D01*
X97500Y-68187D01*
X97438Y-68125D01*
X96950Y-68125D01*
X96950Y-68438D01*
X97012Y-68500D01*
X97299Y-68499D01*
X97391Y-68461D01*
X97461Y-68391D01*
X97499Y-68300D01*
X97499Y-68201D01*
X97500Y-68187D01*
X97500Y-74178D01*
X96550Y-74178D01*
X96550Y-68438D01*
X96550Y-68250D01*
X96550Y-68125D01*
X96550Y-67875D01*
X96550Y-67750D01*
X96550Y-67562D01*
X96550Y-49188D01*
X96550Y-49000D01*
X96550Y-48875D01*
X96550Y-48625D01*
X96550Y-48500D01*
X96550Y-48312D01*
X96550Y-41938D01*
X96550Y-41750D01*
X96550Y-41625D01*
X96550Y-41375D01*
X96550Y-41250D01*
X96550Y-41062D01*
X96488Y-41000D01*
X96395Y-41000D01*
X96310Y-40793D01*
X95959Y-40441D01*
X95500Y-40251D01*
X95003Y-40250D01*
X94543Y-40440D01*
X94281Y-40701D01*
X94141Y-40701D01*
X93141Y-40701D01*
X92939Y-40785D01*
X92785Y-40939D01*
X92701Y-41141D01*
X92701Y-41359D01*
X92701Y-41859D01*
X92785Y-42061D01*
X92939Y-42215D01*
X93141Y-42299D01*
X93359Y-42299D01*
X94281Y-42299D01*
X94541Y-42559D01*
X95000Y-42749D01*
X95497Y-42750D01*
X95957Y-42560D01*
X96309Y-42209D01*
X96395Y-41999D01*
X96488Y-42000D01*
X96550Y-41938D01*
X96550Y-48312D01*
X96488Y-48250D01*
X96395Y-48250D01*
X96310Y-48043D01*
X95959Y-47691D01*
X95500Y-47501D01*
X95003Y-47500D01*
X94543Y-47690D01*
X94281Y-47951D01*
X94141Y-47951D01*
X93141Y-47951D01*
X92939Y-48035D01*
X92785Y-48189D01*
X92701Y-48391D01*
X92701Y-48609D01*
X92701Y-49109D01*
X92785Y-49311D01*
X92939Y-49465D01*
X93141Y-49549D01*
X93359Y-49549D01*
X94281Y-49549D01*
X94541Y-49809D01*
X95000Y-49999D01*
X95497Y-50000D01*
X95957Y-49810D01*
X96309Y-49459D01*
X96395Y-49249D01*
X96488Y-49250D01*
X96550Y-49188D01*
X96550Y-67562D01*
X96488Y-67500D01*
X96395Y-67500D01*
X96310Y-67293D01*
X96000Y-66982D01*
X96000Y-57187D01*
X96000Y-56813D01*
X95999Y-56799D01*
X95999Y-56700D01*
X95961Y-56609D01*
X95891Y-56539D01*
X95799Y-56501D01*
X95512Y-56500D01*
X95450Y-56562D01*
X95450Y-56875D01*
X95938Y-56875D01*
X96000Y-56813D01*
X96000Y-57187D01*
X95938Y-57125D01*
X95450Y-57125D01*
X95450Y-57438D01*
X95512Y-57500D01*
X95799Y-57499D01*
X95891Y-57461D01*
X95961Y-57391D01*
X95999Y-57300D01*
X95999Y-57201D01*
X96000Y-57187D01*
X96000Y-66982D01*
X95959Y-66941D01*
X95500Y-66751D01*
X95050Y-66750D01*
X95050Y-57438D01*
X95050Y-57250D01*
X95050Y-57125D01*
X95050Y-56875D01*
X95050Y-56750D01*
X95050Y-56562D01*
X94988Y-56500D01*
X94895Y-56500D01*
X94810Y-56293D01*
X94459Y-55941D01*
X94000Y-55751D01*
X93503Y-55750D01*
X93043Y-55940D01*
X92781Y-56201D01*
X92641Y-56201D01*
X91641Y-56201D01*
X91439Y-56285D01*
X91285Y-56439D01*
X91201Y-56641D01*
X91201Y-56859D01*
X91201Y-57359D01*
X91285Y-57561D01*
X91439Y-57715D01*
X91641Y-57799D01*
X91859Y-57799D01*
X92781Y-57799D01*
X93041Y-58059D01*
X93500Y-58249D01*
X93997Y-58250D01*
X94457Y-58060D01*
X94809Y-57709D01*
X94895Y-57499D01*
X94988Y-57500D01*
X95050Y-57438D01*
X95050Y-66750D01*
X95003Y-66750D01*
X94543Y-66940D01*
X94281Y-67201D01*
X94141Y-67201D01*
X93141Y-67201D01*
X92939Y-67285D01*
X92785Y-67439D01*
X92701Y-67641D01*
X92701Y-67859D01*
X92701Y-68359D01*
X92785Y-68561D01*
X92939Y-68715D01*
X93141Y-68799D01*
X93359Y-68799D01*
X94281Y-68799D01*
X94541Y-69059D01*
X95000Y-69249D01*
X95497Y-69250D01*
X95957Y-69060D01*
X96309Y-68709D01*
X96395Y-68499D01*
X96488Y-68500D01*
X96550Y-68438D01*
X96550Y-74178D01*
X87500Y-74178D01*
X87500Y-68187D01*
X87500Y-67813D01*
X87500Y-48937D01*
X87500Y-48563D01*
X87500Y-41687D01*
X87500Y-41313D01*
X87499Y-41299D01*
X87499Y-41200D01*
X87461Y-41109D01*
X87391Y-41039D01*
X87299Y-41001D01*
X87012Y-41000D01*
X86950Y-41062D01*
X86950Y-41375D01*
X87438Y-41375D01*
X87500Y-41313D01*
X87500Y-41687D01*
X87438Y-41625D01*
X86950Y-41625D01*
X86950Y-41938D01*
X87012Y-42000D01*
X87299Y-41999D01*
X87391Y-41961D01*
X87461Y-41891D01*
X87499Y-41800D01*
X87499Y-41701D01*
X87500Y-41687D01*
X87500Y-48563D01*
X87499Y-48549D01*
X87499Y-48450D01*
X87461Y-48359D01*
X87391Y-48289D01*
X87299Y-48251D01*
X87012Y-48250D01*
X86950Y-48312D01*
X86950Y-48625D01*
X87438Y-48625D01*
X87500Y-48563D01*
X87500Y-48937D01*
X87438Y-48875D01*
X86950Y-48875D01*
X86950Y-49188D01*
X87012Y-49250D01*
X87299Y-49249D01*
X87391Y-49211D01*
X87461Y-49141D01*
X87499Y-49050D01*
X87499Y-48951D01*
X87500Y-48937D01*
X87500Y-67813D01*
X87499Y-67799D01*
X87499Y-67700D01*
X87461Y-67609D01*
X87391Y-67539D01*
X87299Y-67501D01*
X87012Y-67500D01*
X86950Y-67562D01*
X86950Y-67875D01*
X87438Y-67875D01*
X87500Y-67813D01*
X87500Y-68187D01*
X87438Y-68125D01*
X86950Y-68125D01*
X86950Y-68438D01*
X87012Y-68500D01*
X87299Y-68499D01*
X87391Y-68461D01*
X87461Y-68391D01*
X87499Y-68300D01*
X87499Y-68201D01*
X87500Y-68187D01*
X87500Y-74178D01*
X86750Y-74178D01*
X86750Y-57187D01*
X86750Y-56813D01*
X86749Y-56799D01*
X86749Y-56700D01*
X86711Y-56609D01*
X86641Y-56539D01*
X86550Y-56501D01*
X86550Y-49188D01*
X86550Y-49000D01*
X86550Y-48875D01*
X86550Y-48625D01*
X86550Y-48500D01*
X86550Y-48312D01*
X86550Y-41938D01*
X86550Y-41750D01*
X86550Y-41625D01*
X86550Y-41375D01*
X86550Y-41250D01*
X86550Y-41062D01*
X86488Y-41000D01*
X86395Y-41000D01*
X86310Y-40793D01*
X85959Y-40441D01*
X85500Y-40251D01*
X85003Y-40250D01*
X84543Y-40440D01*
X84281Y-40701D01*
X84141Y-40701D01*
X83709Y-40701D01*
X83709Y-37195D01*
X83647Y-37133D01*
X82909Y-37133D01*
X82909Y-38621D01*
X82971Y-38683D01*
X83508Y-38682D01*
X83600Y-38644D01*
X83670Y-38574D01*
X83708Y-38483D01*
X83708Y-38384D01*
X83709Y-37195D01*
X83709Y-40701D01*
X83141Y-40701D01*
X82939Y-40785D01*
X82785Y-40939D01*
X82701Y-41141D01*
X82701Y-41359D01*
X82701Y-41859D01*
X82785Y-42061D01*
X82939Y-42215D01*
X83141Y-42299D01*
X83359Y-42299D01*
X84281Y-42299D01*
X84541Y-42559D01*
X85000Y-42749D01*
X85497Y-42750D01*
X85957Y-42560D01*
X86309Y-42209D01*
X86395Y-41999D01*
X86488Y-42000D01*
X86550Y-41938D01*
X86550Y-48312D01*
X86488Y-48250D01*
X86395Y-48250D01*
X86310Y-48043D01*
X85959Y-47691D01*
X85500Y-47501D01*
X85003Y-47500D01*
X84543Y-47690D01*
X84281Y-47951D01*
X84141Y-47951D01*
X83141Y-47951D01*
X82939Y-48035D01*
X82785Y-48189D01*
X82701Y-48391D01*
X82701Y-48609D01*
X82701Y-49109D01*
X82785Y-49311D01*
X82939Y-49465D01*
X83141Y-49549D01*
X83359Y-49549D01*
X84281Y-49549D01*
X84541Y-49809D01*
X85000Y-49999D01*
X85497Y-50000D01*
X85957Y-49810D01*
X86309Y-49459D01*
X86395Y-49249D01*
X86488Y-49250D01*
X86550Y-49188D01*
X86550Y-56501D01*
X86549Y-56501D01*
X86262Y-56500D01*
X86200Y-56562D01*
X86200Y-56875D01*
X86688Y-56875D01*
X86750Y-56813D01*
X86750Y-57187D01*
X86688Y-57125D01*
X86200Y-57125D01*
X86200Y-57438D01*
X86262Y-57500D01*
X86549Y-57499D01*
X86641Y-57461D01*
X86711Y-57391D01*
X86749Y-57300D01*
X86749Y-57201D01*
X86750Y-57187D01*
X86750Y-74178D01*
X86550Y-74178D01*
X86550Y-68438D01*
X86550Y-68250D01*
X86550Y-68125D01*
X86550Y-67875D01*
X86550Y-67750D01*
X86550Y-67562D01*
X86488Y-67500D01*
X86395Y-67500D01*
X86310Y-67293D01*
X85959Y-66941D01*
X85800Y-66875D01*
X85800Y-57438D01*
X85800Y-57250D01*
X85800Y-57125D01*
X85800Y-56875D01*
X85800Y-56750D01*
X85800Y-56562D01*
X85738Y-56500D01*
X85645Y-56500D01*
X85560Y-56293D01*
X85209Y-55941D01*
X84750Y-55751D01*
X84253Y-55750D01*
X83793Y-55940D01*
X83531Y-56201D01*
X83391Y-56201D01*
X82509Y-56201D01*
X82509Y-38621D01*
X82509Y-37133D01*
X81771Y-37133D01*
X81709Y-37195D01*
X81710Y-38384D01*
X81710Y-38483D01*
X81748Y-38574D01*
X81818Y-38644D01*
X81910Y-38682D01*
X82447Y-38683D01*
X82509Y-38621D01*
X82509Y-56201D01*
X82391Y-56201D01*
X82189Y-56285D01*
X82035Y-56439D01*
X81951Y-56641D01*
X81951Y-56859D01*
X81951Y-57359D01*
X82035Y-57561D01*
X82189Y-57715D01*
X82391Y-57799D01*
X82609Y-57799D01*
X83531Y-57799D01*
X83791Y-58059D01*
X84250Y-58249D01*
X84747Y-58250D01*
X85207Y-58060D01*
X85559Y-57709D01*
X85645Y-57499D01*
X85738Y-57500D01*
X85800Y-57438D01*
X85800Y-66875D01*
X85500Y-66751D01*
X85003Y-66750D01*
X84543Y-66940D01*
X84281Y-67201D01*
X84141Y-67201D01*
X83141Y-67201D01*
X82939Y-67285D01*
X82785Y-67439D01*
X82701Y-67641D01*
X82701Y-67859D01*
X82701Y-68359D01*
X82785Y-68561D01*
X82939Y-68715D01*
X83141Y-68799D01*
X83359Y-68799D01*
X84281Y-68799D01*
X84541Y-69059D01*
X85000Y-69249D01*
X85497Y-69250D01*
X85957Y-69060D01*
X86309Y-68709D01*
X86395Y-68499D01*
X86488Y-68500D01*
X86550Y-68438D01*
X86550Y-74178D01*
X83708Y-74178D01*
X83709Y-73416D01*
X83709Y-72892D01*
X83708Y-71703D01*
X83708Y-71604D01*
X83670Y-71513D01*
X83600Y-71443D01*
X83508Y-71405D01*
X82971Y-71404D01*
X82909Y-71466D01*
X82909Y-72954D01*
X83647Y-72954D01*
X83709Y-72892D01*
X83709Y-73416D01*
X83647Y-73354D01*
X82959Y-73354D01*
X82909Y-73354D01*
X82509Y-73354D01*
X82509Y-72954D01*
X82509Y-71466D01*
X82447Y-71404D01*
X81910Y-71405D01*
X81818Y-71443D01*
X81748Y-71513D01*
X81710Y-71604D01*
X81710Y-71703D01*
X81709Y-72892D01*
X81771Y-72954D01*
X82509Y-72954D01*
X82509Y-73354D01*
X82459Y-73354D01*
X81771Y-73354D01*
X81709Y-73416D01*
X81709Y-74178D01*
X80008Y-74178D01*
X80008Y-71545D01*
X79924Y-71343D01*
X79770Y-71189D01*
X79568Y-71105D01*
X79350Y-71105D01*
X78000Y-71105D01*
X78000Y-57187D01*
X78000Y-56813D01*
X77999Y-56799D01*
X77999Y-56700D01*
X77961Y-56609D01*
X77891Y-56539D01*
X77799Y-56501D01*
X77750Y-56500D01*
X77750Y-48937D01*
X77750Y-48563D01*
X77750Y-41687D01*
X77750Y-41313D01*
X77749Y-41299D01*
X77749Y-41200D01*
X77711Y-41109D01*
X77641Y-41039D01*
X77549Y-41001D01*
X77262Y-41000D01*
X77200Y-41062D01*
X77200Y-41375D01*
X77688Y-41375D01*
X77750Y-41313D01*
X77750Y-41687D01*
X77688Y-41625D01*
X77200Y-41625D01*
X77200Y-41938D01*
X77262Y-42000D01*
X77549Y-41999D01*
X77641Y-41961D01*
X77711Y-41891D01*
X77749Y-41800D01*
X77749Y-41701D01*
X77750Y-41687D01*
X77750Y-48563D01*
X77749Y-48549D01*
X77749Y-48450D01*
X77711Y-48359D01*
X77641Y-48289D01*
X77549Y-48251D01*
X77262Y-48250D01*
X77200Y-48312D01*
X77200Y-48625D01*
X77688Y-48625D01*
X77750Y-48563D01*
X77750Y-48937D01*
X77688Y-48875D01*
X77200Y-48875D01*
X77200Y-49188D01*
X77262Y-49250D01*
X77549Y-49249D01*
X77641Y-49211D01*
X77711Y-49141D01*
X77749Y-49050D01*
X77749Y-48951D01*
X77750Y-48937D01*
X77750Y-56500D01*
X77512Y-56500D01*
X77450Y-56562D01*
X77450Y-56875D01*
X77938Y-56875D01*
X78000Y-56813D01*
X78000Y-57187D01*
X77938Y-57125D01*
X77450Y-57125D01*
X77450Y-57438D01*
X77512Y-57500D01*
X77799Y-57499D01*
X77891Y-57461D01*
X77961Y-57391D01*
X77999Y-57300D01*
X77999Y-57201D01*
X78000Y-57187D01*
X78000Y-71105D01*
X77850Y-71105D01*
X77750Y-71146D01*
X77750Y-68187D01*
X77750Y-67813D01*
X77749Y-67799D01*
X77749Y-67700D01*
X77711Y-67609D01*
X77641Y-67539D01*
X77549Y-67501D01*
X77262Y-67500D01*
X77200Y-67562D01*
X77200Y-67875D01*
X77688Y-67875D01*
X77750Y-67813D01*
X77750Y-68187D01*
X77688Y-68125D01*
X77200Y-68125D01*
X77200Y-68438D01*
X77262Y-68500D01*
X77549Y-68499D01*
X77641Y-68461D01*
X77711Y-68391D01*
X77749Y-68300D01*
X77749Y-68201D01*
X77750Y-68187D01*
X77750Y-71146D01*
X77648Y-71189D01*
X77494Y-71343D01*
X77410Y-71545D01*
X77410Y-71763D01*
X77410Y-72391D01*
X77290Y-72415D01*
X77050Y-72574D01*
X77050Y-57438D01*
X77050Y-57250D01*
X77050Y-57125D01*
X77050Y-56875D01*
X77050Y-56750D01*
X77050Y-56562D01*
X76988Y-56500D01*
X76895Y-56500D01*
X76810Y-56293D01*
X76800Y-56282D01*
X76800Y-49188D01*
X76800Y-49000D01*
X76800Y-48875D01*
X76800Y-48625D01*
X76800Y-48500D01*
X76800Y-48312D01*
X76800Y-41938D01*
X76800Y-41750D01*
X76800Y-41625D01*
X76800Y-41375D01*
X76800Y-41250D01*
X76800Y-41062D01*
X76738Y-41000D01*
X76645Y-41000D01*
X76560Y-40793D01*
X76209Y-40441D01*
X75750Y-40251D01*
X75253Y-40250D01*
X74793Y-40440D01*
X74531Y-40701D01*
X74391Y-40701D01*
X73391Y-40701D01*
X73189Y-40785D01*
X73035Y-40939D01*
X72951Y-41141D01*
X72951Y-41359D01*
X72951Y-41859D01*
X73035Y-42061D01*
X73189Y-42215D01*
X73391Y-42299D01*
X73609Y-42299D01*
X74531Y-42299D01*
X74791Y-42559D01*
X75250Y-42749D01*
X75747Y-42750D01*
X76207Y-42560D01*
X76559Y-42209D01*
X76645Y-41999D01*
X76738Y-42000D01*
X76800Y-41938D01*
X76800Y-48312D01*
X76738Y-48250D01*
X76645Y-48250D01*
X76560Y-48043D01*
X76209Y-47691D01*
X75750Y-47501D01*
X75253Y-47500D01*
X74793Y-47690D01*
X74531Y-47951D01*
X74391Y-47951D01*
X73391Y-47951D01*
X73189Y-48035D01*
X73035Y-48189D01*
X72951Y-48391D01*
X72951Y-48609D01*
X72951Y-49109D01*
X73035Y-49311D01*
X73189Y-49465D01*
X73391Y-49549D01*
X73609Y-49549D01*
X74531Y-49549D01*
X74791Y-49809D01*
X75250Y-49999D01*
X75747Y-50000D01*
X76207Y-49810D01*
X76559Y-49459D01*
X76645Y-49249D01*
X76738Y-49250D01*
X76800Y-49188D01*
X76800Y-56282D01*
X76459Y-55941D01*
X76000Y-55751D01*
X75503Y-55750D01*
X75043Y-55940D01*
X74781Y-56201D01*
X74641Y-56201D01*
X73641Y-56201D01*
X73439Y-56285D01*
X73285Y-56439D01*
X73201Y-56641D01*
X73201Y-56859D01*
X73201Y-57359D01*
X73285Y-57561D01*
X73439Y-57715D01*
X73641Y-57799D01*
X73859Y-57799D01*
X74781Y-57799D01*
X75041Y-58059D01*
X75500Y-58249D01*
X75997Y-58250D01*
X76457Y-58060D01*
X76809Y-57709D01*
X76895Y-57499D01*
X76988Y-57500D01*
X77050Y-57438D01*
X77050Y-72574D01*
X77030Y-72588D01*
X77028Y-72590D01*
X76800Y-72818D01*
X76800Y-68438D01*
X76800Y-68250D01*
X76800Y-68125D01*
X76800Y-67875D01*
X76800Y-67750D01*
X76800Y-67562D01*
X76738Y-67500D01*
X76645Y-67500D01*
X76560Y-67293D01*
X76209Y-66941D01*
X75750Y-66751D01*
X75253Y-66750D01*
X74793Y-66940D01*
X74531Y-67201D01*
X74391Y-67201D01*
X73391Y-67201D01*
X73189Y-67285D01*
X73035Y-67439D01*
X72951Y-67641D01*
X72951Y-67859D01*
X72951Y-68359D01*
X73035Y-68561D01*
X73189Y-68715D01*
X73391Y-68799D01*
X73609Y-68799D01*
X74531Y-68799D01*
X74791Y-69059D01*
X75250Y-69249D01*
X75747Y-69250D01*
X76207Y-69060D01*
X76559Y-68709D01*
X76645Y-68499D01*
X76738Y-68500D01*
X76800Y-68438D01*
X76800Y-72818D01*
X76184Y-73434D01*
X76011Y-73694D01*
X75950Y-74000D01*
X75985Y-74178D01*
X69750Y-74178D01*
X69750Y-57187D01*
X69750Y-56813D01*
X69749Y-56799D01*
X69749Y-56700D01*
X69711Y-56609D01*
X69641Y-56539D01*
X69549Y-56501D01*
X69262Y-56500D01*
X69200Y-56562D01*
X69200Y-56875D01*
X69688Y-56875D01*
X69750Y-56813D01*
X69750Y-57187D01*
X69688Y-57125D01*
X69200Y-57125D01*
X69200Y-57438D01*
X69262Y-57500D01*
X69549Y-57499D01*
X69641Y-57461D01*
X69711Y-57391D01*
X69749Y-57300D01*
X69749Y-57201D01*
X69750Y-57187D01*
X69750Y-74178D01*
X68800Y-74178D01*
X68800Y-57438D01*
X68800Y-57250D01*
X68800Y-57125D01*
X68800Y-56875D01*
X68800Y-56750D01*
X68800Y-56562D01*
X68738Y-56500D01*
X68645Y-56500D01*
X68560Y-56293D01*
X68250Y-55982D01*
X68250Y-48937D01*
X68250Y-48563D01*
X68250Y-41687D01*
X68250Y-41313D01*
X68249Y-41299D01*
X68249Y-41200D01*
X68211Y-41109D01*
X68141Y-41039D01*
X68049Y-41001D01*
X67762Y-41000D01*
X67700Y-41062D01*
X67700Y-41375D01*
X68188Y-41375D01*
X68250Y-41313D01*
X68250Y-41687D01*
X68188Y-41625D01*
X67700Y-41625D01*
X67700Y-41938D01*
X67762Y-42000D01*
X68049Y-41999D01*
X68141Y-41961D01*
X68211Y-41891D01*
X68249Y-41800D01*
X68249Y-41701D01*
X68250Y-41687D01*
X68250Y-48563D01*
X68249Y-48549D01*
X68249Y-48450D01*
X68211Y-48359D01*
X68141Y-48289D01*
X68049Y-48251D01*
X67762Y-48250D01*
X67700Y-48312D01*
X67700Y-48625D01*
X68188Y-48625D01*
X68250Y-48563D01*
X68250Y-48937D01*
X68188Y-48875D01*
X67700Y-48875D01*
X67700Y-49188D01*
X67762Y-49250D01*
X68049Y-49249D01*
X68141Y-49211D01*
X68211Y-49141D01*
X68249Y-49050D01*
X68249Y-48951D01*
X68250Y-48937D01*
X68250Y-55982D01*
X68209Y-55941D01*
X67750Y-55751D01*
X67300Y-55750D01*
X67300Y-49188D01*
X67300Y-49000D01*
X67300Y-48875D01*
X67300Y-48625D01*
X67300Y-48500D01*
X67300Y-48312D01*
X67300Y-41938D01*
X67300Y-41750D01*
X67300Y-41625D01*
X67300Y-41375D01*
X67300Y-41250D01*
X67300Y-41062D01*
X67238Y-41000D01*
X67145Y-41000D01*
X67060Y-40793D01*
X66709Y-40441D01*
X66250Y-40251D01*
X65753Y-40250D01*
X65293Y-40440D01*
X65031Y-40701D01*
X64891Y-40701D01*
X63891Y-40701D01*
X63689Y-40785D01*
X63535Y-40939D01*
X63451Y-41141D01*
X63451Y-41359D01*
X63451Y-41859D01*
X63535Y-42061D01*
X63689Y-42215D01*
X63891Y-42299D01*
X64109Y-42299D01*
X65031Y-42299D01*
X65291Y-42559D01*
X65750Y-42749D01*
X66247Y-42750D01*
X66707Y-42560D01*
X67059Y-42209D01*
X67145Y-41999D01*
X67238Y-42000D01*
X67300Y-41938D01*
X67300Y-48312D01*
X67238Y-48250D01*
X67145Y-48250D01*
X67060Y-48043D01*
X66709Y-47691D01*
X66250Y-47501D01*
X65753Y-47500D01*
X65293Y-47690D01*
X65031Y-47951D01*
X64891Y-47951D01*
X63891Y-47951D01*
X63689Y-48035D01*
X63535Y-48189D01*
X63451Y-48391D01*
X63451Y-48609D01*
X63451Y-49109D01*
X63535Y-49311D01*
X63689Y-49465D01*
X63891Y-49549D01*
X64109Y-49549D01*
X65031Y-49549D01*
X65291Y-49809D01*
X65750Y-49999D01*
X66247Y-50000D01*
X66707Y-49810D01*
X67059Y-49459D01*
X67145Y-49249D01*
X67238Y-49250D01*
X67300Y-49188D01*
X67300Y-55750D01*
X67253Y-55750D01*
X66793Y-55940D01*
X66531Y-56201D01*
X66391Y-56201D01*
X65391Y-56201D01*
X65189Y-56285D01*
X65035Y-56439D01*
X64951Y-56641D01*
X64951Y-56859D01*
X64951Y-57359D01*
X65035Y-57561D01*
X65189Y-57715D01*
X65391Y-57799D01*
X65609Y-57799D01*
X66531Y-57799D01*
X66791Y-58059D01*
X67250Y-58249D01*
X67747Y-58250D01*
X68207Y-58060D01*
X68559Y-57709D01*
X68645Y-57499D01*
X68738Y-57500D01*
X68800Y-57438D01*
X68800Y-74178D01*
X68250Y-74178D01*
X68250Y-68187D01*
X68250Y-67813D01*
X68249Y-67799D01*
X68249Y-67700D01*
X68211Y-67609D01*
X68141Y-67539D01*
X68049Y-67501D01*
X67762Y-67500D01*
X67700Y-67562D01*
X67700Y-67875D01*
X68188Y-67875D01*
X68250Y-67813D01*
X68250Y-68187D01*
X68188Y-68125D01*
X67700Y-68125D01*
X67700Y-68438D01*
X67762Y-68500D01*
X68049Y-68499D01*
X68141Y-68461D01*
X68211Y-68391D01*
X68249Y-68300D01*
X68249Y-68201D01*
X68250Y-68187D01*
X68250Y-74178D01*
X67300Y-74178D01*
X67300Y-68438D01*
X67300Y-68250D01*
X67300Y-68125D01*
X67300Y-67875D01*
X67300Y-67750D01*
X67300Y-67562D01*
X67238Y-67500D01*
X67145Y-67500D01*
X67060Y-67293D01*
X66709Y-66941D01*
X66250Y-66751D01*
X65753Y-66750D01*
X65293Y-66940D01*
X65031Y-67201D01*
X64891Y-67201D01*
X63891Y-67201D01*
X63689Y-67285D01*
X63535Y-67439D01*
X63451Y-67641D01*
X63451Y-67859D01*
X63451Y-68359D01*
X63535Y-68561D01*
X63689Y-68715D01*
X63891Y-68799D01*
X64109Y-68799D01*
X65031Y-68799D01*
X65291Y-69059D01*
X65750Y-69249D01*
X66247Y-69250D01*
X66707Y-69060D01*
X67059Y-68709D01*
X67145Y-68499D01*
X67238Y-68500D01*
X67300Y-68438D01*
X67300Y-74178D01*
X61800Y-74178D01*
X61800Y-60114D01*
X61934Y-60316D01*
X62194Y-60489D01*
X62500Y-60550D01*
X62806Y-60489D01*
X63066Y-60316D01*
X63087Y-60293D01*
X63089Y-60292D01*
X63090Y-60292D01*
X63262Y-60033D01*
X63263Y-60032D01*
X63311Y-59788D01*
X63324Y-59727D01*
X63323Y-59726D01*
X63324Y-59726D01*
X63324Y-58417D01*
X64133Y-58417D01*
X64335Y-58333D01*
X64489Y-58179D01*
X64573Y-57977D01*
X64573Y-57759D01*
X64573Y-56259D01*
X64489Y-56057D01*
X64335Y-55903D01*
X64274Y-55877D01*
X64274Y-53380D01*
X64274Y-52856D01*
X64273Y-52319D01*
X64235Y-52227D01*
X64165Y-52157D01*
X64074Y-52119D01*
X63975Y-52119D01*
X62786Y-52118D01*
X62724Y-52180D01*
X62724Y-52918D01*
X64212Y-52918D01*
X64274Y-52856D01*
X64274Y-53380D01*
X64212Y-53318D01*
X62724Y-53318D01*
X62724Y-54056D01*
X62786Y-54118D01*
X63975Y-54117D01*
X64074Y-54117D01*
X64165Y-54079D01*
X64235Y-54009D01*
X64273Y-53917D01*
X64274Y-53380D01*
X64274Y-55877D01*
X64133Y-55819D01*
X63915Y-55819D01*
X61800Y-55819D01*
X61800Y-54117D01*
X62262Y-54118D01*
X62324Y-54056D01*
X62324Y-53368D01*
X62324Y-53318D01*
X62324Y-52918D01*
X62324Y-52868D01*
X62324Y-52180D01*
X62262Y-52118D01*
X61800Y-52118D01*
X61800Y-36300D01*
X77410Y-36300D01*
X77410Y-38542D01*
X77494Y-38744D01*
X77648Y-38898D01*
X77850Y-38982D01*
X77913Y-38982D01*
X77970Y-39265D01*
X78143Y-39525D01*
X78184Y-39565D01*
X78443Y-39738D01*
X78749Y-39800D01*
X79055Y-39738D01*
X79315Y-39565D01*
X79488Y-39305D01*
X79550Y-38999D01*
X79546Y-38982D01*
X79568Y-38982D01*
X79770Y-38898D01*
X79924Y-38744D01*
X80008Y-38542D01*
X80008Y-38324D01*
X80008Y-36300D01*
X81709Y-36300D01*
X81709Y-36671D01*
X81771Y-36733D01*
X82459Y-36733D01*
X82509Y-36733D01*
X82909Y-36733D01*
X82959Y-36733D01*
X83647Y-36733D01*
X83709Y-36671D01*
X83708Y-36300D01*
X99200Y-36300D01*
X99200Y-51724D01*
X99006Y-51724D01*
X98944Y-51786D01*
X98944Y-52474D01*
X98944Y-52524D01*
X98944Y-52924D01*
X98944Y-52974D01*
X98944Y-53662D01*
X99006Y-53724D01*
X99200Y-53723D01*
X99200Y-55425D01*
X98544Y-55425D01*
X98544Y-53662D01*
X98544Y-52924D01*
X98544Y-52524D01*
X98544Y-51786D01*
X98482Y-51724D01*
X97500Y-51724D01*
X97500Y-48937D01*
X97500Y-48563D01*
X97500Y-41687D01*
X97500Y-41313D01*
X97499Y-41299D01*
X97499Y-41200D01*
X97461Y-41109D01*
X97391Y-41039D01*
X97299Y-41001D01*
X97012Y-41000D01*
X96950Y-41062D01*
X96950Y-41375D01*
X97438Y-41375D01*
X97500Y-41313D01*
X97500Y-41687D01*
X97438Y-41625D01*
X96950Y-41625D01*
X96950Y-41938D01*
X97012Y-42000D01*
X97299Y-41999D01*
X97391Y-41961D01*
X97461Y-41891D01*
X97499Y-41800D01*
X97499Y-41701D01*
X97500Y-41687D01*
X97500Y-48563D01*
X97499Y-48549D01*
X97499Y-48450D01*
X97461Y-48359D01*
X97391Y-48289D01*
X97299Y-48251D01*
X97012Y-48250D01*
X96950Y-48312D01*
X96950Y-48625D01*
X97438Y-48625D01*
X97500Y-48563D01*
X97500Y-48937D01*
X97438Y-48875D01*
X96950Y-48875D01*
X96950Y-49188D01*
X97012Y-49250D01*
X97299Y-49249D01*
X97391Y-49211D01*
X97461Y-49141D01*
X97499Y-49050D01*
X97499Y-48951D01*
X97500Y-48937D01*
X97500Y-51724D01*
X97293Y-51725D01*
X97194Y-51725D01*
X97103Y-51763D01*
X97033Y-51833D01*
X96995Y-51925D01*
X96994Y-52462D01*
X97056Y-52524D01*
X98544Y-52524D01*
X98544Y-52924D01*
X97056Y-52924D01*
X96994Y-52986D01*
X96995Y-53523D01*
X97033Y-53615D01*
X97103Y-53685D01*
X97194Y-53723D01*
X97293Y-53723D01*
X98482Y-53724D01*
X98544Y-53662D01*
X98544Y-55425D01*
X97135Y-55425D01*
X96933Y-55509D01*
X96779Y-55663D01*
X96695Y-55865D01*
X96695Y-56083D01*
X96695Y-57583D01*
X96779Y-57785D01*
X96933Y-57939D01*
X97135Y-58023D01*
X97353Y-58023D01*
X97944Y-58023D01*
X97944Y-59500D01*
X97944Y-59994D01*
X97944Y-60244D01*
X98005Y-60550D01*
X98178Y-60810D01*
X98184Y-60815D01*
X98443Y-60989D01*
X98750Y-61050D01*
X99056Y-60989D01*
X99200Y-60892D01*
X99200Y-74178D01*
X99200Y-74178D01*
G37*
G54D18*
X99200Y-74178D02*
X97500Y-74178D01*
X97500Y-68187D01*
X97500Y-67813D01*
X97499Y-67799D01*
X97499Y-67700D01*
X97461Y-67609D01*
X97391Y-67539D01*
X97299Y-67501D01*
X97012Y-67500D01*
X96950Y-67562D01*
X96950Y-67875D01*
X97438Y-67875D01*
X97500Y-67813D01*
X97500Y-68187D01*
X97438Y-68125D01*
X96950Y-68125D01*
X96950Y-68438D01*
X97012Y-68500D01*
X97299Y-68499D01*
X97391Y-68461D01*
X97461Y-68391D01*
X97499Y-68300D01*
X97499Y-68201D01*
X97500Y-68187D01*
X97500Y-74178D01*
X96550Y-74178D01*
X96550Y-68438D01*
X96550Y-68250D01*
X96550Y-68125D01*
X96550Y-67875D01*
X96550Y-67750D01*
X96550Y-67562D01*
X96550Y-49188D01*
X96550Y-49000D01*
X96550Y-48875D01*
X96550Y-48625D01*
X96550Y-48500D01*
X96550Y-48312D01*
X96550Y-41938D01*
X96550Y-41750D01*
X96550Y-41625D01*
X96550Y-41375D01*
X96550Y-41250D01*
X96550Y-41062D01*
X96488Y-41000D01*
X96395Y-41000D01*
X96310Y-40793D01*
X95959Y-40441D01*
X95500Y-40251D01*
X95003Y-40250D01*
X94543Y-40440D01*
X94281Y-40701D01*
X94141Y-40701D01*
X93141Y-40701D01*
X92939Y-40785D01*
X92785Y-40939D01*
X92701Y-41141D01*
X92701Y-41359D01*
X92701Y-41859D01*
X92785Y-42061D01*
X92939Y-42215D01*
X93141Y-42299D01*
X93359Y-42299D01*
X94281Y-42299D01*
X94541Y-42559D01*
X95000Y-42749D01*
X95497Y-42750D01*
X95957Y-42560D01*
X96309Y-42209D01*
X96395Y-41999D01*
X96488Y-42000D01*
X96550Y-41938D01*
X96550Y-48312D01*
X96488Y-48250D01*
X96395Y-48250D01*
X96310Y-48043D01*
X95959Y-47691D01*
X95500Y-47501D01*
X95003Y-47500D01*
X94543Y-47690D01*
X94281Y-47951D01*
X94141Y-47951D01*
X93141Y-47951D01*
X92939Y-48035D01*
X92785Y-48189D01*
X92701Y-48391D01*
X92701Y-48609D01*
X92701Y-49109D01*
X92785Y-49311D01*
X92939Y-49465D01*
X93141Y-49549D01*
X93359Y-49549D01*
X94281Y-49549D01*
X94541Y-49809D01*
X95000Y-49999D01*
X95497Y-50000D01*
X95957Y-49810D01*
X96309Y-49459D01*
X96395Y-49249D01*
X96488Y-49250D01*
X96550Y-49188D01*
X96550Y-67562D01*
X96488Y-67500D01*
X96395Y-67500D01*
X96310Y-67293D01*
X96000Y-66982D01*
X96000Y-57187D01*
X96000Y-56813D01*
X95999Y-56799D01*
X95999Y-56700D01*
X95961Y-56609D01*
X95891Y-56539D01*
X95799Y-56501D01*
X95512Y-56500D01*
X95450Y-56562D01*
X95450Y-56875D01*
X95938Y-56875D01*
X96000Y-56813D01*
X96000Y-57187D01*
X95938Y-57125D01*
X95450Y-57125D01*
X95450Y-57438D01*
X95512Y-57500D01*
X95799Y-57499D01*
X95891Y-57461D01*
X95961Y-57391D01*
X95999Y-57300D01*
X95999Y-57201D01*
X96000Y-57187D01*
X96000Y-66982D01*
X95959Y-66941D01*
X95500Y-66751D01*
X95050Y-66750D01*
X95050Y-57438D01*
X95050Y-57250D01*
X95050Y-57125D01*
X95050Y-56875D01*
X95050Y-56750D01*
X95050Y-56562D01*
X94988Y-56500D01*
X94895Y-56500D01*
X94810Y-56293D01*
X94459Y-55941D01*
X94000Y-55751D01*
X93503Y-55750D01*
X93043Y-55940D01*
X92781Y-56201D01*
X92641Y-56201D01*
X91641Y-56201D01*
X91439Y-56285D01*
X91285Y-56439D01*
X91201Y-56641D01*
X91201Y-56859D01*
X91201Y-57359D01*
X91285Y-57561D01*
X91439Y-57715D01*
X91641Y-57799D01*
X91859Y-57799D01*
X92781Y-57799D01*
X93041Y-58059D01*
X93500Y-58249D01*
X93997Y-58250D01*
X94457Y-58060D01*
X94809Y-57709D01*
X94895Y-57499D01*
X94988Y-57500D01*
X95050Y-57438D01*
X95050Y-66750D01*
X95003Y-66750D01*
X94543Y-66940D01*
X94281Y-67201D01*
X94141Y-67201D01*
X93141Y-67201D01*
X92939Y-67285D01*
X92785Y-67439D01*
X92701Y-67641D01*
X92701Y-67859D01*
X92701Y-68359D01*
X92785Y-68561D01*
X92939Y-68715D01*
X93141Y-68799D01*
X93359Y-68799D01*
X94281Y-68799D01*
X94541Y-69059D01*
X95000Y-69249D01*
X95497Y-69250D01*
X95957Y-69060D01*
X96309Y-68709D01*
X96395Y-68499D01*
X96488Y-68500D01*
X96550Y-68438D01*
X96550Y-74178D01*
X87500Y-74178D01*
X87500Y-68187D01*
X87500Y-67813D01*
X87500Y-48937D01*
X87500Y-48563D01*
X87500Y-41687D01*
X87500Y-41313D01*
X87499Y-41299D01*
X87499Y-41200D01*
X87461Y-41109D01*
X87391Y-41039D01*
X87299Y-41001D01*
X87012Y-41000D01*
X86950Y-41062D01*
X86950Y-41375D01*
X87438Y-41375D01*
X87500Y-41313D01*
X87500Y-41687D01*
X87438Y-41625D01*
X86950Y-41625D01*
X86950Y-41938D01*
X87012Y-42000D01*
X87299Y-41999D01*
X87391Y-41961D01*
X87461Y-41891D01*
X87499Y-41800D01*
X87499Y-41701D01*
X87500Y-41687D01*
X87500Y-48563D01*
X87499Y-48549D01*
X87499Y-48450D01*
X87461Y-48359D01*
X87391Y-48289D01*
X87299Y-48251D01*
X87012Y-48250D01*
X86950Y-48312D01*
X86950Y-48625D01*
X87438Y-48625D01*
X87500Y-48563D01*
X87500Y-48937D01*
X87438Y-48875D01*
X86950Y-48875D01*
X86950Y-49188D01*
X87012Y-49250D01*
X87299Y-49249D01*
X87391Y-49211D01*
X87461Y-49141D01*
X87499Y-49050D01*
X87499Y-48951D01*
X87500Y-48937D01*
X87500Y-67813D01*
X87499Y-67799D01*
X87499Y-67700D01*
X87461Y-67609D01*
X87391Y-67539D01*
X87299Y-67501D01*
X87012Y-67500D01*
X86950Y-67562D01*
X86950Y-67875D01*
X87438Y-67875D01*
X87500Y-67813D01*
X87500Y-68187D01*
X87438Y-68125D01*
X86950Y-68125D01*
X86950Y-68438D01*
X87012Y-68500D01*
X87299Y-68499D01*
X87391Y-68461D01*
X87461Y-68391D01*
X87499Y-68300D01*
X87499Y-68201D01*
X87500Y-68187D01*
X87500Y-74178D01*
X86750Y-74178D01*
X86750Y-57187D01*
X86750Y-56813D01*
X86749Y-56799D01*
X86749Y-56700D01*
X86711Y-56609D01*
X86641Y-56539D01*
X86550Y-56501D01*
X86550Y-49188D01*
X86550Y-49000D01*
X86550Y-48875D01*
X86550Y-48625D01*
X86550Y-48500D01*
X86550Y-48312D01*
X86550Y-41938D01*
X86550Y-41750D01*
X86550Y-41625D01*
X86550Y-41375D01*
X86550Y-41250D01*
X86550Y-41062D01*
X86488Y-41000D01*
X86395Y-41000D01*
X86310Y-40793D01*
X85959Y-40441D01*
X85500Y-40251D01*
X85003Y-40250D01*
X84543Y-40440D01*
X84281Y-40701D01*
X84141Y-40701D01*
X83709Y-40701D01*
X83709Y-37195D01*
X83647Y-37133D01*
X82909Y-37133D01*
X82909Y-38621D01*
X82971Y-38683D01*
X83508Y-38682D01*
X83600Y-38644D01*
X83670Y-38574D01*
X83708Y-38483D01*
X83708Y-38384D01*
X83709Y-37195D01*
X83709Y-40701D01*
X83141Y-40701D01*
X82939Y-40785D01*
X82785Y-40939D01*
X82701Y-41141D01*
X82701Y-41359D01*
X82701Y-41859D01*
X82785Y-42061D01*
X82939Y-42215D01*
X83141Y-42299D01*
X83359Y-42299D01*
X84281Y-42299D01*
X84541Y-42559D01*
X85000Y-42749D01*
X85497Y-42750D01*
X85957Y-42560D01*
X86309Y-42209D01*
X86395Y-41999D01*
X86488Y-42000D01*
X86550Y-41938D01*
X86550Y-48312D01*
X86488Y-48250D01*
X86395Y-48250D01*
X86310Y-48043D01*
X85959Y-47691D01*
X85500Y-47501D01*
X85003Y-47500D01*
X84543Y-47690D01*
X84281Y-47951D01*
X84141Y-47951D01*
X83141Y-47951D01*
X82939Y-48035D01*
X82785Y-48189D01*
X82701Y-48391D01*
X82701Y-48609D01*
X82701Y-49109D01*
X82785Y-49311D01*
X82939Y-49465D01*
X83141Y-49549D01*
X83359Y-49549D01*
X84281Y-49549D01*
X84541Y-49809D01*
X85000Y-49999D01*
X85497Y-50000D01*
X85957Y-49810D01*
X86309Y-49459D01*
X86395Y-49249D01*
X86488Y-49250D01*
X86550Y-49188D01*
X86550Y-56501D01*
X86549Y-56501D01*
X86262Y-56500D01*
X86200Y-56562D01*
X86200Y-56875D01*
X86688Y-56875D01*
X86750Y-56813D01*
X86750Y-57187D01*
X86688Y-57125D01*
X86200Y-57125D01*
X86200Y-57438D01*
X86262Y-57500D01*
X86549Y-57499D01*
X86641Y-57461D01*
X86711Y-57391D01*
X86749Y-57300D01*
X86749Y-57201D01*
X86750Y-57187D01*
X86750Y-74178D01*
X86550Y-74178D01*
X86550Y-68438D01*
X86550Y-68250D01*
X86550Y-68125D01*
X86550Y-67875D01*
X86550Y-67750D01*
X86550Y-67562D01*
X86488Y-67500D01*
X86395Y-67500D01*
X86310Y-67293D01*
X85959Y-66941D01*
X85800Y-66875D01*
X85800Y-57438D01*
X85800Y-57250D01*
X85800Y-57125D01*
X85800Y-56875D01*
X85800Y-56750D01*
X85800Y-56562D01*
X85738Y-56500D01*
X85645Y-56500D01*
X85560Y-56293D01*
X85209Y-55941D01*
X84750Y-55751D01*
X84253Y-55750D01*
X83793Y-55940D01*
X83531Y-56201D01*
X83391Y-56201D01*
X82509Y-56201D01*
X82509Y-38621D01*
X82509Y-37133D01*
X81771Y-37133D01*
X81709Y-37195D01*
X81710Y-38384D01*
X81710Y-38483D01*
X81748Y-38574D01*
X81818Y-38644D01*
X81910Y-38682D01*
X82447Y-38683D01*
X82509Y-38621D01*
X82509Y-56201D01*
X82391Y-56201D01*
X82189Y-56285D01*
X82035Y-56439D01*
X81951Y-56641D01*
X81951Y-56859D01*
X81951Y-57359D01*
X82035Y-57561D01*
X82189Y-57715D01*
X82391Y-57799D01*
X82609Y-57799D01*
X83531Y-57799D01*
X83791Y-58059D01*
X84250Y-58249D01*
X84747Y-58250D01*
X85207Y-58060D01*
X85559Y-57709D01*
X85645Y-57499D01*
X85738Y-57500D01*
X85800Y-57438D01*
X85800Y-66875D01*
X85500Y-66751D01*
X85003Y-66750D01*
X84543Y-66940D01*
X84281Y-67201D01*
X84141Y-67201D01*
X83141Y-67201D01*
X82939Y-67285D01*
X82785Y-67439D01*
X82701Y-67641D01*
X82701Y-67859D01*
X82701Y-68359D01*
X82785Y-68561D01*
X82939Y-68715D01*
X83141Y-68799D01*
X83359Y-68799D01*
X84281Y-68799D01*
X84541Y-69059D01*
X85000Y-69249D01*
X85497Y-69250D01*
X85957Y-69060D01*
X86309Y-68709D01*
X86395Y-68499D01*
X86488Y-68500D01*
X86550Y-68438D01*
X86550Y-74178D01*
X83708Y-74178D01*
X83709Y-73416D01*
X83709Y-72892D01*
X83708Y-71703D01*
X83708Y-71604D01*
X83670Y-71513D01*
X83600Y-71443D01*
X83508Y-71405D01*
X82971Y-71404D01*
X82909Y-71466D01*
X82909Y-72954D01*
X83647Y-72954D01*
X83709Y-72892D01*
X83709Y-73416D01*
X83647Y-73354D01*
X82959Y-73354D01*
X82909Y-73354D01*
X82509Y-73354D01*
X82509Y-72954D01*
X82509Y-71466D01*
X82447Y-71404D01*
X81910Y-71405D01*
X81818Y-71443D01*
X81748Y-71513D01*
X81710Y-71604D01*
X81710Y-71703D01*
X81709Y-72892D01*
X81771Y-72954D01*
X82509Y-72954D01*
X82509Y-73354D01*
X82459Y-73354D01*
X81771Y-73354D01*
X81709Y-73416D01*
X81709Y-74178D01*
X80008Y-74178D01*
X80008Y-71545D01*
X79924Y-71343D01*
X79770Y-71189D01*
X79568Y-71105D01*
X79350Y-71105D01*
X78000Y-71105D01*
X78000Y-57187D01*
X78000Y-56813D01*
X77999Y-56799D01*
X77999Y-56700D01*
X77961Y-56609D01*
X77891Y-56539D01*
X77799Y-56501D01*
X77750Y-56500D01*
X77750Y-48937D01*
X77750Y-48563D01*
X77750Y-41687D01*
X77750Y-41313D01*
X77749Y-41299D01*
X77749Y-41200D01*
X77711Y-41109D01*
X77641Y-41039D01*
X77549Y-41001D01*
X77262Y-41000D01*
X77200Y-41062D01*
X77200Y-41375D01*
X77688Y-41375D01*
X77750Y-41313D01*
X77750Y-41687D01*
X77688Y-41625D01*
X77200Y-41625D01*
X77200Y-41938D01*
X77262Y-42000D01*
X77549Y-41999D01*
X77641Y-41961D01*
X77711Y-41891D01*
X77749Y-41800D01*
X77749Y-41701D01*
X77750Y-41687D01*
X77750Y-48563D01*
X77749Y-48549D01*
X77749Y-48450D01*
X77711Y-48359D01*
X77641Y-48289D01*
X77549Y-48251D01*
X77262Y-48250D01*
X77200Y-48312D01*
X77200Y-48625D01*
X77688Y-48625D01*
X77750Y-48563D01*
X77750Y-48937D01*
X77688Y-48875D01*
X77200Y-48875D01*
X77200Y-49188D01*
X77262Y-49250D01*
X77549Y-49249D01*
X77641Y-49211D01*
X77711Y-49141D01*
X77749Y-49050D01*
X77749Y-48951D01*
X77750Y-48937D01*
X77750Y-56500D01*
X77512Y-56500D01*
X77450Y-56562D01*
X77450Y-56875D01*
X77938Y-56875D01*
X78000Y-56813D01*
X78000Y-57187D01*
X77938Y-57125D01*
X77450Y-57125D01*
X77450Y-57438D01*
X77512Y-57500D01*
X77799Y-57499D01*
X77891Y-57461D01*
X77961Y-57391D01*
X77999Y-57300D01*
X77999Y-57201D01*
X78000Y-57187D01*
X78000Y-71105D01*
X77850Y-71105D01*
X77750Y-71146D01*
X77750Y-68187D01*
X77750Y-67813D01*
X77749Y-67799D01*
X77749Y-67700D01*
X77711Y-67609D01*
X77641Y-67539D01*
X77549Y-67501D01*
X77262Y-67500D01*
X77200Y-67562D01*
X77200Y-67875D01*
X77688Y-67875D01*
X77750Y-67813D01*
X77750Y-68187D01*
X77688Y-68125D01*
X77200Y-68125D01*
X77200Y-68438D01*
X77262Y-68500D01*
X77549Y-68499D01*
X77641Y-68461D01*
X77711Y-68391D01*
X77749Y-68300D01*
X77749Y-68201D01*
X77750Y-68187D01*
X77750Y-71146D01*
X77648Y-71189D01*
X77494Y-71343D01*
X77410Y-71545D01*
X77410Y-71763D01*
X77410Y-72391D01*
X77290Y-72415D01*
X77050Y-72574D01*
X77050Y-57438D01*
X77050Y-57250D01*
X77050Y-57125D01*
X77050Y-56875D01*
X77050Y-56750D01*
X77050Y-56562D01*
X76988Y-56500D01*
X76895Y-56500D01*
X76810Y-56293D01*
X76800Y-56282D01*
X76800Y-49188D01*
X76800Y-49000D01*
X76800Y-48875D01*
X76800Y-48625D01*
X76800Y-48500D01*
X76800Y-48312D01*
X76800Y-41938D01*
X76800Y-41750D01*
X76800Y-41625D01*
X76800Y-41375D01*
X76800Y-41250D01*
X76800Y-41062D01*
X76738Y-41000D01*
X76645Y-41000D01*
X76560Y-40793D01*
X76209Y-40441D01*
X75750Y-40251D01*
X75253Y-40250D01*
X74793Y-40440D01*
X74531Y-40701D01*
X74391Y-40701D01*
X73391Y-40701D01*
X73189Y-40785D01*
X73035Y-40939D01*
X72951Y-41141D01*
X72951Y-41359D01*
X72951Y-41859D01*
X73035Y-42061D01*
X73189Y-42215D01*
X73391Y-42299D01*
X73609Y-42299D01*
X74531Y-42299D01*
X74791Y-42559D01*
X75250Y-42749D01*
X75747Y-42750D01*
X76207Y-42560D01*
X76559Y-42209D01*
X76645Y-41999D01*
X76738Y-42000D01*
X76800Y-41938D01*
X76800Y-48312D01*
X76738Y-48250D01*
X76645Y-48250D01*
X76560Y-48043D01*
X76209Y-47691D01*
X75750Y-47501D01*
X75253Y-47500D01*
X74793Y-47690D01*
X74531Y-47951D01*
X74391Y-47951D01*
X73391Y-47951D01*
X73189Y-48035D01*
X73035Y-48189D01*
X72951Y-48391D01*
X72951Y-48609D01*
X72951Y-49109D01*
X73035Y-49311D01*
X73189Y-49465D01*
X73391Y-49549D01*
X73609Y-49549D01*
X74531Y-49549D01*
X74791Y-49809D01*
X75250Y-49999D01*
X75747Y-50000D01*
X76207Y-49810D01*
X76559Y-49459D01*
X76645Y-49249D01*
X76738Y-49250D01*
X76800Y-49188D01*
X76800Y-56282D01*
X76459Y-55941D01*
X76000Y-55751D01*
X75503Y-55750D01*
X75043Y-55940D01*
X74781Y-56201D01*
X74641Y-56201D01*
X73641Y-56201D01*
X73439Y-56285D01*
X73285Y-56439D01*
X73201Y-56641D01*
X73201Y-56859D01*
X73201Y-57359D01*
X73285Y-57561D01*
X73439Y-57715D01*
X73641Y-57799D01*
X73859Y-57799D01*
X74781Y-57799D01*
X75041Y-58059D01*
X75500Y-58249D01*
X75997Y-58250D01*
X76457Y-58060D01*
X76809Y-57709D01*
X76895Y-57499D01*
X76988Y-57500D01*
X77050Y-57438D01*
X77050Y-72574D01*
X77030Y-72588D01*
X77028Y-72590D01*
X76800Y-72818D01*
X76800Y-68438D01*
X76800Y-68250D01*
X76800Y-68125D01*
X76800Y-67875D01*
X76800Y-67750D01*
X76800Y-67562D01*
X76738Y-67500D01*
X76645Y-67500D01*
X76560Y-67293D01*
X76209Y-66941D01*
X75750Y-66751D01*
X75253Y-66750D01*
X74793Y-66940D01*
X74531Y-67201D01*
X74391Y-67201D01*
X73391Y-67201D01*
X73189Y-67285D01*
X73035Y-67439D01*
X72951Y-67641D01*
X72951Y-67859D01*
X72951Y-68359D01*
X73035Y-68561D01*
X73189Y-68715D01*
X73391Y-68799D01*
X73609Y-68799D01*
X74531Y-68799D01*
X74791Y-69059D01*
X75250Y-69249D01*
X75747Y-69250D01*
X76207Y-69060D01*
X76559Y-68709D01*
X76645Y-68499D01*
X76738Y-68500D01*
X76800Y-68438D01*
X76800Y-72818D01*
X76184Y-73434D01*
X76011Y-73694D01*
X75950Y-74000D01*
X75985Y-74178D01*
X69750Y-74178D01*
X69750Y-57187D01*
X69750Y-56813D01*
X69749Y-56799D01*
X69749Y-56700D01*
X69711Y-56609D01*
X69641Y-56539D01*
X69549Y-56501D01*
X69262Y-56500D01*
X69200Y-56562D01*
X69200Y-56875D01*
X69688Y-56875D01*
X69750Y-56813D01*
X69750Y-57187D01*
X69688Y-57125D01*
X69200Y-57125D01*
X69200Y-57438D01*
X69262Y-57500D01*
X69549Y-57499D01*
X69641Y-57461D01*
X69711Y-57391D01*
X69749Y-57300D01*
X69749Y-57201D01*
X69750Y-57187D01*
X69750Y-74178D01*
X68800Y-74178D01*
X68800Y-57438D01*
X68800Y-57250D01*
X68800Y-57125D01*
X68800Y-56875D01*
X68800Y-56750D01*
X68800Y-56562D01*
X68738Y-56500D01*
X68645Y-56500D01*
X68560Y-56293D01*
X68250Y-55982D01*
X68250Y-48937D01*
X68250Y-48563D01*
X68250Y-41687D01*
X68250Y-41313D01*
X68249Y-41299D01*
X68249Y-41200D01*
X68211Y-41109D01*
X68141Y-41039D01*
X68049Y-41001D01*
X67762Y-41000D01*
X67700Y-41062D01*
X67700Y-41375D01*
X68188Y-41375D01*
X68250Y-41313D01*
X68250Y-41687D01*
X68188Y-41625D01*
X67700Y-41625D01*
X67700Y-41938D01*
X67762Y-42000D01*
X68049Y-41999D01*
X68141Y-41961D01*
X68211Y-41891D01*
X68249Y-41800D01*
X68249Y-41701D01*
X68250Y-41687D01*
X68250Y-48563D01*
X68249Y-48549D01*
X68249Y-48450D01*
X68211Y-48359D01*
X68141Y-48289D01*
X68049Y-48251D01*
X67762Y-48250D01*
X67700Y-48312D01*
X67700Y-48625D01*
X68188Y-48625D01*
X68250Y-48563D01*
X68250Y-48937D01*
X68188Y-48875D01*
X67700Y-48875D01*
X67700Y-49188D01*
X67762Y-49250D01*
X68049Y-49249D01*
X68141Y-49211D01*
X68211Y-49141D01*
X68249Y-49050D01*
X68249Y-48951D01*
X68250Y-48937D01*
X68250Y-55982D01*
X68209Y-55941D01*
X67750Y-55751D01*
X67300Y-55750D01*
X67300Y-49188D01*
X67300Y-49000D01*
X67300Y-48875D01*
X67300Y-48625D01*
X67300Y-48500D01*
X67300Y-48312D01*
X67300Y-41938D01*
X67300Y-41750D01*
X67300Y-41625D01*
X67300Y-41375D01*
X67300Y-41250D01*
X67300Y-41062D01*
X67238Y-41000D01*
X67145Y-41000D01*
X67060Y-40793D01*
X66709Y-40441D01*
X66250Y-40251D01*
X65753Y-40250D01*
X65293Y-40440D01*
X65031Y-40701D01*
X64891Y-40701D01*
X63891Y-40701D01*
X63689Y-40785D01*
X63535Y-40939D01*
X63451Y-41141D01*
X63451Y-41359D01*
X63451Y-41859D01*
X63535Y-42061D01*
X63689Y-42215D01*
X63891Y-42299D01*
X64109Y-42299D01*
X65031Y-42299D01*
X65291Y-42559D01*
X65750Y-42749D01*
X66247Y-42750D01*
X66707Y-42560D01*
X67059Y-42209D01*
X67145Y-41999D01*
X67238Y-42000D01*
X67300Y-41938D01*
X67300Y-48312D01*
X67238Y-48250D01*
X67145Y-48250D01*
X67060Y-48043D01*
X66709Y-47691D01*
X66250Y-47501D01*
X65753Y-47500D01*
X65293Y-47690D01*
X65031Y-47951D01*
X64891Y-47951D01*
X63891Y-47951D01*
X63689Y-48035D01*
X63535Y-48189D01*
X63451Y-48391D01*
X63451Y-48609D01*
X63451Y-49109D01*
X63535Y-49311D01*
X63689Y-49465D01*
X63891Y-49549D01*
X64109Y-49549D01*
X65031Y-49549D01*
X65291Y-49809D01*
X65750Y-49999D01*
X66247Y-50000D01*
X66707Y-49810D01*
X67059Y-49459D01*
X67145Y-49249D01*
X67238Y-49250D01*
X67300Y-49188D01*
X67300Y-55750D01*
X67253Y-55750D01*
X66793Y-55940D01*
X66531Y-56201D01*
X66391Y-56201D01*
X65391Y-56201D01*
X65189Y-56285D01*
X65035Y-56439D01*
X64951Y-56641D01*
X64951Y-56859D01*
X64951Y-57359D01*
X65035Y-57561D01*
X65189Y-57715D01*
X65391Y-57799D01*
X65609Y-57799D01*
X66531Y-57799D01*
X66791Y-58059D01*
X67250Y-58249D01*
X67747Y-58250D01*
X68207Y-58060D01*
X68559Y-57709D01*
X68645Y-57499D01*
X68738Y-57500D01*
X68800Y-57438D01*
X68800Y-74178D01*
X68250Y-74178D01*
X68250Y-68187D01*
X68250Y-67813D01*
X68249Y-67799D01*
X68249Y-67700D01*
X68211Y-67609D01*
X68141Y-67539D01*
X68049Y-67501D01*
X67762Y-67500D01*
X67700Y-67562D01*
X67700Y-67875D01*
X68188Y-67875D01*
X68250Y-67813D01*
X68250Y-68187D01*
X68188Y-68125D01*
X67700Y-68125D01*
X67700Y-68438D01*
X67762Y-68500D01*
X68049Y-68499D01*
X68141Y-68461D01*
X68211Y-68391D01*
X68249Y-68300D01*
X68249Y-68201D01*
X68250Y-68187D01*
X68250Y-74178D01*
X67300Y-74178D01*
X67300Y-68438D01*
X67300Y-68250D01*
X67300Y-68125D01*
X67300Y-67875D01*
X67300Y-67750D01*
X67300Y-67562D01*
X67238Y-67500D01*
X67145Y-67500D01*
X67060Y-67293D01*
X66709Y-66941D01*
X66250Y-66751D01*
X65753Y-66750D01*
X65293Y-66940D01*
X65031Y-67201D01*
X64891Y-67201D01*
X63891Y-67201D01*
X63689Y-67285D01*
X63535Y-67439D01*
X63451Y-67641D01*
X63451Y-67859D01*
X63451Y-68359D01*
X63535Y-68561D01*
X63689Y-68715D01*
X63891Y-68799D01*
X64109Y-68799D01*
X65031Y-68799D01*
X65291Y-69059D01*
X65750Y-69249D01*
X66247Y-69250D01*
X66707Y-69060D01*
X67059Y-68709D01*
X67145Y-68499D01*
X67238Y-68500D01*
X67300Y-68438D01*
X67300Y-74178D01*
X61800Y-74178D01*
X61800Y-60114D01*
X61934Y-60316D01*
X62194Y-60489D01*
X62500Y-60550D01*
X62806Y-60489D01*
X63066Y-60316D01*
X63087Y-60293D01*
X63089Y-60292D01*
X63090Y-60292D01*
X63262Y-60033D01*
X63263Y-60032D01*
X63311Y-59788D01*
X63324Y-59727D01*
X63323Y-59726D01*
X63324Y-59726D01*
X63324Y-58417D01*
X64133Y-58417D01*
X64335Y-58333D01*
X64489Y-58179D01*
X64573Y-57977D01*
X64573Y-57759D01*
X64573Y-56259D01*
X64489Y-56057D01*
X64335Y-55903D01*
X64274Y-55877D01*
X64274Y-53380D01*
X64274Y-52856D01*
X64273Y-52319D01*
X64235Y-52227D01*
X64165Y-52157D01*
X64074Y-52119D01*
X63975Y-52119D01*
X62786Y-52118D01*
X62724Y-52180D01*
X62724Y-52918D01*
X64212Y-52918D01*
X64274Y-52856D01*
X64274Y-53380D01*
X64212Y-53318D01*
X62724Y-53318D01*
X62724Y-54056D01*
X62786Y-54118D01*
X63975Y-54117D01*
X64074Y-54117D01*
X64165Y-54079D01*
X64235Y-54009D01*
X64273Y-53917D01*
X64274Y-53380D01*
X64274Y-55877D01*
X64133Y-55819D01*
X63915Y-55819D01*
X61800Y-55819D01*
X61800Y-54117D01*
X62262Y-54118D01*
X62324Y-54056D01*
X62324Y-53368D01*
X62324Y-53318D01*
X62324Y-52918D01*
X62324Y-52868D01*
X62324Y-52180D01*
X62262Y-52118D01*
X61800Y-52118D01*
X61800Y-36300D01*
X77410Y-36300D01*
X77410Y-38542D01*
X77494Y-38744D01*
X77648Y-38898D01*
X77850Y-38982D01*
X77913Y-38982D01*
X77970Y-39265D01*
X78143Y-39525D01*
X78184Y-39565D01*
X78443Y-39738D01*
X78749Y-39800D01*
X79055Y-39738D01*
X79315Y-39565D01*
X79488Y-39305D01*
X79550Y-38999D01*
X79546Y-38982D01*
X79568Y-38982D01*
X79770Y-38898D01*
X79924Y-38744D01*
X80008Y-38542D01*
X80008Y-38324D01*
X80008Y-36300D01*
X81709Y-36300D01*
X81709Y-36671D01*
X81771Y-36733D01*
X82459Y-36733D01*
X82509Y-36733D01*
X82909Y-36733D01*
X82959Y-36733D01*
X83647Y-36733D01*
X83709Y-36671D01*
X83708Y-36300D01*
X99200Y-36300D01*
X99200Y-51724D01*
X99006Y-51724D01*
X98944Y-51786D01*
X98944Y-52474D01*
X98944Y-52524D01*
X98944Y-52924D01*
X98944Y-52974D01*
X98944Y-53662D01*
X99006Y-53724D01*
X99200Y-53723D01*
X99200Y-55425D01*
X98544Y-55425D01*
X98544Y-53662D01*
X98544Y-52924D01*
X98544Y-52524D01*
X98544Y-51786D01*
X98482Y-51724D01*
X97500Y-51724D01*
X97500Y-48937D01*
X97500Y-48563D01*
X97500Y-41687D01*
X97500Y-41313D01*
X97499Y-41299D01*
X97499Y-41200D01*
X97461Y-41109D01*
X97391Y-41039D01*
X97299Y-41001D01*
X97012Y-41000D01*
X96950Y-41062D01*
X96950Y-41375D01*
X97438Y-41375D01*
X97500Y-41313D01*
X97500Y-41687D01*
X97438Y-41625D01*
X96950Y-41625D01*
X96950Y-41938D01*
X97012Y-42000D01*
X97299Y-41999D01*
X97391Y-41961D01*
X97461Y-41891D01*
X97499Y-41800D01*
X97499Y-41701D01*
X97500Y-41687D01*
X97500Y-48563D01*
X97499Y-48549D01*
X97499Y-48450D01*
X97461Y-48359D01*
X97391Y-48289D01*
X97299Y-48251D01*
X97012Y-48250D01*
X96950Y-48312D01*
X96950Y-48625D01*
X97438Y-48625D01*
X97500Y-48563D01*
X97500Y-48937D01*
X97438Y-48875D01*
X96950Y-48875D01*
X96950Y-49188D01*
X97012Y-49250D01*
X97299Y-49249D01*
X97391Y-49211D01*
X97461Y-49141D01*
X97499Y-49050D01*
X97499Y-48951D01*
X97500Y-48937D01*
X97500Y-51724D01*
X97293Y-51725D01*
X97194Y-51725D01*
X97103Y-51763D01*
X97033Y-51833D01*
X96995Y-51925D01*
X96994Y-52462D01*
X97056Y-52524D01*
X98544Y-52524D01*
X98544Y-52924D01*
X97056Y-52924D01*
X96994Y-52986D01*
X96995Y-53523D01*
X97033Y-53615D01*
X97103Y-53685D01*
X97194Y-53723D01*
X97293Y-53723D01*
X98482Y-53724D01*
X98544Y-53662D01*
X98544Y-55425D01*
X97135Y-55425D01*
X96933Y-55509D01*
X96779Y-55663D01*
X96695Y-55865D01*
X96695Y-56083D01*
X96695Y-57583D01*
X96779Y-57785D01*
X96933Y-57939D01*
X97135Y-58023D01*
X97353Y-58023D01*
X97944Y-58023D01*
X97944Y-59500D01*
X97944Y-59994D01*
X97944Y-60244D01*
X98005Y-60550D01*
X98178Y-60810D01*
X98184Y-60815D01*
X98443Y-60989D01*
X98750Y-61050D01*
X99056Y-60989D01*
X99200Y-60892D01*
X99200Y-74178D01*
M02*
