G04 (created by PCBNEW-RS274X (2011-nov-30)-testing) date Sat 18 Aug 2012 05:52:09 PM EDT*
%MOIN*%
G04 Gerber Fmt 3.4, Leading zero omitted, Abs format*
%FSLAX34Y34*%
G01*
G70*
G90*
G04 APERTURE LIST*
%ADD10C,0.006*%
%ADD11C,0.012*%
G04 APERTURE END LIST*
G54D10*
G54D11*
X62343Y-36655D02*
X62429Y-36693D01*
X62457Y-36731D01*
X62486Y-36807D01*
X62486Y-36921D01*
X62457Y-36998D01*
X62429Y-37036D01*
X62371Y-37074D01*
X62143Y-37074D01*
X62143Y-36274D01*
X62343Y-36274D01*
X62400Y-36312D01*
X62429Y-36350D01*
X62457Y-36426D01*
X62457Y-36502D01*
X62429Y-36579D01*
X62400Y-36617D01*
X62343Y-36655D01*
X62143Y-36655D01*
X62743Y-36274D02*
X62743Y-36921D01*
X62771Y-36998D01*
X62800Y-37036D01*
X62857Y-37074D01*
X62971Y-37074D01*
X63029Y-37036D01*
X63057Y-36998D01*
X63086Y-36921D01*
X63086Y-36274D01*
X63372Y-37074D02*
X63372Y-36274D01*
X63944Y-37074D02*
X63658Y-37074D01*
X63658Y-36274D01*
X64144Y-37074D02*
X64144Y-36274D01*
X64287Y-36274D01*
X64372Y-36312D01*
X64430Y-36388D01*
X64458Y-36464D01*
X64487Y-36617D01*
X64487Y-36731D01*
X64458Y-36883D01*
X64430Y-36960D01*
X64372Y-37036D01*
X64287Y-37074D01*
X64144Y-37074D01*
X64715Y-37036D02*
X64801Y-37074D01*
X64944Y-37074D01*
X65001Y-37036D01*
X65030Y-36998D01*
X65058Y-36921D01*
X65058Y-36845D01*
X65030Y-36769D01*
X65001Y-36731D01*
X64944Y-36693D01*
X64830Y-36655D01*
X64772Y-36617D01*
X64744Y-36579D01*
X64715Y-36502D01*
X64715Y-36426D01*
X64744Y-36350D01*
X64772Y-36312D01*
X64830Y-36274D01*
X64972Y-36274D01*
X65058Y-36312D01*
X65715Y-36274D02*
X65858Y-37074D01*
X65972Y-36502D01*
X66086Y-37074D01*
X66229Y-36274D01*
X66715Y-37074D02*
X66715Y-36655D01*
X66686Y-36579D01*
X66629Y-36540D01*
X66515Y-36540D01*
X66458Y-36579D01*
X66715Y-37036D02*
X66658Y-37074D01*
X66515Y-37074D01*
X66458Y-37036D01*
X66429Y-36960D01*
X66429Y-36883D01*
X66458Y-36807D01*
X66515Y-36769D01*
X66658Y-36769D01*
X66715Y-36731D01*
X66915Y-36540D02*
X67144Y-36540D01*
X67001Y-36274D02*
X67001Y-36960D01*
X67029Y-37036D01*
X67087Y-37074D01*
X67144Y-37074D01*
X67572Y-37036D02*
X67515Y-37074D01*
X67401Y-37074D01*
X67344Y-37036D01*
X67315Y-36960D01*
X67315Y-36655D01*
X67344Y-36579D01*
X67401Y-36540D01*
X67515Y-36540D01*
X67572Y-36579D01*
X67601Y-36655D01*
X67601Y-36731D01*
X67315Y-36807D01*
X67858Y-37074D02*
X67858Y-36540D01*
X67858Y-36693D02*
X67886Y-36617D01*
X67915Y-36579D01*
X67972Y-36540D01*
X68029Y-36540D01*
X68972Y-37074D02*
X68686Y-37074D01*
X68686Y-36274D01*
X69172Y-36655D02*
X69372Y-36655D01*
X69458Y-37074D02*
X69172Y-37074D01*
X69172Y-36274D01*
X69458Y-36274D01*
X69715Y-37074D02*
X69715Y-36274D01*
X69858Y-36274D01*
X69943Y-36312D01*
X70001Y-36388D01*
X70029Y-36464D01*
X70058Y-36617D01*
X70058Y-36731D01*
X70029Y-36883D01*
X70001Y-36960D01*
X69943Y-37036D01*
X69858Y-37074D01*
X69715Y-37074D01*
X70286Y-37036D02*
X70372Y-37074D01*
X70515Y-37074D01*
X70572Y-37036D01*
X70601Y-36998D01*
X70629Y-36921D01*
X70629Y-36845D01*
X70601Y-36769D01*
X70572Y-36731D01*
X70515Y-36693D01*
X70401Y-36655D01*
X70343Y-36617D01*
X70315Y-36579D01*
X70286Y-36502D01*
X70286Y-36426D01*
X70315Y-36350D01*
X70343Y-36312D01*
X70401Y-36274D01*
X70543Y-36274D01*
X70629Y-36312D01*
X71257Y-36274D02*
X71600Y-36274D01*
X71429Y-37074D02*
X71429Y-36274D01*
X72028Y-37036D02*
X71971Y-37074D01*
X71857Y-37074D01*
X71800Y-37036D01*
X71771Y-36960D01*
X71771Y-36655D01*
X71800Y-36579D01*
X71857Y-36540D01*
X71971Y-36540D01*
X72028Y-36579D01*
X72057Y-36655D01*
X72057Y-36731D01*
X71771Y-36807D01*
X72285Y-37036D02*
X72342Y-37074D01*
X72457Y-37074D01*
X72514Y-37036D01*
X72542Y-36960D01*
X72542Y-36921D01*
X72514Y-36845D01*
X72457Y-36807D01*
X72371Y-36807D01*
X72314Y-36769D01*
X72285Y-36693D01*
X72285Y-36655D01*
X72314Y-36579D01*
X72371Y-36540D01*
X72457Y-36540D01*
X72514Y-36579D01*
X72714Y-36540D02*
X72943Y-36540D01*
X72800Y-36274D02*
X72800Y-36960D01*
X72828Y-37036D01*
X72886Y-37074D01*
X72943Y-37074D01*
X73771Y-37340D02*
X73628Y-37340D01*
X73628Y-36198D01*
X73771Y-36198D01*
X74343Y-37074D02*
X74143Y-36693D01*
X74000Y-37074D02*
X74000Y-36274D01*
X74228Y-36274D01*
X74286Y-36312D01*
X74314Y-36350D01*
X74343Y-36426D01*
X74343Y-36540D01*
X74314Y-36617D01*
X74286Y-36655D01*
X74228Y-36693D01*
X74000Y-36693D01*
X74828Y-37036D02*
X74771Y-37074D01*
X74657Y-37074D01*
X74600Y-37036D01*
X74571Y-36960D01*
X74571Y-36655D01*
X74600Y-36579D01*
X74657Y-36540D01*
X74771Y-36540D01*
X74828Y-36579D01*
X74857Y-36655D01*
X74857Y-36731D01*
X74571Y-36807D01*
X75057Y-36540D02*
X75200Y-37074D01*
X75342Y-36540D01*
X75571Y-36998D02*
X75599Y-37036D01*
X75571Y-37074D01*
X75542Y-37036D01*
X75571Y-36998D01*
X75571Y-37074D01*
X76285Y-36845D02*
X76571Y-36845D01*
X76228Y-37074D02*
X76428Y-36274D01*
X76628Y-37074D01*
X76771Y-37340D02*
X76914Y-37340D01*
X76914Y-36198D01*
X76771Y-36198D01*
X62486Y-38238D02*
X62457Y-38276D01*
X62371Y-38314D01*
X62314Y-38314D01*
X62229Y-38276D01*
X62171Y-38200D01*
X62143Y-38123D01*
X62114Y-37971D01*
X62114Y-37857D01*
X62143Y-37704D01*
X62171Y-37628D01*
X62229Y-37552D01*
X62314Y-37514D01*
X62371Y-37514D01*
X62457Y-37552D01*
X62486Y-37590D01*
X62743Y-38314D02*
X62743Y-37514D01*
X63000Y-38314D02*
X63000Y-37895D01*
X62971Y-37819D01*
X62914Y-37780D01*
X62829Y-37780D01*
X62771Y-37819D01*
X62743Y-37857D01*
X63286Y-38314D02*
X63286Y-37780D01*
X63286Y-37933D02*
X63314Y-37857D01*
X63343Y-37819D01*
X63400Y-37780D01*
X63457Y-37780D01*
X63657Y-38314D02*
X63657Y-37780D01*
X63657Y-37514D02*
X63628Y-37552D01*
X63657Y-37590D01*
X63685Y-37552D01*
X63657Y-37514D01*
X63657Y-37590D01*
X63914Y-38276D02*
X63971Y-38314D01*
X64086Y-38314D01*
X64143Y-38276D01*
X64171Y-38200D01*
X64171Y-38161D01*
X64143Y-38085D01*
X64086Y-38047D01*
X64000Y-38047D01*
X63943Y-38009D01*
X63914Y-37933D01*
X63914Y-37895D01*
X63943Y-37819D01*
X64000Y-37780D01*
X64086Y-37780D01*
X64143Y-37819D01*
X64829Y-37514D02*
X64972Y-38314D01*
X65086Y-37742D01*
X65200Y-38314D01*
X65343Y-37514D01*
X65658Y-38314D02*
X65600Y-38276D01*
X65572Y-38238D01*
X65543Y-38161D01*
X65543Y-37933D01*
X65572Y-37857D01*
X65600Y-37819D01*
X65658Y-37780D01*
X65743Y-37780D01*
X65800Y-37819D01*
X65829Y-37857D01*
X65858Y-37933D01*
X65858Y-38161D01*
X65829Y-38238D01*
X65800Y-38276D01*
X65743Y-38314D01*
X65658Y-38314D01*
X66201Y-38314D02*
X66143Y-38276D01*
X66115Y-38238D01*
X66086Y-38161D01*
X66086Y-37933D01*
X66115Y-37857D01*
X66143Y-37819D01*
X66201Y-37780D01*
X66286Y-37780D01*
X66343Y-37819D01*
X66372Y-37857D01*
X66401Y-37933D01*
X66401Y-38161D01*
X66372Y-38238D01*
X66343Y-38276D01*
X66286Y-38314D01*
X66201Y-38314D01*
X66915Y-38314D02*
X66915Y-37514D01*
X66915Y-38276D02*
X66858Y-38314D01*
X66744Y-38314D01*
X66686Y-38276D01*
X66658Y-38238D01*
X66629Y-38161D01*
X66629Y-37933D01*
X66658Y-37857D01*
X66686Y-37819D01*
X66744Y-37780D01*
X66858Y-37780D01*
X66915Y-37819D01*
X67458Y-38314D02*
X67458Y-37895D01*
X67429Y-37819D01*
X67372Y-37780D01*
X67258Y-37780D01*
X67201Y-37819D01*
X67458Y-38276D02*
X67401Y-38314D01*
X67258Y-38314D01*
X67201Y-38276D01*
X67172Y-38200D01*
X67172Y-38123D01*
X67201Y-38047D01*
X67258Y-38009D01*
X67401Y-38009D01*
X67458Y-37971D01*
X67830Y-38314D02*
X67772Y-38276D01*
X67744Y-38200D01*
X67744Y-37514D01*
X68144Y-38314D02*
X68086Y-38276D01*
X68058Y-38200D01*
X68058Y-37514D01*
X62257Y-38754D02*
X62371Y-38754D01*
X62429Y-38792D01*
X62486Y-38868D01*
X62514Y-39020D01*
X62514Y-39287D01*
X62486Y-39440D01*
X62429Y-39516D01*
X62371Y-39554D01*
X62257Y-39554D01*
X62200Y-39516D01*
X62143Y-39440D01*
X62114Y-39287D01*
X62114Y-39020D01*
X62143Y-38868D01*
X62200Y-38792D01*
X62257Y-38754D01*
X62743Y-39516D02*
X62829Y-39554D01*
X62972Y-39554D01*
X63029Y-39516D01*
X63058Y-39478D01*
X63086Y-39401D01*
X63086Y-39325D01*
X63058Y-39249D01*
X63029Y-39211D01*
X62972Y-39173D01*
X62858Y-39135D01*
X62800Y-39097D01*
X62772Y-39059D01*
X62743Y-38982D01*
X62743Y-38906D01*
X62772Y-38830D01*
X62800Y-38792D01*
X62858Y-38754D01*
X63000Y-38754D01*
X63086Y-38792D01*
X63343Y-39554D02*
X63343Y-38754D01*
X63343Y-39135D02*
X63686Y-39135D01*
X63686Y-39554D02*
X63686Y-38754D01*
X63915Y-38754D02*
X64058Y-39554D01*
X64172Y-38982D01*
X64286Y-39554D01*
X64429Y-38754D01*
X75058Y-73743D02*
X75058Y-73143D01*
X75201Y-73143D01*
X75286Y-73171D01*
X75344Y-73229D01*
X75372Y-73286D01*
X75401Y-73400D01*
X75401Y-73486D01*
X75372Y-73600D01*
X75344Y-73657D01*
X75286Y-73714D01*
X75201Y-73743D01*
X75058Y-73743D01*
X75686Y-73743D02*
X75801Y-73743D01*
X75858Y-73714D01*
X75886Y-73686D01*
X75944Y-73600D01*
X75972Y-73486D01*
X75972Y-73257D01*
X75944Y-73200D01*
X75915Y-73171D01*
X75858Y-73143D01*
X75744Y-73143D01*
X75686Y-73171D01*
X75658Y-73200D01*
X75629Y-73257D01*
X75629Y-73400D01*
X75658Y-73457D01*
X75686Y-73486D01*
X75744Y-73514D01*
X75858Y-73514D01*
X75915Y-73486D01*
X75944Y-73457D01*
X75972Y-73400D01*
X67601Y-75243D02*
X67315Y-75243D01*
X67315Y-74643D01*
X67801Y-74929D02*
X68001Y-74929D01*
X68087Y-75243D02*
X67801Y-75243D01*
X67801Y-74643D01*
X68087Y-74643D01*
X68344Y-75243D02*
X68344Y-74643D01*
X68487Y-74643D01*
X68572Y-74671D01*
X68630Y-74729D01*
X68658Y-74786D01*
X68687Y-74900D01*
X68687Y-74986D01*
X68658Y-75100D01*
X68630Y-75157D01*
X68572Y-75214D01*
X68487Y-75243D01*
X68344Y-75243D01*
X68801Y-75300D02*
X69258Y-75300D01*
X69344Y-74643D02*
X69487Y-75243D01*
X69601Y-74814D01*
X69715Y-75243D01*
X69858Y-74643D01*
X70058Y-75071D02*
X70344Y-75071D01*
X70001Y-75243D02*
X70201Y-74643D01*
X70401Y-75243D01*
X70515Y-74643D02*
X70858Y-74643D01*
X70687Y-75243D02*
X70687Y-74643D01*
X71058Y-74929D02*
X71258Y-74929D01*
X71344Y-75243D02*
X71058Y-75243D01*
X71058Y-74643D01*
X71344Y-74643D01*
X71944Y-75243D02*
X71744Y-74957D01*
X71601Y-75243D02*
X71601Y-74643D01*
X71829Y-74643D01*
X71887Y-74671D01*
X71915Y-74700D01*
X71944Y-74757D01*
X71944Y-74843D01*
X71915Y-74900D01*
X71887Y-74929D01*
X71829Y-74957D01*
X71601Y-74957D01*
X72058Y-75300D02*
X72515Y-75300D01*
X72629Y-75214D02*
X72715Y-75243D01*
X72858Y-75243D01*
X72915Y-75214D01*
X72944Y-75186D01*
X72972Y-75129D01*
X72972Y-75071D01*
X72944Y-75014D01*
X72915Y-74986D01*
X72858Y-74957D01*
X72744Y-74929D01*
X72686Y-74900D01*
X72658Y-74871D01*
X72629Y-74814D01*
X72629Y-74757D01*
X72658Y-74700D01*
X72686Y-74671D01*
X72744Y-74643D01*
X72886Y-74643D01*
X72972Y-74671D01*
X73229Y-74929D02*
X73429Y-74929D01*
X73515Y-75243D02*
X73229Y-75243D01*
X73229Y-74643D01*
X73515Y-74643D01*
X73772Y-75243D02*
X73772Y-74643D01*
X74115Y-75243D01*
X74115Y-74643D01*
X74372Y-75214D02*
X74458Y-75243D01*
X74601Y-75243D01*
X74658Y-75214D01*
X74687Y-75186D01*
X74715Y-75129D01*
X74715Y-75071D01*
X74687Y-75014D01*
X74658Y-74986D01*
X74601Y-74957D01*
X74487Y-74929D01*
X74429Y-74900D01*
X74401Y-74871D01*
X74372Y-74814D01*
X74372Y-74757D01*
X74401Y-74700D01*
X74429Y-74671D01*
X74487Y-74643D01*
X74629Y-74643D01*
X74715Y-74671D01*
X95387Y-54866D02*
X94787Y-54866D01*
X94787Y-54638D01*
X94815Y-54580D01*
X94844Y-54552D01*
X94901Y-54523D01*
X94987Y-54523D01*
X95044Y-54552D01*
X95073Y-54580D01*
X95101Y-54638D01*
X95101Y-54866D01*
X94987Y-54009D02*
X95387Y-54009D01*
X94758Y-54152D02*
X95187Y-54295D01*
X95187Y-53923D01*
X94330Y-52195D02*
X94358Y-52224D01*
X94387Y-52310D01*
X94387Y-52367D01*
X94358Y-52452D01*
X94301Y-52510D01*
X94244Y-52538D01*
X94130Y-52567D01*
X94044Y-52567D01*
X93930Y-52538D01*
X93873Y-52510D01*
X93815Y-52452D01*
X93787Y-52367D01*
X93787Y-52310D01*
X93815Y-52224D01*
X93844Y-52195D01*
X93787Y-51824D02*
X93787Y-51710D01*
X93815Y-51652D01*
X93873Y-51595D01*
X93987Y-51567D01*
X94187Y-51567D01*
X94301Y-51595D01*
X94358Y-51652D01*
X94387Y-51710D01*
X94387Y-51824D01*
X94358Y-51881D01*
X94301Y-51938D01*
X94187Y-51967D01*
X93987Y-51967D01*
X93873Y-51938D01*
X93815Y-51881D01*
X93787Y-51824D01*
X94387Y-51309D02*
X93787Y-51309D01*
X94387Y-50966D01*
X93787Y-50966D01*
X94387Y-50680D02*
X93787Y-50680D01*
X94387Y-50337D01*
X93787Y-50337D01*
X94444Y-50194D02*
X94444Y-49737D01*
X93844Y-49623D02*
X93815Y-49594D01*
X93787Y-49537D01*
X93787Y-49394D01*
X93815Y-49337D01*
X93844Y-49308D01*
X93901Y-49280D01*
X93958Y-49280D01*
X94044Y-49308D01*
X94387Y-49651D01*
X94387Y-49280D01*
X80567Y-69797D02*
X80567Y-69197D01*
X80795Y-69197D01*
X80853Y-69225D01*
X80881Y-69254D01*
X80910Y-69311D01*
X80910Y-69397D01*
X80881Y-69454D01*
X80853Y-69483D01*
X80795Y-69511D01*
X80567Y-69511D01*
X81110Y-69197D02*
X81481Y-69197D01*
X81281Y-69425D01*
X81367Y-69425D01*
X81424Y-69454D01*
X81453Y-69483D01*
X81481Y-69540D01*
X81481Y-69683D01*
X81453Y-69740D01*
X81424Y-69768D01*
X81367Y-69797D01*
X81195Y-69797D01*
X81138Y-69768D01*
X81110Y-69740D01*
X83238Y-68740D02*
X83209Y-68768D01*
X83123Y-68797D01*
X83066Y-68797D01*
X82981Y-68768D01*
X82923Y-68711D01*
X82895Y-68654D01*
X82866Y-68540D01*
X82866Y-68454D01*
X82895Y-68340D01*
X82923Y-68283D01*
X82981Y-68225D01*
X83066Y-68197D01*
X83123Y-68197D01*
X83209Y-68225D01*
X83238Y-68254D01*
X83609Y-68197D02*
X83723Y-68197D01*
X83781Y-68225D01*
X83838Y-68283D01*
X83866Y-68397D01*
X83866Y-68597D01*
X83838Y-68711D01*
X83781Y-68768D01*
X83723Y-68797D01*
X83609Y-68797D01*
X83552Y-68768D01*
X83495Y-68711D01*
X83466Y-68597D01*
X83466Y-68397D01*
X83495Y-68283D01*
X83552Y-68225D01*
X83609Y-68197D01*
X84124Y-68797D02*
X84124Y-68197D01*
X84467Y-68797D01*
X84467Y-68197D01*
X84753Y-68797D02*
X84753Y-68197D01*
X85096Y-68797D01*
X85096Y-68197D01*
X85239Y-68854D02*
X85696Y-68854D01*
X85810Y-68254D02*
X85839Y-68225D01*
X85896Y-68197D01*
X86039Y-68197D01*
X86096Y-68225D01*
X86125Y-68254D01*
X86153Y-68311D01*
X86153Y-68368D01*
X86125Y-68454D01*
X85782Y-68797D01*
X86153Y-68797D01*
X80567Y-33576D02*
X80567Y-32976D01*
X80795Y-32976D01*
X80853Y-33004D01*
X80881Y-33033D01*
X80910Y-33090D01*
X80910Y-33176D01*
X80881Y-33233D01*
X80853Y-33262D01*
X80795Y-33290D01*
X80567Y-33290D01*
X81138Y-33033D02*
X81167Y-33004D01*
X81224Y-32976D01*
X81367Y-32976D01*
X81424Y-33004D01*
X81453Y-33033D01*
X81481Y-33090D01*
X81481Y-33147D01*
X81453Y-33233D01*
X81110Y-33576D01*
X81481Y-33576D01*
X83238Y-32519D02*
X83209Y-32547D01*
X83123Y-32576D01*
X83066Y-32576D01*
X82981Y-32547D01*
X82923Y-32490D01*
X82895Y-32433D01*
X82866Y-32319D01*
X82866Y-32233D01*
X82895Y-32119D01*
X82923Y-32062D01*
X82981Y-32004D01*
X83066Y-31976D01*
X83123Y-31976D01*
X83209Y-32004D01*
X83238Y-32033D01*
X83609Y-31976D02*
X83723Y-31976D01*
X83781Y-32004D01*
X83838Y-32062D01*
X83866Y-32176D01*
X83866Y-32376D01*
X83838Y-32490D01*
X83781Y-32547D01*
X83723Y-32576D01*
X83609Y-32576D01*
X83552Y-32547D01*
X83495Y-32490D01*
X83466Y-32376D01*
X83466Y-32176D01*
X83495Y-32062D01*
X83552Y-32004D01*
X83609Y-31976D01*
X84124Y-32576D02*
X84124Y-31976D01*
X84467Y-32576D01*
X84467Y-31976D01*
X84753Y-32576D02*
X84753Y-31976D01*
X85096Y-32576D01*
X85096Y-31976D01*
X85239Y-32633D02*
X85696Y-32633D01*
X85810Y-32033D02*
X85839Y-32004D01*
X85896Y-31976D01*
X86039Y-31976D01*
X86096Y-32004D01*
X86125Y-32033D01*
X86153Y-32090D01*
X86153Y-32147D01*
X86125Y-32233D01*
X85782Y-32576D01*
X86153Y-32576D01*
X59167Y-55260D02*
X58567Y-55260D01*
X58567Y-55032D01*
X58595Y-54974D01*
X58624Y-54946D01*
X58681Y-54917D01*
X58767Y-54917D01*
X58824Y-54946D01*
X58853Y-54974D01*
X58881Y-55032D01*
X58881Y-55260D01*
X59167Y-54346D02*
X59167Y-54689D01*
X59167Y-54517D02*
X58567Y-54517D01*
X58653Y-54574D01*
X58710Y-54632D01*
X58738Y-54689D01*
X58110Y-52589D02*
X58138Y-52618D01*
X58167Y-52704D01*
X58167Y-52761D01*
X58138Y-52846D01*
X58081Y-52904D01*
X58024Y-52932D01*
X57910Y-52961D01*
X57824Y-52961D01*
X57710Y-52932D01*
X57653Y-52904D01*
X57595Y-52846D01*
X57567Y-52761D01*
X57567Y-52704D01*
X57595Y-52618D01*
X57624Y-52589D01*
X57567Y-52218D02*
X57567Y-52104D01*
X57595Y-52046D01*
X57653Y-51989D01*
X57767Y-51961D01*
X57967Y-51961D01*
X58081Y-51989D01*
X58138Y-52046D01*
X58167Y-52104D01*
X58167Y-52218D01*
X58138Y-52275D01*
X58081Y-52332D01*
X57967Y-52361D01*
X57767Y-52361D01*
X57653Y-52332D01*
X57595Y-52275D01*
X57567Y-52218D01*
X58167Y-51703D02*
X57567Y-51703D01*
X58167Y-51360D01*
X57567Y-51360D01*
X58167Y-51074D02*
X57567Y-51074D01*
X58167Y-50731D01*
X57567Y-50731D01*
X58224Y-50588D02*
X58224Y-50131D01*
X57624Y-50017D02*
X57595Y-49988D01*
X57567Y-49931D01*
X57567Y-49788D01*
X57595Y-49731D01*
X57624Y-49702D01*
X57681Y-49674D01*
X57738Y-49674D01*
X57824Y-49702D01*
X58167Y-50045D01*
X58167Y-49674D01*
X65558Y-73743D02*
X65558Y-73143D01*
X65701Y-73143D01*
X65786Y-73171D01*
X65844Y-73229D01*
X65872Y-73286D01*
X65901Y-73400D01*
X65901Y-73486D01*
X65872Y-73600D01*
X65844Y-73657D01*
X65786Y-73714D01*
X65701Y-73743D01*
X65558Y-73743D01*
X66415Y-73343D02*
X66415Y-73743D01*
X66272Y-73114D02*
X66129Y-73543D01*
X66501Y-73543D01*
X58101Y-75243D02*
X57815Y-75243D01*
X57815Y-74643D01*
X58301Y-74929D02*
X58501Y-74929D01*
X58587Y-75243D02*
X58301Y-75243D01*
X58301Y-74643D01*
X58587Y-74643D01*
X58844Y-75243D02*
X58844Y-74643D01*
X58987Y-74643D01*
X59072Y-74671D01*
X59130Y-74729D01*
X59158Y-74786D01*
X59187Y-74900D01*
X59187Y-74986D01*
X59158Y-75100D01*
X59130Y-75157D01*
X59072Y-75214D01*
X58987Y-75243D01*
X58844Y-75243D01*
X59301Y-75300D02*
X59758Y-75300D01*
X59844Y-74643D02*
X59987Y-75243D01*
X60101Y-74814D01*
X60215Y-75243D01*
X60358Y-74643D01*
X60558Y-75071D02*
X60844Y-75071D01*
X60501Y-75243D02*
X60701Y-74643D01*
X60901Y-75243D01*
X61015Y-74643D02*
X61358Y-74643D01*
X61187Y-75243D02*
X61187Y-74643D01*
X61558Y-74929D02*
X61758Y-74929D01*
X61844Y-75243D02*
X61558Y-75243D01*
X61558Y-74643D01*
X61844Y-74643D01*
X62444Y-75243D02*
X62244Y-74957D01*
X62101Y-75243D02*
X62101Y-74643D01*
X62329Y-74643D01*
X62387Y-74671D01*
X62415Y-74700D01*
X62444Y-74757D01*
X62444Y-74843D01*
X62415Y-74900D01*
X62387Y-74929D01*
X62329Y-74957D01*
X62101Y-74957D01*
X62558Y-75300D02*
X63015Y-75300D01*
X63129Y-75214D02*
X63215Y-75243D01*
X63358Y-75243D01*
X63415Y-75214D01*
X63444Y-75186D01*
X63472Y-75129D01*
X63472Y-75071D01*
X63444Y-75014D01*
X63415Y-74986D01*
X63358Y-74957D01*
X63244Y-74929D01*
X63186Y-74900D01*
X63158Y-74871D01*
X63129Y-74814D01*
X63129Y-74757D01*
X63158Y-74700D01*
X63186Y-74671D01*
X63244Y-74643D01*
X63386Y-74643D01*
X63472Y-74671D01*
X63729Y-74929D02*
X63929Y-74929D01*
X64015Y-75243D02*
X63729Y-75243D01*
X63729Y-74643D01*
X64015Y-74643D01*
X64272Y-75243D02*
X64272Y-74643D01*
X64615Y-75243D01*
X64615Y-74643D01*
X64872Y-75214D02*
X64958Y-75243D01*
X65101Y-75243D01*
X65158Y-75214D01*
X65187Y-75186D01*
X65215Y-75129D01*
X65215Y-75071D01*
X65187Y-75014D01*
X65158Y-74986D01*
X65101Y-74957D01*
X64987Y-74929D01*
X64929Y-74900D01*
X64901Y-74871D01*
X64872Y-74814D01*
X64872Y-74757D01*
X64901Y-74700D01*
X64929Y-74671D01*
X64987Y-74643D01*
X65129Y-74643D01*
X65215Y-74671D01*
X94522Y-73743D02*
X94522Y-73143D01*
X94665Y-73143D01*
X94750Y-73171D01*
X94808Y-73229D01*
X94836Y-73286D01*
X94865Y-73400D01*
X94865Y-73486D01*
X94836Y-73600D01*
X94808Y-73657D01*
X94750Y-73714D01*
X94665Y-73743D01*
X94522Y-73743D01*
X95436Y-73743D02*
X95093Y-73743D01*
X95265Y-73743D02*
X95265Y-73143D01*
X95208Y-73229D01*
X95150Y-73286D01*
X95093Y-73314D01*
X95721Y-73743D02*
X95836Y-73743D01*
X95893Y-73714D01*
X95921Y-73686D01*
X95979Y-73600D01*
X96007Y-73486D01*
X96007Y-73257D01*
X95979Y-73200D01*
X95950Y-73171D01*
X95893Y-73143D01*
X95779Y-73143D01*
X95721Y-73171D01*
X95693Y-73200D01*
X95664Y-73257D01*
X95664Y-73400D01*
X95693Y-73457D01*
X95721Y-73486D01*
X95779Y-73514D01*
X95893Y-73514D01*
X95950Y-73486D01*
X95979Y-73457D01*
X96007Y-73400D01*
X87351Y-75243D02*
X87065Y-75243D01*
X87065Y-74643D01*
X87551Y-74929D02*
X87751Y-74929D01*
X87837Y-75243D02*
X87551Y-75243D01*
X87551Y-74643D01*
X87837Y-74643D01*
X88094Y-75243D02*
X88094Y-74643D01*
X88237Y-74643D01*
X88322Y-74671D01*
X88380Y-74729D01*
X88408Y-74786D01*
X88437Y-74900D01*
X88437Y-74986D01*
X88408Y-75100D01*
X88380Y-75157D01*
X88322Y-75214D01*
X88237Y-75243D01*
X88094Y-75243D01*
X88551Y-75300D02*
X89008Y-75300D01*
X89094Y-74643D02*
X89237Y-75243D01*
X89351Y-74814D01*
X89465Y-75243D01*
X89608Y-74643D01*
X89808Y-75071D02*
X90094Y-75071D01*
X89751Y-75243D02*
X89951Y-74643D01*
X90151Y-75243D01*
X90265Y-74643D02*
X90608Y-74643D01*
X90437Y-75243D02*
X90437Y-74643D01*
X90808Y-74929D02*
X91008Y-74929D01*
X91094Y-75243D02*
X90808Y-75243D01*
X90808Y-74643D01*
X91094Y-74643D01*
X91694Y-75243D02*
X91494Y-74957D01*
X91351Y-75243D02*
X91351Y-74643D01*
X91579Y-74643D01*
X91637Y-74671D01*
X91665Y-74700D01*
X91694Y-74757D01*
X91694Y-74843D01*
X91665Y-74900D01*
X91637Y-74929D01*
X91579Y-74957D01*
X91351Y-74957D01*
X91808Y-75300D02*
X92265Y-75300D01*
X92379Y-75214D02*
X92465Y-75243D01*
X92608Y-75243D01*
X92665Y-75214D01*
X92694Y-75186D01*
X92722Y-75129D01*
X92722Y-75071D01*
X92694Y-75014D01*
X92665Y-74986D01*
X92608Y-74957D01*
X92494Y-74929D01*
X92436Y-74900D01*
X92408Y-74871D01*
X92379Y-74814D01*
X92379Y-74757D01*
X92408Y-74700D01*
X92436Y-74671D01*
X92494Y-74643D01*
X92636Y-74643D01*
X92722Y-74671D01*
X92979Y-74929D02*
X93179Y-74929D01*
X93265Y-75243D02*
X92979Y-75243D01*
X92979Y-74643D01*
X93265Y-74643D01*
X93522Y-75243D02*
X93522Y-74643D01*
X93865Y-75243D01*
X93865Y-74643D01*
X94122Y-75214D02*
X94208Y-75243D01*
X94351Y-75243D01*
X94408Y-75214D01*
X94437Y-75186D01*
X94465Y-75129D01*
X94465Y-75071D01*
X94437Y-75014D01*
X94408Y-74986D01*
X94351Y-74957D01*
X94237Y-74929D01*
X94179Y-74900D01*
X94151Y-74871D01*
X94122Y-74814D01*
X94122Y-74757D01*
X94151Y-74700D01*
X94179Y-74671D01*
X94237Y-74643D01*
X94379Y-74643D01*
X94465Y-74671D01*
X84522Y-73743D02*
X84522Y-73143D01*
X84665Y-73143D01*
X84750Y-73171D01*
X84808Y-73229D01*
X84836Y-73286D01*
X84865Y-73400D01*
X84865Y-73486D01*
X84836Y-73600D01*
X84808Y-73657D01*
X84750Y-73714D01*
X84665Y-73743D01*
X84522Y-73743D01*
X85436Y-73743D02*
X85093Y-73743D01*
X85265Y-73743D02*
X85265Y-73143D01*
X85208Y-73229D01*
X85150Y-73286D01*
X85093Y-73314D01*
X85950Y-73343D02*
X85950Y-73743D01*
X85807Y-73114D02*
X85664Y-73543D01*
X86036Y-73543D01*
X77351Y-75243D02*
X77065Y-75243D01*
X77065Y-74643D01*
X77551Y-74929D02*
X77751Y-74929D01*
X77837Y-75243D02*
X77551Y-75243D01*
X77551Y-74643D01*
X77837Y-74643D01*
X78094Y-75243D02*
X78094Y-74643D01*
X78237Y-74643D01*
X78322Y-74671D01*
X78380Y-74729D01*
X78408Y-74786D01*
X78437Y-74900D01*
X78437Y-74986D01*
X78408Y-75100D01*
X78380Y-75157D01*
X78322Y-75214D01*
X78237Y-75243D01*
X78094Y-75243D01*
X78551Y-75300D02*
X79008Y-75300D01*
X79094Y-74643D02*
X79237Y-75243D01*
X79351Y-74814D01*
X79465Y-75243D01*
X79608Y-74643D01*
X79808Y-75071D02*
X80094Y-75071D01*
X79751Y-75243D02*
X79951Y-74643D01*
X80151Y-75243D01*
X80265Y-74643D02*
X80608Y-74643D01*
X80437Y-75243D02*
X80437Y-74643D01*
X80808Y-74929D02*
X81008Y-74929D01*
X81094Y-75243D02*
X80808Y-75243D01*
X80808Y-74643D01*
X81094Y-74643D01*
X81694Y-75243D02*
X81494Y-74957D01*
X81351Y-75243D02*
X81351Y-74643D01*
X81579Y-74643D01*
X81637Y-74671D01*
X81665Y-74700D01*
X81694Y-74757D01*
X81694Y-74843D01*
X81665Y-74900D01*
X81637Y-74929D01*
X81579Y-74957D01*
X81351Y-74957D01*
X81808Y-75300D02*
X82265Y-75300D01*
X82379Y-75214D02*
X82465Y-75243D01*
X82608Y-75243D01*
X82665Y-75214D01*
X82694Y-75186D01*
X82722Y-75129D01*
X82722Y-75071D01*
X82694Y-75014D01*
X82665Y-74986D01*
X82608Y-74957D01*
X82494Y-74929D01*
X82436Y-74900D01*
X82408Y-74871D01*
X82379Y-74814D01*
X82379Y-74757D01*
X82408Y-74700D01*
X82436Y-74671D01*
X82494Y-74643D01*
X82636Y-74643D01*
X82722Y-74671D01*
X82979Y-74929D02*
X83179Y-74929D01*
X83265Y-75243D02*
X82979Y-75243D01*
X82979Y-74643D01*
X83265Y-74643D01*
X83522Y-75243D02*
X83522Y-74643D01*
X83865Y-75243D01*
X83865Y-74643D01*
X84122Y-75214D02*
X84208Y-75243D01*
X84351Y-75243D01*
X84408Y-75214D01*
X84437Y-75186D01*
X84465Y-75129D01*
X84465Y-75071D01*
X84437Y-75014D01*
X84408Y-74986D01*
X84351Y-74957D01*
X84237Y-74929D01*
X84179Y-74900D01*
X84151Y-74871D01*
X84122Y-74814D01*
X84122Y-74757D01*
X84151Y-74700D01*
X84179Y-74671D01*
X84237Y-74643D01*
X84379Y-74643D01*
X84465Y-74671D01*
X67058Y-62743D02*
X67058Y-62143D01*
X67201Y-62143D01*
X67286Y-62171D01*
X67344Y-62229D01*
X67372Y-62286D01*
X67401Y-62400D01*
X67401Y-62486D01*
X67372Y-62600D01*
X67344Y-62657D01*
X67286Y-62714D01*
X67201Y-62743D01*
X67058Y-62743D01*
X67601Y-62143D02*
X67972Y-62143D01*
X67772Y-62371D01*
X67858Y-62371D01*
X67915Y-62400D01*
X67944Y-62429D01*
X67972Y-62486D01*
X67972Y-62629D01*
X67944Y-62686D01*
X67915Y-62714D01*
X67858Y-62743D01*
X67686Y-62743D01*
X67629Y-62714D01*
X67601Y-62686D01*
X59601Y-64243D02*
X59315Y-64243D01*
X59315Y-63643D01*
X59801Y-63929D02*
X60001Y-63929D01*
X60087Y-64243D02*
X59801Y-64243D01*
X59801Y-63643D01*
X60087Y-63643D01*
X60344Y-64243D02*
X60344Y-63643D01*
X60487Y-63643D01*
X60572Y-63671D01*
X60630Y-63729D01*
X60658Y-63786D01*
X60687Y-63900D01*
X60687Y-63986D01*
X60658Y-64100D01*
X60630Y-64157D01*
X60572Y-64214D01*
X60487Y-64243D01*
X60344Y-64243D01*
X60801Y-64300D02*
X61258Y-64300D01*
X61344Y-63643D02*
X61487Y-64243D01*
X61601Y-63814D01*
X61715Y-64243D01*
X61858Y-63643D01*
X62058Y-64071D02*
X62344Y-64071D01*
X62001Y-64243D02*
X62201Y-63643D01*
X62401Y-64243D01*
X62515Y-63643D02*
X62858Y-63643D01*
X62687Y-64243D02*
X62687Y-63643D01*
X63058Y-63929D02*
X63258Y-63929D01*
X63344Y-64243D02*
X63058Y-64243D01*
X63058Y-63643D01*
X63344Y-63643D01*
X63944Y-64243D02*
X63744Y-63957D01*
X63601Y-64243D02*
X63601Y-63643D01*
X63829Y-63643D01*
X63887Y-63671D01*
X63915Y-63700D01*
X63944Y-63757D01*
X63944Y-63843D01*
X63915Y-63900D01*
X63887Y-63929D01*
X63829Y-63957D01*
X63601Y-63957D01*
X64058Y-64300D02*
X64515Y-64300D01*
X64629Y-64214D02*
X64715Y-64243D01*
X64858Y-64243D01*
X64915Y-64214D01*
X64944Y-64186D01*
X64972Y-64129D01*
X64972Y-64071D01*
X64944Y-64014D01*
X64915Y-63986D01*
X64858Y-63957D01*
X64744Y-63929D01*
X64686Y-63900D01*
X64658Y-63871D01*
X64629Y-63814D01*
X64629Y-63757D01*
X64658Y-63700D01*
X64686Y-63671D01*
X64744Y-63643D01*
X64886Y-63643D01*
X64972Y-63671D01*
X65229Y-63929D02*
X65429Y-63929D01*
X65515Y-64243D02*
X65229Y-64243D01*
X65229Y-63643D01*
X65515Y-63643D01*
X65772Y-64243D02*
X65772Y-63643D01*
X66115Y-64243D01*
X66115Y-63643D01*
X66372Y-64214D02*
X66458Y-64243D01*
X66601Y-64243D01*
X66658Y-64214D01*
X66687Y-64186D01*
X66715Y-64129D01*
X66715Y-64071D01*
X66687Y-64014D01*
X66658Y-63986D01*
X66601Y-63957D01*
X66487Y-63929D01*
X66429Y-63900D01*
X66401Y-63871D01*
X66372Y-63814D01*
X66372Y-63757D01*
X66401Y-63700D01*
X66429Y-63671D01*
X66487Y-63643D01*
X66629Y-63643D01*
X66715Y-63671D01*
X93022Y-62743D02*
X93022Y-62143D01*
X93165Y-62143D01*
X93250Y-62171D01*
X93308Y-62229D01*
X93336Y-62286D01*
X93365Y-62400D01*
X93365Y-62486D01*
X93336Y-62600D01*
X93308Y-62657D01*
X93250Y-62714D01*
X93165Y-62743D01*
X93022Y-62743D01*
X93593Y-62200D02*
X93622Y-62171D01*
X93679Y-62143D01*
X93822Y-62143D01*
X93879Y-62171D01*
X93908Y-62200D01*
X93936Y-62257D01*
X93936Y-62314D01*
X93908Y-62400D01*
X93565Y-62743D01*
X93936Y-62743D01*
X94136Y-62143D02*
X94507Y-62143D01*
X94307Y-62371D01*
X94393Y-62371D01*
X94450Y-62400D01*
X94479Y-62429D01*
X94507Y-62486D01*
X94507Y-62629D01*
X94479Y-62686D01*
X94450Y-62714D01*
X94393Y-62743D01*
X94221Y-62743D01*
X94164Y-62714D01*
X94136Y-62686D01*
X85851Y-64243D02*
X85565Y-64243D01*
X85565Y-63643D01*
X86051Y-63929D02*
X86251Y-63929D01*
X86337Y-64243D02*
X86051Y-64243D01*
X86051Y-63643D01*
X86337Y-63643D01*
X86594Y-64243D02*
X86594Y-63643D01*
X86737Y-63643D01*
X86822Y-63671D01*
X86880Y-63729D01*
X86908Y-63786D01*
X86937Y-63900D01*
X86937Y-63986D01*
X86908Y-64100D01*
X86880Y-64157D01*
X86822Y-64214D01*
X86737Y-64243D01*
X86594Y-64243D01*
X87051Y-64300D02*
X87508Y-64300D01*
X87594Y-63643D02*
X87737Y-64243D01*
X87851Y-63814D01*
X87965Y-64243D01*
X88108Y-63643D01*
X88308Y-64071D02*
X88594Y-64071D01*
X88251Y-64243D02*
X88451Y-63643D01*
X88651Y-64243D01*
X88765Y-63643D02*
X89108Y-63643D01*
X88937Y-64243D02*
X88937Y-63643D01*
X89308Y-63929D02*
X89508Y-63929D01*
X89594Y-64243D02*
X89308Y-64243D01*
X89308Y-63643D01*
X89594Y-63643D01*
X90194Y-64243D02*
X89994Y-63957D01*
X89851Y-64243D02*
X89851Y-63643D01*
X90079Y-63643D01*
X90137Y-63671D01*
X90165Y-63700D01*
X90194Y-63757D01*
X90194Y-63843D01*
X90165Y-63900D01*
X90137Y-63929D01*
X90079Y-63957D01*
X89851Y-63957D01*
X90308Y-64300D02*
X90765Y-64300D01*
X90879Y-64214D02*
X90965Y-64243D01*
X91108Y-64243D01*
X91165Y-64214D01*
X91194Y-64186D01*
X91222Y-64129D01*
X91222Y-64071D01*
X91194Y-64014D01*
X91165Y-63986D01*
X91108Y-63957D01*
X90994Y-63929D01*
X90936Y-63900D01*
X90908Y-63871D01*
X90879Y-63814D01*
X90879Y-63757D01*
X90908Y-63700D01*
X90936Y-63671D01*
X90994Y-63643D01*
X91136Y-63643D01*
X91222Y-63671D01*
X91479Y-63929D02*
X91679Y-63929D01*
X91765Y-64243D02*
X91479Y-64243D01*
X91479Y-63643D01*
X91765Y-63643D01*
X92022Y-64243D02*
X92022Y-63643D01*
X92365Y-64243D01*
X92365Y-63643D01*
X92622Y-64214D02*
X92708Y-64243D01*
X92851Y-64243D01*
X92908Y-64214D01*
X92937Y-64186D01*
X92965Y-64129D01*
X92965Y-64071D01*
X92937Y-64014D01*
X92908Y-63986D01*
X92851Y-63957D01*
X92737Y-63929D01*
X92679Y-63900D01*
X92651Y-63871D01*
X92622Y-63814D01*
X92622Y-63757D01*
X92651Y-63700D01*
X92679Y-63671D01*
X92737Y-63643D01*
X92879Y-63643D01*
X92965Y-63671D01*
X83772Y-62743D02*
X83772Y-62143D01*
X83915Y-62143D01*
X84000Y-62171D01*
X84058Y-62229D01*
X84086Y-62286D01*
X84115Y-62400D01*
X84115Y-62486D01*
X84086Y-62600D01*
X84058Y-62657D01*
X84000Y-62714D01*
X83915Y-62743D01*
X83772Y-62743D01*
X84686Y-62743D02*
X84343Y-62743D01*
X84515Y-62743D02*
X84515Y-62143D01*
X84458Y-62229D01*
X84400Y-62286D01*
X84343Y-62314D01*
X85029Y-62400D02*
X84971Y-62371D01*
X84943Y-62343D01*
X84914Y-62286D01*
X84914Y-62257D01*
X84943Y-62200D01*
X84971Y-62171D01*
X85029Y-62143D01*
X85143Y-62143D01*
X85200Y-62171D01*
X85229Y-62200D01*
X85257Y-62257D01*
X85257Y-62286D01*
X85229Y-62343D01*
X85200Y-62371D01*
X85143Y-62400D01*
X85029Y-62400D01*
X84971Y-62429D01*
X84943Y-62457D01*
X84914Y-62514D01*
X84914Y-62629D01*
X84943Y-62686D01*
X84971Y-62714D01*
X85029Y-62743D01*
X85143Y-62743D01*
X85200Y-62714D01*
X85229Y-62686D01*
X85257Y-62629D01*
X85257Y-62514D01*
X85229Y-62457D01*
X85200Y-62429D01*
X85143Y-62400D01*
X76601Y-64243D02*
X76315Y-64243D01*
X76315Y-63643D01*
X76801Y-63929D02*
X77001Y-63929D01*
X77087Y-64243D02*
X76801Y-64243D01*
X76801Y-63643D01*
X77087Y-63643D01*
X77344Y-64243D02*
X77344Y-63643D01*
X77487Y-63643D01*
X77572Y-63671D01*
X77630Y-63729D01*
X77658Y-63786D01*
X77687Y-63900D01*
X77687Y-63986D01*
X77658Y-64100D01*
X77630Y-64157D01*
X77572Y-64214D01*
X77487Y-64243D01*
X77344Y-64243D01*
X77801Y-64300D02*
X78258Y-64300D01*
X78344Y-63643D02*
X78487Y-64243D01*
X78601Y-63814D01*
X78715Y-64243D01*
X78858Y-63643D01*
X79058Y-64071D02*
X79344Y-64071D01*
X79001Y-64243D02*
X79201Y-63643D01*
X79401Y-64243D01*
X79515Y-63643D02*
X79858Y-63643D01*
X79687Y-64243D02*
X79687Y-63643D01*
X80058Y-63929D02*
X80258Y-63929D01*
X80344Y-64243D02*
X80058Y-64243D01*
X80058Y-63643D01*
X80344Y-63643D01*
X80944Y-64243D02*
X80744Y-63957D01*
X80601Y-64243D02*
X80601Y-63643D01*
X80829Y-63643D01*
X80887Y-63671D01*
X80915Y-63700D01*
X80944Y-63757D01*
X80944Y-63843D01*
X80915Y-63900D01*
X80887Y-63929D01*
X80829Y-63957D01*
X80601Y-63957D01*
X81058Y-64300D02*
X81515Y-64300D01*
X81629Y-64214D02*
X81715Y-64243D01*
X81858Y-64243D01*
X81915Y-64214D01*
X81944Y-64186D01*
X81972Y-64129D01*
X81972Y-64071D01*
X81944Y-64014D01*
X81915Y-63986D01*
X81858Y-63957D01*
X81744Y-63929D01*
X81686Y-63900D01*
X81658Y-63871D01*
X81629Y-63814D01*
X81629Y-63757D01*
X81658Y-63700D01*
X81686Y-63671D01*
X81744Y-63643D01*
X81886Y-63643D01*
X81972Y-63671D01*
X82229Y-63929D02*
X82429Y-63929D01*
X82515Y-64243D02*
X82229Y-64243D01*
X82229Y-63643D01*
X82515Y-63643D01*
X82772Y-64243D02*
X82772Y-63643D01*
X83115Y-64243D01*
X83115Y-63643D01*
X83372Y-64214D02*
X83458Y-64243D01*
X83601Y-64243D01*
X83658Y-64214D01*
X83687Y-64186D01*
X83715Y-64129D01*
X83715Y-64071D01*
X83687Y-64014D01*
X83658Y-63986D01*
X83601Y-63957D01*
X83487Y-63929D01*
X83429Y-63900D01*
X83401Y-63871D01*
X83372Y-63814D01*
X83372Y-63757D01*
X83401Y-63700D01*
X83429Y-63671D01*
X83487Y-63643D01*
X83629Y-63643D01*
X83715Y-63671D01*
X75308Y-62743D02*
X75308Y-62143D01*
X75451Y-62143D01*
X75536Y-62171D01*
X75594Y-62229D01*
X75622Y-62286D01*
X75651Y-62400D01*
X75651Y-62486D01*
X75622Y-62600D01*
X75594Y-62657D01*
X75536Y-62714D01*
X75451Y-62743D01*
X75308Y-62743D01*
X75994Y-62400D02*
X75936Y-62371D01*
X75908Y-62343D01*
X75879Y-62286D01*
X75879Y-62257D01*
X75908Y-62200D01*
X75936Y-62171D01*
X75994Y-62143D01*
X76108Y-62143D01*
X76165Y-62171D01*
X76194Y-62200D01*
X76222Y-62257D01*
X76222Y-62286D01*
X76194Y-62343D01*
X76165Y-62371D01*
X76108Y-62400D01*
X75994Y-62400D01*
X75936Y-62429D01*
X75908Y-62457D01*
X75879Y-62514D01*
X75879Y-62629D01*
X75908Y-62686D01*
X75936Y-62714D01*
X75994Y-62743D01*
X76108Y-62743D01*
X76165Y-62714D01*
X76194Y-62686D01*
X76222Y-62629D01*
X76222Y-62514D01*
X76194Y-62457D01*
X76165Y-62429D01*
X76108Y-62400D01*
X67851Y-64243D02*
X67565Y-64243D01*
X67565Y-63643D01*
X68051Y-63929D02*
X68251Y-63929D01*
X68337Y-64243D02*
X68051Y-64243D01*
X68051Y-63643D01*
X68337Y-63643D01*
X68594Y-64243D02*
X68594Y-63643D01*
X68737Y-63643D01*
X68822Y-63671D01*
X68880Y-63729D01*
X68908Y-63786D01*
X68937Y-63900D01*
X68937Y-63986D01*
X68908Y-64100D01*
X68880Y-64157D01*
X68822Y-64214D01*
X68737Y-64243D01*
X68594Y-64243D01*
X69051Y-64300D02*
X69508Y-64300D01*
X69594Y-63643D02*
X69737Y-64243D01*
X69851Y-63814D01*
X69965Y-64243D01*
X70108Y-63643D01*
X70308Y-64071D02*
X70594Y-64071D01*
X70251Y-64243D02*
X70451Y-63643D01*
X70651Y-64243D01*
X70765Y-63643D02*
X71108Y-63643D01*
X70937Y-64243D02*
X70937Y-63643D01*
X71308Y-63929D02*
X71508Y-63929D01*
X71594Y-64243D02*
X71308Y-64243D01*
X71308Y-63643D01*
X71594Y-63643D01*
X72194Y-64243D02*
X71994Y-63957D01*
X71851Y-64243D02*
X71851Y-63643D01*
X72079Y-63643D01*
X72137Y-63671D01*
X72165Y-63700D01*
X72194Y-63757D01*
X72194Y-63843D01*
X72165Y-63900D01*
X72137Y-63929D01*
X72079Y-63957D01*
X71851Y-63957D01*
X72308Y-64300D02*
X72765Y-64300D01*
X72879Y-64214D02*
X72965Y-64243D01*
X73108Y-64243D01*
X73165Y-64214D01*
X73194Y-64186D01*
X73222Y-64129D01*
X73222Y-64071D01*
X73194Y-64014D01*
X73165Y-63986D01*
X73108Y-63957D01*
X72994Y-63929D01*
X72936Y-63900D01*
X72908Y-63871D01*
X72879Y-63814D01*
X72879Y-63757D01*
X72908Y-63700D01*
X72936Y-63671D01*
X72994Y-63643D01*
X73136Y-63643D01*
X73222Y-63671D01*
X73479Y-63929D02*
X73679Y-63929D01*
X73765Y-64243D02*
X73479Y-64243D01*
X73479Y-63643D01*
X73765Y-63643D01*
X74022Y-64243D02*
X74022Y-63643D01*
X74365Y-64243D01*
X74365Y-63643D01*
X74622Y-64214D02*
X74708Y-64243D01*
X74851Y-64243D01*
X74908Y-64214D01*
X74937Y-64186D01*
X74965Y-64129D01*
X74965Y-64071D01*
X74937Y-64014D01*
X74908Y-63986D01*
X74851Y-63957D01*
X74737Y-63929D01*
X74679Y-63900D01*
X74651Y-63871D01*
X74622Y-63814D01*
X74622Y-63757D01*
X74651Y-63700D01*
X74679Y-63671D01*
X74737Y-63643D01*
X74879Y-63643D01*
X74965Y-63671D01*
X65558Y-54493D02*
X65558Y-53893D01*
X65701Y-53893D01*
X65786Y-53921D01*
X65844Y-53979D01*
X65872Y-54036D01*
X65901Y-54150D01*
X65901Y-54236D01*
X65872Y-54350D01*
X65844Y-54407D01*
X65786Y-54464D01*
X65701Y-54493D01*
X65558Y-54493D01*
X66129Y-53950D02*
X66158Y-53921D01*
X66215Y-53893D01*
X66358Y-53893D01*
X66415Y-53921D01*
X66444Y-53950D01*
X66472Y-54007D01*
X66472Y-54064D01*
X66444Y-54150D01*
X66101Y-54493D01*
X66472Y-54493D01*
X58101Y-55993D02*
X57815Y-55993D01*
X57815Y-55393D01*
X58301Y-55679D02*
X58501Y-55679D01*
X58587Y-55993D02*
X58301Y-55993D01*
X58301Y-55393D01*
X58587Y-55393D01*
X58844Y-55993D02*
X58844Y-55393D01*
X58987Y-55393D01*
X59072Y-55421D01*
X59130Y-55479D01*
X59158Y-55536D01*
X59187Y-55650D01*
X59187Y-55736D01*
X59158Y-55850D01*
X59130Y-55907D01*
X59072Y-55964D01*
X58987Y-55993D01*
X58844Y-55993D01*
X59301Y-56050D02*
X59758Y-56050D01*
X59844Y-55393D02*
X59987Y-55993D01*
X60101Y-55564D01*
X60215Y-55993D01*
X60358Y-55393D01*
X60558Y-55821D02*
X60844Y-55821D01*
X60501Y-55993D02*
X60701Y-55393D01*
X60901Y-55993D01*
X61015Y-55393D02*
X61358Y-55393D01*
X61187Y-55993D02*
X61187Y-55393D01*
X61558Y-55679D02*
X61758Y-55679D01*
X61844Y-55993D02*
X61558Y-55993D01*
X61558Y-55393D01*
X61844Y-55393D01*
X62444Y-55993D02*
X62244Y-55707D01*
X62101Y-55993D02*
X62101Y-55393D01*
X62329Y-55393D01*
X62387Y-55421D01*
X62415Y-55450D01*
X62444Y-55507D01*
X62444Y-55593D01*
X62415Y-55650D01*
X62387Y-55679D01*
X62329Y-55707D01*
X62101Y-55707D01*
X62558Y-56050D02*
X63015Y-56050D01*
X63129Y-55964D02*
X63215Y-55993D01*
X63358Y-55993D01*
X63415Y-55964D01*
X63444Y-55936D01*
X63472Y-55879D01*
X63472Y-55821D01*
X63444Y-55764D01*
X63415Y-55736D01*
X63358Y-55707D01*
X63244Y-55679D01*
X63186Y-55650D01*
X63158Y-55621D01*
X63129Y-55564D01*
X63129Y-55507D01*
X63158Y-55450D01*
X63186Y-55421D01*
X63244Y-55393D01*
X63386Y-55393D01*
X63472Y-55421D01*
X63729Y-55679D02*
X63929Y-55679D01*
X64015Y-55993D02*
X63729Y-55993D01*
X63729Y-55393D01*
X64015Y-55393D01*
X64272Y-55993D02*
X64272Y-55393D01*
X64615Y-55993D01*
X64615Y-55393D01*
X64872Y-55964D02*
X64958Y-55993D01*
X65101Y-55993D01*
X65158Y-55964D01*
X65187Y-55936D01*
X65215Y-55879D01*
X65215Y-55821D01*
X65187Y-55764D01*
X65158Y-55736D01*
X65101Y-55707D01*
X64987Y-55679D01*
X64929Y-55650D01*
X64901Y-55621D01*
X64872Y-55564D01*
X64872Y-55507D01*
X64901Y-55450D01*
X64929Y-55421D01*
X64987Y-55393D01*
X65129Y-55393D01*
X65215Y-55421D01*
X94522Y-54493D02*
X94522Y-53893D01*
X94665Y-53893D01*
X94750Y-53921D01*
X94808Y-53979D01*
X94836Y-54036D01*
X94865Y-54150D01*
X94865Y-54236D01*
X94836Y-54350D01*
X94808Y-54407D01*
X94750Y-54464D01*
X94665Y-54493D01*
X94522Y-54493D01*
X95436Y-54493D02*
X95093Y-54493D01*
X95265Y-54493D02*
X95265Y-53893D01*
X95208Y-53979D01*
X95150Y-54036D01*
X95093Y-54064D01*
X95636Y-53893D02*
X96036Y-53893D01*
X95779Y-54493D01*
X87351Y-55993D02*
X87065Y-55993D01*
X87065Y-55393D01*
X87551Y-55679D02*
X87751Y-55679D01*
X87837Y-55993D02*
X87551Y-55993D01*
X87551Y-55393D01*
X87837Y-55393D01*
X88094Y-55993D02*
X88094Y-55393D01*
X88237Y-55393D01*
X88322Y-55421D01*
X88380Y-55479D01*
X88408Y-55536D01*
X88437Y-55650D01*
X88437Y-55736D01*
X88408Y-55850D01*
X88380Y-55907D01*
X88322Y-55964D01*
X88237Y-55993D01*
X88094Y-55993D01*
X88551Y-56050D02*
X89008Y-56050D01*
X89094Y-55393D02*
X89237Y-55993D01*
X89351Y-55564D01*
X89465Y-55993D01*
X89608Y-55393D01*
X89808Y-55821D02*
X90094Y-55821D01*
X89751Y-55993D02*
X89951Y-55393D01*
X90151Y-55993D01*
X90265Y-55393D02*
X90608Y-55393D01*
X90437Y-55993D02*
X90437Y-55393D01*
X90808Y-55679D02*
X91008Y-55679D01*
X91094Y-55993D02*
X90808Y-55993D01*
X90808Y-55393D01*
X91094Y-55393D01*
X91694Y-55993D02*
X91494Y-55707D01*
X91351Y-55993D02*
X91351Y-55393D01*
X91579Y-55393D01*
X91637Y-55421D01*
X91665Y-55450D01*
X91694Y-55507D01*
X91694Y-55593D01*
X91665Y-55650D01*
X91637Y-55679D01*
X91579Y-55707D01*
X91351Y-55707D01*
X91808Y-56050D02*
X92265Y-56050D01*
X92379Y-55964D02*
X92465Y-55993D01*
X92608Y-55993D01*
X92665Y-55964D01*
X92694Y-55936D01*
X92722Y-55879D01*
X92722Y-55821D01*
X92694Y-55764D01*
X92665Y-55736D01*
X92608Y-55707D01*
X92494Y-55679D01*
X92436Y-55650D01*
X92408Y-55621D01*
X92379Y-55564D01*
X92379Y-55507D01*
X92408Y-55450D01*
X92436Y-55421D01*
X92494Y-55393D01*
X92636Y-55393D01*
X92722Y-55421D01*
X92979Y-55679D02*
X93179Y-55679D01*
X93265Y-55993D02*
X92979Y-55993D01*
X92979Y-55393D01*
X93265Y-55393D01*
X93522Y-55993D02*
X93522Y-55393D01*
X93865Y-55993D01*
X93865Y-55393D01*
X94122Y-55964D02*
X94208Y-55993D01*
X94351Y-55993D01*
X94408Y-55964D01*
X94437Y-55936D01*
X94465Y-55879D01*
X94465Y-55821D01*
X94437Y-55764D01*
X94408Y-55736D01*
X94351Y-55707D01*
X94237Y-55679D01*
X94179Y-55650D01*
X94151Y-55621D01*
X94122Y-55564D01*
X94122Y-55507D01*
X94151Y-55450D01*
X94179Y-55421D01*
X94237Y-55393D01*
X94379Y-55393D01*
X94465Y-55421D01*
X84522Y-54493D02*
X84522Y-53893D01*
X84665Y-53893D01*
X84750Y-53921D01*
X84808Y-53979D01*
X84836Y-54036D01*
X84865Y-54150D01*
X84865Y-54236D01*
X84836Y-54350D01*
X84808Y-54407D01*
X84750Y-54464D01*
X84665Y-54493D01*
X84522Y-54493D01*
X85436Y-54493D02*
X85093Y-54493D01*
X85265Y-54493D02*
X85265Y-53893D01*
X85208Y-53979D01*
X85150Y-54036D01*
X85093Y-54064D01*
X85664Y-53950D02*
X85693Y-53921D01*
X85750Y-53893D01*
X85893Y-53893D01*
X85950Y-53921D01*
X85979Y-53950D01*
X86007Y-54007D01*
X86007Y-54064D01*
X85979Y-54150D01*
X85636Y-54493D01*
X86007Y-54493D01*
X77351Y-55993D02*
X77065Y-55993D01*
X77065Y-55393D01*
X77551Y-55679D02*
X77751Y-55679D01*
X77837Y-55993D02*
X77551Y-55993D01*
X77551Y-55393D01*
X77837Y-55393D01*
X78094Y-55993D02*
X78094Y-55393D01*
X78237Y-55393D01*
X78322Y-55421D01*
X78380Y-55479D01*
X78408Y-55536D01*
X78437Y-55650D01*
X78437Y-55736D01*
X78408Y-55850D01*
X78380Y-55907D01*
X78322Y-55964D01*
X78237Y-55993D01*
X78094Y-55993D01*
X78551Y-56050D02*
X79008Y-56050D01*
X79094Y-55393D02*
X79237Y-55993D01*
X79351Y-55564D01*
X79465Y-55993D01*
X79608Y-55393D01*
X79808Y-55821D02*
X80094Y-55821D01*
X79751Y-55993D02*
X79951Y-55393D01*
X80151Y-55993D01*
X80265Y-55393D02*
X80608Y-55393D01*
X80437Y-55993D02*
X80437Y-55393D01*
X80808Y-55679D02*
X81008Y-55679D01*
X81094Y-55993D02*
X80808Y-55993D01*
X80808Y-55393D01*
X81094Y-55393D01*
X81694Y-55993D02*
X81494Y-55707D01*
X81351Y-55993D02*
X81351Y-55393D01*
X81579Y-55393D01*
X81637Y-55421D01*
X81665Y-55450D01*
X81694Y-55507D01*
X81694Y-55593D01*
X81665Y-55650D01*
X81637Y-55679D01*
X81579Y-55707D01*
X81351Y-55707D01*
X81808Y-56050D02*
X82265Y-56050D01*
X82379Y-55964D02*
X82465Y-55993D01*
X82608Y-55993D01*
X82665Y-55964D01*
X82694Y-55936D01*
X82722Y-55879D01*
X82722Y-55821D01*
X82694Y-55764D01*
X82665Y-55736D01*
X82608Y-55707D01*
X82494Y-55679D01*
X82436Y-55650D01*
X82408Y-55621D01*
X82379Y-55564D01*
X82379Y-55507D01*
X82408Y-55450D01*
X82436Y-55421D01*
X82494Y-55393D01*
X82636Y-55393D01*
X82722Y-55421D01*
X82979Y-55679D02*
X83179Y-55679D01*
X83265Y-55993D02*
X82979Y-55993D01*
X82979Y-55393D01*
X83265Y-55393D01*
X83522Y-55993D02*
X83522Y-55393D01*
X83865Y-55993D01*
X83865Y-55393D01*
X84122Y-55964D02*
X84208Y-55993D01*
X84351Y-55993D01*
X84408Y-55964D01*
X84437Y-55936D01*
X84465Y-55879D01*
X84465Y-55821D01*
X84437Y-55764D01*
X84408Y-55736D01*
X84351Y-55707D01*
X84237Y-55679D01*
X84179Y-55650D01*
X84151Y-55621D01*
X84122Y-55564D01*
X84122Y-55507D01*
X84151Y-55450D01*
X84179Y-55421D01*
X84237Y-55393D01*
X84379Y-55393D01*
X84465Y-55421D01*
X75058Y-54493D02*
X75058Y-53893D01*
X75201Y-53893D01*
X75286Y-53921D01*
X75344Y-53979D01*
X75372Y-54036D01*
X75401Y-54150D01*
X75401Y-54236D01*
X75372Y-54350D01*
X75344Y-54407D01*
X75286Y-54464D01*
X75201Y-54493D01*
X75058Y-54493D01*
X75601Y-53893D02*
X76001Y-53893D01*
X75744Y-54493D01*
X67601Y-55993D02*
X67315Y-55993D01*
X67315Y-55393D01*
X67801Y-55679D02*
X68001Y-55679D01*
X68087Y-55993D02*
X67801Y-55993D01*
X67801Y-55393D01*
X68087Y-55393D01*
X68344Y-55993D02*
X68344Y-55393D01*
X68487Y-55393D01*
X68572Y-55421D01*
X68630Y-55479D01*
X68658Y-55536D01*
X68687Y-55650D01*
X68687Y-55736D01*
X68658Y-55850D01*
X68630Y-55907D01*
X68572Y-55964D01*
X68487Y-55993D01*
X68344Y-55993D01*
X68801Y-56050D02*
X69258Y-56050D01*
X69344Y-55393D02*
X69487Y-55993D01*
X69601Y-55564D01*
X69715Y-55993D01*
X69858Y-55393D01*
X70058Y-55821D02*
X70344Y-55821D01*
X70001Y-55993D02*
X70201Y-55393D01*
X70401Y-55993D01*
X70515Y-55393D02*
X70858Y-55393D01*
X70687Y-55993D02*
X70687Y-55393D01*
X71058Y-55679D02*
X71258Y-55679D01*
X71344Y-55993D02*
X71058Y-55993D01*
X71058Y-55393D01*
X71344Y-55393D01*
X71944Y-55993D02*
X71744Y-55707D01*
X71601Y-55993D02*
X71601Y-55393D01*
X71829Y-55393D01*
X71887Y-55421D01*
X71915Y-55450D01*
X71944Y-55507D01*
X71944Y-55593D01*
X71915Y-55650D01*
X71887Y-55679D01*
X71829Y-55707D01*
X71601Y-55707D01*
X72058Y-56050D02*
X72515Y-56050D01*
X72629Y-55964D02*
X72715Y-55993D01*
X72858Y-55993D01*
X72915Y-55964D01*
X72944Y-55936D01*
X72972Y-55879D01*
X72972Y-55821D01*
X72944Y-55764D01*
X72915Y-55736D01*
X72858Y-55707D01*
X72744Y-55679D01*
X72686Y-55650D01*
X72658Y-55621D01*
X72629Y-55564D01*
X72629Y-55507D01*
X72658Y-55450D01*
X72686Y-55421D01*
X72744Y-55393D01*
X72886Y-55393D01*
X72972Y-55421D01*
X73229Y-55679D02*
X73429Y-55679D01*
X73515Y-55993D02*
X73229Y-55993D01*
X73229Y-55393D01*
X73515Y-55393D01*
X73772Y-55993D02*
X73772Y-55393D01*
X74115Y-55993D01*
X74115Y-55393D01*
X74372Y-55964D02*
X74458Y-55993D01*
X74601Y-55993D01*
X74658Y-55964D01*
X74687Y-55936D01*
X74715Y-55879D01*
X74715Y-55821D01*
X74687Y-55764D01*
X74658Y-55736D01*
X74601Y-55707D01*
X74487Y-55679D01*
X74429Y-55650D01*
X74401Y-55621D01*
X74372Y-55564D01*
X74372Y-55507D01*
X74401Y-55450D01*
X74429Y-55421D01*
X74487Y-55393D01*
X74629Y-55393D01*
X74715Y-55421D01*
X65558Y-47243D02*
X65558Y-46643D01*
X65701Y-46643D01*
X65786Y-46671D01*
X65844Y-46729D01*
X65872Y-46786D01*
X65901Y-46900D01*
X65901Y-46986D01*
X65872Y-47100D01*
X65844Y-47157D01*
X65786Y-47214D01*
X65701Y-47243D01*
X65558Y-47243D01*
X66472Y-47243D02*
X66129Y-47243D01*
X66301Y-47243D02*
X66301Y-46643D01*
X66244Y-46729D01*
X66186Y-46786D01*
X66129Y-46814D01*
X58101Y-48743D02*
X57815Y-48743D01*
X57815Y-48143D01*
X58301Y-48429D02*
X58501Y-48429D01*
X58587Y-48743D02*
X58301Y-48743D01*
X58301Y-48143D01*
X58587Y-48143D01*
X58844Y-48743D02*
X58844Y-48143D01*
X58987Y-48143D01*
X59072Y-48171D01*
X59130Y-48229D01*
X59158Y-48286D01*
X59187Y-48400D01*
X59187Y-48486D01*
X59158Y-48600D01*
X59130Y-48657D01*
X59072Y-48714D01*
X58987Y-48743D01*
X58844Y-48743D01*
X59301Y-48800D02*
X59758Y-48800D01*
X59844Y-48143D02*
X59987Y-48743D01*
X60101Y-48314D01*
X60215Y-48743D01*
X60358Y-48143D01*
X60558Y-48571D02*
X60844Y-48571D01*
X60501Y-48743D02*
X60701Y-48143D01*
X60901Y-48743D01*
X61015Y-48143D02*
X61358Y-48143D01*
X61187Y-48743D02*
X61187Y-48143D01*
X61558Y-48429D02*
X61758Y-48429D01*
X61844Y-48743D02*
X61558Y-48743D01*
X61558Y-48143D01*
X61844Y-48143D01*
X62444Y-48743D02*
X62244Y-48457D01*
X62101Y-48743D02*
X62101Y-48143D01*
X62329Y-48143D01*
X62387Y-48171D01*
X62415Y-48200D01*
X62444Y-48257D01*
X62444Y-48343D01*
X62415Y-48400D01*
X62387Y-48429D01*
X62329Y-48457D01*
X62101Y-48457D01*
X62558Y-48800D02*
X63015Y-48800D01*
X63129Y-48714D02*
X63215Y-48743D01*
X63358Y-48743D01*
X63415Y-48714D01*
X63444Y-48686D01*
X63472Y-48629D01*
X63472Y-48571D01*
X63444Y-48514D01*
X63415Y-48486D01*
X63358Y-48457D01*
X63244Y-48429D01*
X63186Y-48400D01*
X63158Y-48371D01*
X63129Y-48314D01*
X63129Y-48257D01*
X63158Y-48200D01*
X63186Y-48171D01*
X63244Y-48143D01*
X63386Y-48143D01*
X63472Y-48171D01*
X63729Y-48429D02*
X63929Y-48429D01*
X64015Y-48743D02*
X63729Y-48743D01*
X63729Y-48143D01*
X64015Y-48143D01*
X64272Y-48743D02*
X64272Y-48143D01*
X64615Y-48743D01*
X64615Y-48143D01*
X64872Y-48714D02*
X64958Y-48743D01*
X65101Y-48743D01*
X65158Y-48714D01*
X65187Y-48686D01*
X65215Y-48629D01*
X65215Y-48571D01*
X65187Y-48514D01*
X65158Y-48486D01*
X65101Y-48457D01*
X64987Y-48429D01*
X64929Y-48400D01*
X64901Y-48371D01*
X64872Y-48314D01*
X64872Y-48257D01*
X64901Y-48200D01*
X64929Y-48171D01*
X64987Y-48143D01*
X65129Y-48143D01*
X65215Y-48171D01*
X94522Y-47243D02*
X94522Y-46643D01*
X94665Y-46643D01*
X94750Y-46671D01*
X94808Y-46729D01*
X94836Y-46786D01*
X94865Y-46900D01*
X94865Y-46986D01*
X94836Y-47100D01*
X94808Y-47157D01*
X94750Y-47214D01*
X94665Y-47243D01*
X94522Y-47243D01*
X95436Y-47243D02*
X95093Y-47243D01*
X95265Y-47243D02*
X95265Y-46643D01*
X95208Y-46729D01*
X95150Y-46786D01*
X95093Y-46814D01*
X95950Y-46643D02*
X95836Y-46643D01*
X95779Y-46671D01*
X95750Y-46700D01*
X95693Y-46786D01*
X95664Y-46900D01*
X95664Y-47129D01*
X95693Y-47186D01*
X95721Y-47214D01*
X95779Y-47243D01*
X95893Y-47243D01*
X95950Y-47214D01*
X95979Y-47186D01*
X96007Y-47129D01*
X96007Y-46986D01*
X95979Y-46929D01*
X95950Y-46900D01*
X95893Y-46871D01*
X95779Y-46871D01*
X95721Y-46900D01*
X95693Y-46929D01*
X95664Y-46986D01*
X87351Y-48743D02*
X87065Y-48743D01*
X87065Y-48143D01*
X87551Y-48429D02*
X87751Y-48429D01*
X87837Y-48743D02*
X87551Y-48743D01*
X87551Y-48143D01*
X87837Y-48143D01*
X88094Y-48743D02*
X88094Y-48143D01*
X88237Y-48143D01*
X88322Y-48171D01*
X88380Y-48229D01*
X88408Y-48286D01*
X88437Y-48400D01*
X88437Y-48486D01*
X88408Y-48600D01*
X88380Y-48657D01*
X88322Y-48714D01*
X88237Y-48743D01*
X88094Y-48743D01*
X88551Y-48800D02*
X89008Y-48800D01*
X89094Y-48143D02*
X89237Y-48743D01*
X89351Y-48314D01*
X89465Y-48743D01*
X89608Y-48143D01*
X89808Y-48571D02*
X90094Y-48571D01*
X89751Y-48743D02*
X89951Y-48143D01*
X90151Y-48743D01*
X90265Y-48143D02*
X90608Y-48143D01*
X90437Y-48743D02*
X90437Y-48143D01*
X90808Y-48429D02*
X91008Y-48429D01*
X91094Y-48743D02*
X90808Y-48743D01*
X90808Y-48143D01*
X91094Y-48143D01*
X91694Y-48743D02*
X91494Y-48457D01*
X91351Y-48743D02*
X91351Y-48143D01*
X91579Y-48143D01*
X91637Y-48171D01*
X91665Y-48200D01*
X91694Y-48257D01*
X91694Y-48343D01*
X91665Y-48400D01*
X91637Y-48429D01*
X91579Y-48457D01*
X91351Y-48457D01*
X91808Y-48800D02*
X92265Y-48800D01*
X92379Y-48714D02*
X92465Y-48743D01*
X92608Y-48743D01*
X92665Y-48714D01*
X92694Y-48686D01*
X92722Y-48629D01*
X92722Y-48571D01*
X92694Y-48514D01*
X92665Y-48486D01*
X92608Y-48457D01*
X92494Y-48429D01*
X92436Y-48400D01*
X92408Y-48371D01*
X92379Y-48314D01*
X92379Y-48257D01*
X92408Y-48200D01*
X92436Y-48171D01*
X92494Y-48143D01*
X92636Y-48143D01*
X92722Y-48171D01*
X92979Y-48429D02*
X93179Y-48429D01*
X93265Y-48743D02*
X92979Y-48743D01*
X92979Y-48143D01*
X93265Y-48143D01*
X93522Y-48743D02*
X93522Y-48143D01*
X93865Y-48743D01*
X93865Y-48143D01*
X94122Y-48714D02*
X94208Y-48743D01*
X94351Y-48743D01*
X94408Y-48714D01*
X94437Y-48686D01*
X94465Y-48629D01*
X94465Y-48571D01*
X94437Y-48514D01*
X94408Y-48486D01*
X94351Y-48457D01*
X94237Y-48429D01*
X94179Y-48400D01*
X94151Y-48371D01*
X94122Y-48314D01*
X94122Y-48257D01*
X94151Y-48200D01*
X94179Y-48171D01*
X94237Y-48143D01*
X94379Y-48143D01*
X94465Y-48171D01*
X84522Y-47243D02*
X84522Y-46643D01*
X84665Y-46643D01*
X84750Y-46671D01*
X84808Y-46729D01*
X84836Y-46786D01*
X84865Y-46900D01*
X84865Y-46986D01*
X84836Y-47100D01*
X84808Y-47157D01*
X84750Y-47214D01*
X84665Y-47243D01*
X84522Y-47243D01*
X85436Y-47243D02*
X85093Y-47243D01*
X85265Y-47243D02*
X85265Y-46643D01*
X85208Y-46729D01*
X85150Y-46786D01*
X85093Y-46814D01*
X86007Y-47243D02*
X85664Y-47243D01*
X85836Y-47243D02*
X85836Y-46643D01*
X85779Y-46729D01*
X85721Y-46786D01*
X85664Y-46814D01*
X77351Y-48743D02*
X77065Y-48743D01*
X77065Y-48143D01*
X77551Y-48429D02*
X77751Y-48429D01*
X77837Y-48743D02*
X77551Y-48743D01*
X77551Y-48143D01*
X77837Y-48143D01*
X78094Y-48743D02*
X78094Y-48143D01*
X78237Y-48143D01*
X78322Y-48171D01*
X78380Y-48229D01*
X78408Y-48286D01*
X78437Y-48400D01*
X78437Y-48486D01*
X78408Y-48600D01*
X78380Y-48657D01*
X78322Y-48714D01*
X78237Y-48743D01*
X78094Y-48743D01*
X78551Y-48800D02*
X79008Y-48800D01*
X79094Y-48143D02*
X79237Y-48743D01*
X79351Y-48314D01*
X79465Y-48743D01*
X79608Y-48143D01*
X79808Y-48571D02*
X80094Y-48571D01*
X79751Y-48743D02*
X79951Y-48143D01*
X80151Y-48743D01*
X80265Y-48143D02*
X80608Y-48143D01*
X80437Y-48743D02*
X80437Y-48143D01*
X80808Y-48429D02*
X81008Y-48429D01*
X81094Y-48743D02*
X80808Y-48743D01*
X80808Y-48143D01*
X81094Y-48143D01*
X81694Y-48743D02*
X81494Y-48457D01*
X81351Y-48743D02*
X81351Y-48143D01*
X81579Y-48143D01*
X81637Y-48171D01*
X81665Y-48200D01*
X81694Y-48257D01*
X81694Y-48343D01*
X81665Y-48400D01*
X81637Y-48429D01*
X81579Y-48457D01*
X81351Y-48457D01*
X81808Y-48800D02*
X82265Y-48800D01*
X82379Y-48714D02*
X82465Y-48743D01*
X82608Y-48743D01*
X82665Y-48714D01*
X82694Y-48686D01*
X82722Y-48629D01*
X82722Y-48571D01*
X82694Y-48514D01*
X82665Y-48486D01*
X82608Y-48457D01*
X82494Y-48429D01*
X82436Y-48400D01*
X82408Y-48371D01*
X82379Y-48314D01*
X82379Y-48257D01*
X82408Y-48200D01*
X82436Y-48171D01*
X82494Y-48143D01*
X82636Y-48143D01*
X82722Y-48171D01*
X82979Y-48429D02*
X83179Y-48429D01*
X83265Y-48743D02*
X82979Y-48743D01*
X82979Y-48143D01*
X83265Y-48143D01*
X83522Y-48743D02*
X83522Y-48143D01*
X83865Y-48743D01*
X83865Y-48143D01*
X84122Y-48714D02*
X84208Y-48743D01*
X84351Y-48743D01*
X84408Y-48714D01*
X84437Y-48686D01*
X84465Y-48629D01*
X84465Y-48571D01*
X84437Y-48514D01*
X84408Y-48486D01*
X84351Y-48457D01*
X84237Y-48429D01*
X84179Y-48400D01*
X84151Y-48371D01*
X84122Y-48314D01*
X84122Y-48257D01*
X84151Y-48200D01*
X84179Y-48171D01*
X84237Y-48143D01*
X84379Y-48143D01*
X84465Y-48171D01*
X75058Y-47243D02*
X75058Y-46643D01*
X75201Y-46643D01*
X75286Y-46671D01*
X75344Y-46729D01*
X75372Y-46786D01*
X75401Y-46900D01*
X75401Y-46986D01*
X75372Y-47100D01*
X75344Y-47157D01*
X75286Y-47214D01*
X75201Y-47243D01*
X75058Y-47243D01*
X75915Y-46643D02*
X75801Y-46643D01*
X75744Y-46671D01*
X75715Y-46700D01*
X75658Y-46786D01*
X75629Y-46900D01*
X75629Y-47129D01*
X75658Y-47186D01*
X75686Y-47214D01*
X75744Y-47243D01*
X75858Y-47243D01*
X75915Y-47214D01*
X75944Y-47186D01*
X75972Y-47129D01*
X75972Y-46986D01*
X75944Y-46929D01*
X75915Y-46900D01*
X75858Y-46871D01*
X75744Y-46871D01*
X75686Y-46900D01*
X75658Y-46929D01*
X75629Y-46986D01*
X67601Y-48743D02*
X67315Y-48743D01*
X67315Y-48143D01*
X67801Y-48429D02*
X68001Y-48429D01*
X68087Y-48743D02*
X67801Y-48743D01*
X67801Y-48143D01*
X68087Y-48143D01*
X68344Y-48743D02*
X68344Y-48143D01*
X68487Y-48143D01*
X68572Y-48171D01*
X68630Y-48229D01*
X68658Y-48286D01*
X68687Y-48400D01*
X68687Y-48486D01*
X68658Y-48600D01*
X68630Y-48657D01*
X68572Y-48714D01*
X68487Y-48743D01*
X68344Y-48743D01*
X68801Y-48800D02*
X69258Y-48800D01*
X69344Y-48143D02*
X69487Y-48743D01*
X69601Y-48314D01*
X69715Y-48743D01*
X69858Y-48143D01*
X70058Y-48571D02*
X70344Y-48571D01*
X70001Y-48743D02*
X70201Y-48143D01*
X70401Y-48743D01*
X70515Y-48143D02*
X70858Y-48143D01*
X70687Y-48743D02*
X70687Y-48143D01*
X71058Y-48429D02*
X71258Y-48429D01*
X71344Y-48743D02*
X71058Y-48743D01*
X71058Y-48143D01*
X71344Y-48143D01*
X71944Y-48743D02*
X71744Y-48457D01*
X71601Y-48743D02*
X71601Y-48143D01*
X71829Y-48143D01*
X71887Y-48171D01*
X71915Y-48200D01*
X71944Y-48257D01*
X71944Y-48343D01*
X71915Y-48400D01*
X71887Y-48429D01*
X71829Y-48457D01*
X71601Y-48457D01*
X72058Y-48800D02*
X72515Y-48800D01*
X72629Y-48714D02*
X72715Y-48743D01*
X72858Y-48743D01*
X72915Y-48714D01*
X72944Y-48686D01*
X72972Y-48629D01*
X72972Y-48571D01*
X72944Y-48514D01*
X72915Y-48486D01*
X72858Y-48457D01*
X72744Y-48429D01*
X72686Y-48400D01*
X72658Y-48371D01*
X72629Y-48314D01*
X72629Y-48257D01*
X72658Y-48200D01*
X72686Y-48171D01*
X72744Y-48143D01*
X72886Y-48143D01*
X72972Y-48171D01*
X73229Y-48429D02*
X73429Y-48429D01*
X73515Y-48743D02*
X73229Y-48743D01*
X73229Y-48143D01*
X73515Y-48143D01*
X73772Y-48743D02*
X73772Y-48143D01*
X74115Y-48743D01*
X74115Y-48143D01*
X74372Y-48714D02*
X74458Y-48743D01*
X74601Y-48743D01*
X74658Y-48714D01*
X74687Y-48686D01*
X74715Y-48629D01*
X74715Y-48571D01*
X74687Y-48514D01*
X74658Y-48486D01*
X74601Y-48457D01*
X74487Y-48429D01*
X74429Y-48400D01*
X74401Y-48371D01*
X74372Y-48314D01*
X74372Y-48257D01*
X74401Y-48200D01*
X74429Y-48171D01*
X74487Y-48143D01*
X74629Y-48143D01*
X74715Y-48171D01*
M02*
