G04 (created by PCBNEW-RS274X (2011-nov-30)-testing) date Sat 18 Aug 2012 05:52:09 PM EDT*
%MOIN*%
G04 Gerber Fmt 3.4, Leading zero omitted, Abs format*
%FSLAX34Y34*%
G01*
G70*
G90*
G04 APERTURE LIST*
%ADD10C,0.006*%
%ADD11C,0.05*%
%ADD12C,0.4*%
%ADD13C,0.3*%
%ADD14C,0.2*%
%ADD15C,0.1*%
%ADD16C,0.14*%
%ADD17R,0.01X0.01*%
%ADD18C,0.035*%
%ADD19C,0.01*%
G04 APERTURE END LIST*
G54D10*
G54D11*
X79870Y-68000D02*
X79786Y-68848D01*
X79540Y-69665D01*
X79139Y-70418D01*
X78600Y-71079D01*
X77943Y-71622D01*
X77193Y-72028D01*
X76378Y-72280D01*
X75530Y-72369D01*
X74682Y-72292D01*
X73863Y-72051D01*
X73108Y-71656D01*
X72443Y-71122D01*
X71895Y-70468D01*
X71484Y-69721D01*
X71226Y-68908D01*
X71131Y-68061D01*
X71202Y-67212D01*
X71437Y-66392D01*
X71827Y-65633D01*
X72357Y-64965D01*
X73006Y-64412D01*
X73751Y-63996D01*
X74562Y-63732D01*
X75409Y-63631D01*
X76258Y-63697D01*
X77080Y-63926D01*
X77841Y-64311D01*
X78513Y-64836D01*
X79070Y-65481D01*
X79492Y-66223D01*
X79761Y-67032D01*
X79868Y-67878D01*
X79870Y-68000D01*
G54D12*
X77500Y-68000D02*
X77461Y-68388D01*
X77349Y-68762D01*
X77165Y-69106D01*
X76919Y-69409D01*
X76618Y-69658D01*
X76275Y-69843D01*
X75902Y-69959D01*
X75513Y-69999D01*
X75126Y-69964D01*
X74751Y-69854D01*
X74405Y-69673D01*
X74101Y-69428D01*
X73850Y-69129D01*
X73662Y-68787D01*
X73544Y-68415D01*
X73501Y-68027D01*
X73533Y-67639D01*
X73641Y-67264D01*
X73819Y-66917D01*
X74062Y-66611D01*
X74359Y-66358D01*
X74700Y-66168D01*
X75071Y-66047D01*
X75459Y-66001D01*
X75847Y-66031D01*
X76223Y-66136D01*
X76571Y-66312D01*
X76879Y-66552D01*
X77134Y-66848D01*
X77327Y-67187D01*
X77450Y-67557D01*
X77499Y-67945D01*
X77500Y-68000D01*
G54D11*
X70330Y-68000D02*
X70247Y-68841D01*
X70003Y-69650D01*
X69606Y-70396D01*
X69072Y-71051D01*
X68421Y-71589D01*
X67677Y-71991D01*
X66870Y-72241D01*
X66030Y-72329D01*
X65189Y-72253D01*
X64378Y-72014D01*
X63630Y-71623D01*
X62971Y-71093D01*
X62428Y-70446D01*
X62021Y-69705D01*
X61765Y-68900D01*
X61671Y-68060D01*
X61742Y-67219D01*
X61975Y-66407D01*
X62361Y-65655D01*
X62886Y-64993D01*
X63529Y-64445D01*
X64267Y-64033D01*
X65071Y-63772D01*
X65910Y-63671D01*
X66751Y-63736D01*
X67565Y-63964D01*
X68320Y-64345D01*
X68986Y-64865D01*
X69538Y-65505D01*
X69955Y-66239D01*
X70222Y-67041D01*
X70328Y-67880D01*
X70330Y-68000D01*
G54D12*
X68000Y-68000D02*
X67961Y-68388D01*
X67849Y-68762D01*
X67665Y-69106D01*
X67419Y-69409D01*
X67118Y-69658D01*
X66775Y-69843D01*
X66402Y-69959D01*
X66013Y-69999D01*
X65626Y-69964D01*
X65251Y-69854D01*
X64905Y-69673D01*
X64601Y-69428D01*
X64350Y-69129D01*
X64162Y-68787D01*
X64044Y-68415D01*
X64001Y-68027D01*
X64033Y-67639D01*
X64141Y-67264D01*
X64319Y-66917D01*
X64562Y-66611D01*
X64859Y-66358D01*
X65200Y-66168D01*
X65571Y-66047D01*
X65959Y-66001D01*
X66347Y-66031D01*
X66723Y-66136D01*
X67071Y-66312D01*
X67379Y-66552D01*
X67634Y-66848D01*
X67827Y-67187D01*
X67950Y-67557D01*
X67999Y-67945D01*
X68000Y-68000D01*
G54D11*
X99800Y-68000D02*
X99713Y-68883D01*
X99456Y-69733D01*
X99039Y-70517D01*
X98478Y-71206D01*
X97794Y-71772D01*
X97013Y-72194D01*
X96164Y-72457D01*
X95281Y-72549D01*
X94398Y-72469D01*
X93546Y-72218D01*
X92759Y-71807D01*
X92067Y-71250D01*
X91496Y-70570D01*
X91068Y-69792D01*
X90800Y-68945D01*
X90701Y-68063D01*
X90775Y-67179D01*
X91020Y-66326D01*
X91426Y-65536D01*
X91978Y-64840D01*
X92654Y-64264D01*
X93429Y-63831D01*
X94273Y-63557D01*
X95155Y-63451D01*
X96040Y-63520D01*
X96895Y-63758D01*
X97688Y-64159D01*
X98387Y-64706D01*
X98968Y-65378D01*
X99406Y-66150D01*
X99686Y-66992D01*
X99798Y-67873D01*
X99800Y-68000D01*
G54D12*
X97250Y-68000D02*
X97211Y-68388D01*
X97099Y-68762D01*
X96915Y-69106D01*
X96669Y-69409D01*
X96368Y-69658D01*
X96025Y-69843D01*
X95652Y-69959D01*
X95263Y-69999D01*
X94876Y-69964D01*
X94501Y-69854D01*
X94155Y-69673D01*
X93851Y-69428D01*
X93600Y-69129D01*
X93412Y-68787D01*
X93294Y-68415D01*
X93251Y-68027D01*
X93283Y-67639D01*
X93391Y-67264D01*
X93569Y-66917D01*
X93812Y-66611D01*
X94109Y-66358D01*
X94450Y-66168D01*
X94821Y-66047D01*
X95209Y-66001D01*
X95597Y-66031D01*
X95973Y-66136D01*
X96321Y-66312D01*
X96629Y-66552D01*
X96884Y-66848D01*
X97077Y-67187D01*
X97200Y-67557D01*
X97249Y-67945D01*
X97250Y-68000D01*
G54D11*
X89700Y-68000D02*
X89615Y-68864D01*
X89364Y-69695D01*
X88956Y-70462D01*
X88407Y-71135D01*
X87738Y-71689D01*
X86974Y-72102D01*
X86144Y-72359D01*
X85281Y-72449D01*
X84417Y-72371D01*
X83584Y-72125D01*
X82814Y-71723D01*
X82137Y-71179D01*
X81579Y-70514D01*
X81160Y-69753D01*
X80898Y-68925D01*
X80801Y-68062D01*
X80874Y-67197D01*
X81113Y-66362D01*
X81510Y-65590D01*
X82049Y-64909D01*
X82711Y-64346D01*
X83469Y-63923D01*
X84295Y-63654D01*
X85157Y-63551D01*
X86022Y-63618D01*
X86859Y-63852D01*
X87634Y-64243D01*
X88318Y-64778D01*
X88886Y-65435D01*
X89315Y-66191D01*
X89589Y-67015D01*
X89698Y-67876D01*
X89700Y-68000D01*
G54D12*
X87250Y-68000D02*
X87211Y-68388D01*
X87099Y-68762D01*
X86915Y-69106D01*
X86669Y-69409D01*
X86368Y-69658D01*
X86025Y-69843D01*
X85652Y-69959D01*
X85263Y-69999D01*
X84876Y-69964D01*
X84501Y-69854D01*
X84155Y-69673D01*
X83851Y-69428D01*
X83600Y-69129D01*
X83412Y-68787D01*
X83294Y-68415D01*
X83251Y-68027D01*
X83283Y-67639D01*
X83391Y-67264D01*
X83569Y-66917D01*
X83812Y-66611D01*
X84109Y-66358D01*
X84450Y-66168D01*
X84821Y-66047D01*
X85209Y-66001D01*
X85597Y-66031D01*
X85973Y-66136D01*
X86321Y-66312D01*
X86629Y-66552D01*
X86884Y-66848D01*
X87077Y-67187D01*
X87200Y-67557D01*
X87249Y-67945D01*
X87250Y-68000D01*
G54D11*
X70830Y-57000D02*
X70766Y-57646D01*
X70578Y-58268D01*
X70273Y-58842D01*
X69862Y-59346D01*
X69362Y-59760D01*
X68790Y-60069D01*
X68169Y-60261D01*
X67523Y-60329D01*
X66877Y-60271D01*
X66253Y-60087D01*
X65677Y-59786D01*
X65171Y-59379D01*
X64753Y-58881D01*
X64440Y-58311D01*
X64243Y-57692D01*
X64171Y-57046D01*
X64225Y-56399D01*
X64404Y-55775D01*
X64701Y-55197D01*
X65105Y-54687D01*
X65600Y-54266D01*
X66167Y-53949D01*
X66785Y-53748D01*
X67431Y-53671D01*
X68078Y-53721D01*
X68704Y-53896D01*
X69284Y-54189D01*
X69796Y-54589D01*
X70221Y-55081D01*
X70542Y-55646D01*
X70747Y-56263D01*
X70828Y-56908D01*
X70830Y-57000D01*
G54D13*
X69000Y-57000D02*
X68971Y-57291D01*
X68886Y-57571D01*
X68749Y-57830D01*
X68564Y-58056D01*
X68338Y-58243D01*
X68081Y-58382D01*
X67801Y-58469D01*
X67510Y-58499D01*
X67219Y-58473D01*
X66939Y-58390D01*
X66679Y-58255D01*
X66451Y-58071D01*
X66263Y-57847D01*
X66122Y-57590D01*
X66033Y-57311D01*
X66001Y-57020D01*
X66025Y-56730D01*
X66106Y-56448D01*
X66240Y-56188D01*
X66421Y-55959D01*
X66644Y-55769D01*
X66900Y-55626D01*
X67178Y-55535D01*
X67469Y-55501D01*
X67760Y-55523D01*
X68042Y-55602D01*
X68303Y-55734D01*
X68534Y-55914D01*
X68725Y-56136D01*
X68870Y-56390D01*
X68962Y-56668D01*
X68999Y-56959D01*
X69000Y-57000D01*
G54D11*
X97500Y-57000D02*
X97428Y-57728D01*
X97217Y-58429D01*
X96873Y-59075D01*
X96410Y-59642D01*
X95846Y-60108D01*
X95203Y-60456D01*
X94504Y-60673D01*
X93776Y-60749D01*
X93048Y-60683D01*
X92346Y-60476D01*
X91697Y-60137D01*
X91127Y-59679D01*
X90656Y-59118D01*
X90304Y-58477D01*
X90082Y-57779D01*
X90001Y-57052D01*
X90062Y-56324D01*
X90264Y-55620D01*
X90598Y-54969D01*
X91053Y-54396D01*
X91610Y-53921D01*
X92249Y-53564D01*
X92945Y-53338D01*
X93672Y-53251D01*
X94401Y-53307D01*
X95106Y-53504D01*
X95759Y-53834D01*
X96336Y-54285D01*
X96814Y-54839D01*
X97175Y-55475D01*
X97406Y-56170D01*
X97498Y-56896D01*
X97500Y-57000D01*
G54D13*
X95250Y-57000D02*
X95221Y-57291D01*
X95136Y-57571D01*
X94999Y-57830D01*
X94814Y-58056D01*
X94588Y-58243D01*
X94331Y-58382D01*
X94051Y-58469D01*
X93760Y-58499D01*
X93469Y-58473D01*
X93189Y-58390D01*
X92929Y-58255D01*
X92701Y-58071D01*
X92513Y-57847D01*
X92372Y-57590D01*
X92283Y-57311D01*
X92251Y-57020D01*
X92275Y-56730D01*
X92356Y-56448D01*
X92490Y-56188D01*
X92671Y-55959D01*
X92894Y-55769D01*
X93150Y-55626D01*
X93428Y-55535D01*
X93719Y-55501D01*
X94010Y-55523D01*
X94292Y-55602D01*
X94553Y-55734D01*
X94784Y-55914D01*
X94975Y-56136D01*
X95120Y-56390D01*
X95212Y-56668D01*
X95249Y-56959D01*
X95250Y-57000D01*
G54D11*
X88050Y-57000D02*
X87982Y-57689D01*
X87782Y-58352D01*
X87456Y-58964D01*
X87018Y-59501D01*
X86485Y-59943D01*
X85875Y-60272D01*
X85213Y-60477D01*
X84524Y-60549D01*
X83835Y-60487D01*
X83171Y-60291D01*
X82557Y-59970D01*
X82017Y-59536D01*
X81571Y-59005D01*
X81238Y-58398D01*
X81028Y-57738D01*
X80951Y-57049D01*
X81009Y-56360D01*
X81200Y-55694D01*
X81516Y-55077D01*
X81947Y-54534D01*
X82474Y-54085D01*
X83079Y-53747D01*
X83738Y-53533D01*
X84426Y-53451D01*
X85116Y-53504D01*
X85783Y-53691D01*
X86402Y-54003D01*
X86948Y-54430D01*
X87400Y-54954D01*
X87743Y-55557D01*
X87961Y-56214D01*
X88048Y-56901D01*
X88050Y-57000D01*
G54D13*
X86000Y-57000D02*
X85971Y-57291D01*
X85886Y-57571D01*
X85749Y-57830D01*
X85564Y-58056D01*
X85338Y-58243D01*
X85081Y-58382D01*
X84801Y-58469D01*
X84510Y-58499D01*
X84219Y-58473D01*
X83939Y-58390D01*
X83679Y-58255D01*
X83451Y-58071D01*
X83263Y-57847D01*
X83122Y-57590D01*
X83033Y-57311D01*
X83001Y-57020D01*
X83025Y-56730D01*
X83106Y-56448D01*
X83240Y-56188D01*
X83421Y-55959D01*
X83644Y-55769D01*
X83900Y-55626D01*
X84178Y-55535D01*
X84469Y-55501D01*
X84760Y-55523D01*
X85042Y-55602D01*
X85303Y-55734D01*
X85534Y-55914D01*
X85725Y-56136D01*
X85870Y-56390D01*
X85962Y-56668D01*
X85999Y-56959D01*
X86000Y-57000D01*
G54D11*
X79120Y-57000D02*
X79055Y-57654D01*
X78865Y-58284D01*
X78556Y-58864D01*
X78141Y-59374D01*
X77634Y-59793D01*
X77055Y-60106D01*
X76427Y-60301D01*
X75773Y-60369D01*
X75119Y-60310D01*
X74488Y-60124D01*
X73905Y-59819D01*
X73393Y-59407D01*
X72970Y-58903D01*
X72653Y-58327D01*
X72454Y-57700D01*
X72381Y-57047D01*
X72436Y-56392D01*
X72617Y-55760D01*
X72918Y-55175D01*
X73326Y-54660D01*
X73827Y-54233D01*
X74401Y-53912D01*
X75027Y-53709D01*
X75680Y-53631D01*
X76335Y-53682D01*
X76968Y-53859D01*
X77555Y-54155D01*
X78074Y-54560D01*
X78503Y-55058D01*
X78828Y-55630D01*
X79036Y-56254D01*
X79118Y-56906D01*
X79120Y-57000D01*
G54D13*
X77250Y-57000D02*
X77221Y-57291D01*
X77136Y-57571D01*
X76999Y-57830D01*
X76814Y-58056D01*
X76588Y-58243D01*
X76331Y-58382D01*
X76051Y-58469D01*
X75760Y-58499D01*
X75469Y-58473D01*
X75189Y-58390D01*
X74929Y-58255D01*
X74701Y-58071D01*
X74513Y-57847D01*
X74372Y-57590D01*
X74283Y-57311D01*
X74251Y-57020D01*
X74275Y-56730D01*
X74356Y-56448D01*
X74490Y-56188D01*
X74671Y-55959D01*
X74894Y-55769D01*
X75150Y-55626D01*
X75428Y-55535D01*
X75719Y-55501D01*
X76010Y-55523D01*
X76292Y-55602D01*
X76553Y-55734D01*
X76784Y-55914D01*
X76975Y-56136D01*
X77120Y-56390D01*
X77212Y-56668D01*
X77249Y-56959D01*
X77250Y-57000D01*
G54D11*
X68340Y-48750D02*
X68295Y-49204D01*
X68163Y-49641D01*
X67949Y-50044D01*
X67660Y-50398D01*
X67308Y-50689D01*
X66906Y-50907D01*
X66470Y-51042D01*
X66016Y-51089D01*
X65562Y-51048D01*
X65124Y-50919D01*
X64719Y-50708D01*
X64363Y-50421D01*
X64070Y-50072D01*
X63850Y-49671D01*
X63712Y-49236D01*
X63661Y-48782D01*
X63699Y-48328D01*
X63825Y-47889D01*
X64034Y-47483D01*
X64317Y-47125D01*
X64665Y-46829D01*
X65064Y-46606D01*
X65498Y-46465D01*
X65951Y-46411D01*
X66406Y-46446D01*
X66846Y-46569D01*
X67253Y-46775D01*
X67613Y-47056D01*
X67912Y-47402D01*
X68137Y-47799D01*
X68281Y-48232D01*
X68339Y-48685D01*
X68340Y-48750D01*
G54D14*
X67000Y-48750D02*
X66980Y-48944D01*
X66924Y-49131D01*
X66832Y-49303D01*
X66709Y-49454D01*
X66559Y-49579D01*
X66387Y-49671D01*
X66201Y-49729D01*
X66006Y-49749D01*
X65813Y-49732D01*
X65626Y-49677D01*
X65453Y-49586D01*
X65301Y-49464D01*
X65175Y-49314D01*
X65081Y-49143D01*
X65022Y-48957D01*
X65001Y-48763D01*
X65017Y-48570D01*
X65071Y-48382D01*
X65160Y-48209D01*
X65281Y-48056D01*
X65430Y-47929D01*
X65600Y-47834D01*
X65786Y-47774D01*
X65980Y-47751D01*
X66173Y-47766D01*
X66361Y-47818D01*
X66535Y-47906D01*
X66689Y-48026D01*
X66817Y-48174D01*
X66913Y-48344D01*
X66975Y-48529D01*
X66999Y-48723D01*
X67000Y-48750D01*
G54D11*
X97800Y-48750D02*
X97751Y-49245D01*
X97607Y-49721D01*
X97373Y-50161D01*
X97059Y-50546D01*
X96675Y-50864D01*
X96238Y-51100D01*
X95762Y-51247D01*
X95267Y-51299D01*
X94773Y-51254D01*
X94295Y-51114D01*
X93854Y-50883D01*
X93466Y-50571D01*
X93146Y-50190D01*
X92907Y-49754D01*
X92756Y-49280D01*
X92701Y-48785D01*
X92742Y-48290D01*
X92880Y-47812D01*
X93107Y-47369D01*
X93416Y-46979D01*
X93795Y-46657D01*
X94230Y-46414D01*
X94703Y-46260D01*
X95197Y-46201D01*
X95692Y-46239D01*
X96172Y-46373D01*
X96616Y-46597D01*
X97008Y-46904D01*
X97333Y-47281D01*
X97579Y-47713D01*
X97736Y-48186D01*
X97799Y-48679D01*
X97800Y-48750D01*
G54D14*
X96250Y-48750D02*
X96230Y-48944D01*
X96174Y-49131D01*
X96082Y-49303D01*
X95959Y-49454D01*
X95809Y-49579D01*
X95637Y-49671D01*
X95451Y-49729D01*
X95256Y-49749D01*
X95063Y-49732D01*
X94876Y-49677D01*
X94703Y-49586D01*
X94551Y-49464D01*
X94425Y-49314D01*
X94331Y-49143D01*
X94272Y-48957D01*
X94251Y-48763D01*
X94267Y-48570D01*
X94321Y-48382D01*
X94410Y-48209D01*
X94531Y-48056D01*
X94680Y-47929D01*
X94850Y-47834D01*
X95036Y-47774D01*
X95230Y-47751D01*
X95423Y-47766D01*
X95611Y-47818D01*
X95785Y-47906D01*
X95939Y-48026D01*
X96067Y-48174D01*
X96163Y-48344D01*
X96225Y-48529D01*
X96249Y-48723D01*
X96250Y-48750D01*
G54D11*
X87700Y-48750D02*
X87653Y-49225D01*
X87515Y-49683D01*
X87290Y-50105D01*
X86988Y-50476D01*
X86620Y-50781D01*
X86199Y-51008D01*
X85742Y-51149D01*
X85267Y-51199D01*
X84791Y-51156D01*
X84333Y-51021D01*
X83909Y-50800D01*
X83536Y-50500D01*
X83229Y-50134D01*
X82999Y-49715D01*
X82854Y-49259D01*
X82801Y-48784D01*
X82841Y-48308D01*
X82973Y-47849D01*
X83191Y-47423D01*
X83488Y-47049D01*
X83852Y-46739D01*
X84270Y-46505D01*
X84724Y-46358D01*
X85199Y-46301D01*
X85675Y-46338D01*
X86135Y-46466D01*
X86562Y-46682D01*
X86939Y-46976D01*
X87252Y-47338D01*
X87488Y-47754D01*
X87639Y-48208D01*
X87699Y-48682D01*
X87700Y-48750D01*
G54D14*
X86250Y-48750D02*
X86230Y-48944D01*
X86174Y-49131D01*
X86082Y-49303D01*
X85959Y-49454D01*
X85809Y-49579D01*
X85637Y-49671D01*
X85451Y-49729D01*
X85256Y-49749D01*
X85063Y-49732D01*
X84876Y-49677D01*
X84703Y-49586D01*
X84551Y-49464D01*
X84425Y-49314D01*
X84331Y-49143D01*
X84272Y-48957D01*
X84251Y-48763D01*
X84267Y-48570D01*
X84321Y-48382D01*
X84410Y-48209D01*
X84531Y-48056D01*
X84680Y-47929D01*
X84850Y-47834D01*
X85036Y-47774D01*
X85230Y-47751D01*
X85423Y-47766D01*
X85611Y-47818D01*
X85785Y-47906D01*
X85939Y-48026D01*
X86067Y-48174D01*
X86163Y-48344D01*
X86225Y-48529D01*
X86249Y-48723D01*
X86250Y-48750D01*
G54D11*
X77870Y-48750D02*
X77824Y-49210D01*
X77691Y-49653D01*
X77474Y-50061D01*
X77181Y-50419D01*
X76825Y-50714D01*
X76418Y-50934D01*
X75976Y-51071D01*
X75516Y-51119D01*
X75056Y-51078D01*
X74613Y-50947D01*
X74203Y-50733D01*
X73842Y-50443D01*
X73545Y-50088D01*
X73322Y-49683D01*
X73182Y-49242D01*
X73131Y-48783D01*
X73169Y-48323D01*
X73297Y-47878D01*
X73508Y-47467D01*
X73796Y-47104D01*
X74148Y-46804D01*
X74552Y-46579D01*
X74992Y-46436D01*
X75451Y-46381D01*
X75911Y-46417D01*
X76357Y-46541D01*
X76769Y-46749D01*
X77134Y-47034D01*
X77436Y-47384D01*
X77665Y-47787D01*
X77811Y-48225D01*
X77869Y-48684D01*
X77870Y-48750D01*
G54D14*
X76500Y-48750D02*
X76480Y-48944D01*
X76424Y-49131D01*
X76332Y-49303D01*
X76209Y-49454D01*
X76059Y-49579D01*
X75887Y-49671D01*
X75701Y-49729D01*
X75506Y-49749D01*
X75313Y-49732D01*
X75126Y-49677D01*
X74953Y-49586D01*
X74801Y-49464D01*
X74675Y-49314D01*
X74581Y-49143D01*
X74522Y-48957D01*
X74501Y-48763D01*
X74517Y-48570D01*
X74571Y-48382D01*
X74660Y-48209D01*
X74781Y-48056D01*
X74930Y-47929D01*
X75100Y-47834D01*
X75286Y-47774D01*
X75480Y-47751D01*
X75673Y-47766D01*
X75861Y-47818D01*
X76035Y-47906D01*
X76189Y-48026D01*
X76317Y-48174D01*
X76413Y-48344D01*
X76475Y-48529D01*
X76499Y-48723D01*
X76500Y-48750D01*
G54D11*
X67330Y-41500D02*
X67304Y-41758D01*
X67229Y-42006D01*
X67107Y-42236D01*
X66943Y-42437D01*
X66743Y-42602D01*
X66515Y-42726D01*
X66267Y-42802D01*
X66009Y-42829D01*
X65751Y-42806D01*
X65502Y-42733D01*
X65272Y-42612D01*
X65070Y-42450D01*
X64903Y-42251D01*
X64778Y-42023D01*
X64700Y-41776D01*
X64671Y-41518D01*
X64692Y-41260D01*
X64764Y-41011D01*
X64883Y-40780D01*
X65044Y-40577D01*
X65241Y-40408D01*
X65468Y-40282D01*
X65715Y-40202D01*
X65973Y-40171D01*
X66230Y-40191D01*
X66480Y-40261D01*
X66712Y-40378D01*
X66917Y-40537D01*
X67086Y-40734D01*
X67215Y-40960D01*
X67296Y-41206D01*
X67329Y-41463D01*
X67330Y-41500D01*
G54D15*
X66500Y-41500D02*
X66490Y-41597D01*
X66462Y-41690D01*
X66416Y-41776D01*
X66354Y-41852D01*
X66279Y-41914D01*
X66193Y-41960D01*
X66100Y-41989D01*
X66003Y-41999D01*
X65907Y-41991D01*
X65813Y-41963D01*
X65727Y-41918D01*
X65651Y-41857D01*
X65588Y-41782D01*
X65541Y-41696D01*
X65511Y-41603D01*
X65501Y-41506D01*
X65509Y-41410D01*
X65536Y-41316D01*
X65580Y-41230D01*
X65641Y-41153D01*
X65715Y-41090D01*
X65800Y-41042D01*
X65893Y-41012D01*
X65990Y-41001D01*
X66086Y-41008D01*
X66180Y-41034D01*
X66267Y-41078D01*
X66344Y-41138D01*
X66408Y-41212D01*
X66456Y-41297D01*
X66487Y-41390D01*
X66499Y-41487D01*
X66500Y-41500D01*
G54D11*
X96800Y-41500D02*
X96770Y-41801D01*
X96683Y-42090D01*
X96541Y-42357D01*
X96349Y-42592D01*
X96116Y-42785D01*
X95850Y-42928D01*
X95561Y-43018D01*
X95260Y-43049D01*
X94960Y-43022D01*
X94670Y-42937D01*
X94402Y-42796D01*
X94166Y-42607D01*
X93972Y-42375D01*
X93826Y-42110D01*
X93734Y-41822D01*
X93701Y-41521D01*
X93726Y-41221D01*
X93809Y-40930D01*
X93948Y-40661D01*
X94136Y-40424D01*
X94366Y-40228D01*
X94630Y-40080D01*
X94918Y-39987D01*
X95218Y-39951D01*
X95519Y-39974D01*
X95810Y-40055D01*
X96080Y-40192D01*
X96318Y-40378D01*
X96516Y-40607D01*
X96665Y-40870D01*
X96761Y-41157D01*
X96799Y-41457D01*
X96800Y-41500D01*
G54D15*
X95750Y-41500D02*
X95740Y-41597D01*
X95712Y-41690D01*
X95666Y-41776D01*
X95604Y-41852D01*
X95529Y-41914D01*
X95443Y-41960D01*
X95350Y-41989D01*
X95253Y-41999D01*
X95157Y-41991D01*
X95063Y-41963D01*
X94977Y-41918D01*
X94901Y-41857D01*
X94838Y-41782D01*
X94791Y-41696D01*
X94761Y-41603D01*
X94751Y-41506D01*
X94759Y-41410D01*
X94786Y-41316D01*
X94830Y-41230D01*
X94891Y-41153D01*
X94965Y-41090D01*
X95050Y-41042D01*
X95143Y-41012D01*
X95240Y-41001D01*
X95336Y-41008D01*
X95430Y-41034D01*
X95517Y-41078D01*
X95594Y-41138D01*
X95658Y-41212D01*
X95706Y-41297D01*
X95737Y-41390D01*
X95749Y-41487D01*
X95750Y-41500D01*
G54D11*
X86700Y-41500D02*
X86672Y-41781D01*
X86590Y-42052D01*
X86457Y-42302D01*
X86278Y-42521D01*
X86060Y-42702D01*
X85811Y-42836D01*
X85541Y-42920D01*
X85260Y-42949D01*
X84979Y-42924D01*
X84707Y-42844D01*
X84457Y-42713D01*
X84236Y-42535D01*
X84054Y-42319D01*
X83918Y-42071D01*
X83832Y-41801D01*
X83801Y-41520D01*
X83824Y-41239D01*
X83902Y-40967D01*
X84032Y-40715D01*
X84207Y-40493D01*
X84423Y-40310D01*
X84670Y-40172D01*
X84939Y-40084D01*
X85220Y-40051D01*
X85501Y-40073D01*
X85774Y-40149D01*
X86026Y-40276D01*
X86249Y-40450D01*
X86434Y-40665D01*
X86574Y-40911D01*
X86663Y-41179D01*
X86699Y-41460D01*
X86700Y-41500D01*
G54D15*
X85750Y-41500D02*
X85740Y-41597D01*
X85712Y-41690D01*
X85666Y-41776D01*
X85604Y-41852D01*
X85529Y-41914D01*
X85443Y-41960D01*
X85350Y-41989D01*
X85253Y-41999D01*
X85157Y-41991D01*
X85063Y-41963D01*
X84977Y-41918D01*
X84901Y-41857D01*
X84838Y-41782D01*
X84791Y-41696D01*
X84761Y-41603D01*
X84751Y-41506D01*
X84759Y-41410D01*
X84786Y-41316D01*
X84830Y-41230D01*
X84891Y-41153D01*
X84965Y-41090D01*
X85050Y-41042D01*
X85143Y-41012D01*
X85240Y-41001D01*
X85336Y-41008D01*
X85430Y-41034D01*
X85517Y-41078D01*
X85594Y-41138D01*
X85658Y-41212D01*
X85706Y-41297D01*
X85737Y-41390D01*
X85749Y-41487D01*
X85750Y-41500D01*
G54D11*
X76870Y-41500D02*
X76843Y-41766D01*
X76766Y-42022D01*
X76641Y-42258D01*
X76472Y-42465D01*
X76266Y-42635D01*
X76030Y-42762D01*
X75775Y-42842D01*
X75509Y-42869D01*
X75244Y-42845D01*
X74987Y-42770D01*
X74750Y-42646D01*
X74542Y-42478D01*
X74370Y-42274D01*
X74241Y-42039D01*
X74160Y-41784D01*
X74131Y-41519D01*
X74153Y-41253D01*
X74227Y-40996D01*
X74349Y-40758D01*
X74515Y-40549D01*
X74719Y-40376D01*
X74952Y-40245D01*
X75206Y-40162D01*
X75472Y-40131D01*
X75737Y-40151D01*
X75995Y-40223D01*
X76234Y-40344D01*
X76444Y-40508D01*
X76619Y-40711D01*
X76751Y-40943D01*
X76835Y-41197D01*
X76869Y-41462D01*
X76870Y-41500D01*
G54D15*
X76000Y-41500D02*
X75990Y-41597D01*
X75962Y-41690D01*
X75916Y-41776D01*
X75854Y-41852D01*
X75779Y-41914D01*
X75693Y-41960D01*
X75600Y-41989D01*
X75503Y-41999D01*
X75407Y-41991D01*
X75313Y-41963D01*
X75227Y-41918D01*
X75151Y-41857D01*
X75088Y-41782D01*
X75041Y-41696D01*
X75011Y-41603D01*
X75001Y-41506D01*
X75009Y-41410D01*
X75036Y-41316D01*
X75080Y-41230D01*
X75141Y-41153D01*
X75215Y-41090D01*
X75300Y-41042D01*
X75393Y-41012D01*
X75490Y-41001D01*
X75586Y-41008D01*
X75680Y-41034D01*
X75767Y-41078D01*
X75844Y-41138D01*
X75908Y-41212D01*
X75956Y-41297D01*
X75987Y-41390D01*
X75999Y-41487D01*
X76000Y-41500D01*
G54D16*
X75500Y-68000D03*
G54D17*
X75505Y-63555D03*
G54D16*
X66000Y-68000D03*
G54D17*
X66000Y-63700D03*
G54D16*
X95250Y-68000D03*
G54D17*
X95250Y-63500D03*
G54D16*
X85250Y-68000D03*
G54D17*
X85250Y-63500D03*
G54D16*
X67500Y-57000D03*
G54D17*
X67500Y-53700D03*
G54D16*
X93750Y-57000D03*
G54D17*
X93750Y-53200D03*
G54D16*
X84500Y-57000D03*
G54D17*
X84500Y-53500D03*
G54D16*
X75750Y-57000D03*
G54D17*
X75750Y-53700D03*
G54D16*
X66000Y-48750D03*
G54D17*
X66000Y-46350D03*
G54D16*
X95250Y-48750D03*
G54D17*
X95250Y-46350D03*
G54D16*
X85250Y-48750D03*
G54D17*
X85250Y-46350D03*
G54D16*
X75500Y-48750D03*
G54D17*
X75500Y-46350D03*
G54D16*
X66000Y-41500D03*
G54D17*
X66000Y-40170D03*
G54D16*
X95250Y-41500D03*
G54D17*
X95250Y-40170D03*
G54D16*
X85250Y-41500D03*
G54D17*
X85250Y-40170D03*
G54D16*
X75500Y-41500D03*
G54D17*
X75500Y-40170D03*
G54D18*
X76750Y-74000D03*
X98750Y-60250D03*
X78750Y-39000D03*
X62500Y-59750D03*
G54D11*
X75505Y-63555D02*
X75505Y-62005D01*
X75505Y-62005D02*
X75500Y-62000D01*
X66000Y-63700D02*
X66000Y-62250D01*
X85250Y-63500D02*
X85250Y-62250D01*
X95250Y-63500D02*
X95250Y-62000D01*
X84500Y-53500D02*
X84500Y-52250D01*
X75750Y-53700D02*
X75750Y-52500D01*
X67500Y-53700D02*
X67500Y-52250D01*
X66000Y-46350D02*
X66000Y-44750D01*
X75500Y-46350D02*
X75500Y-45000D01*
X85250Y-46350D02*
X85250Y-44750D01*
X93750Y-53200D02*
X93200Y-53200D01*
X93200Y-53200D02*
X92250Y-52250D01*
X95250Y-46350D02*
X95250Y-45000D01*
X85250Y-40170D02*
X85250Y-38500D01*
X75500Y-40170D02*
X75500Y-38750D01*
X66000Y-40170D02*
X66000Y-38750D01*
G54D10*
G36*
X99450Y-64813D02*
X99132Y-64338D01*
X98911Y-64118D01*
X98907Y-64116D01*
X98584Y-63899D01*
X98584Y-48907D01*
X98584Y-48905D01*
X98584Y-48595D01*
X98584Y-48593D01*
X98583Y-48591D01*
X98391Y-47619D01*
X98390Y-47616D01*
X98271Y-47330D01*
X98271Y-47328D01*
X97718Y-46502D01*
X97585Y-46369D01*
X97585Y-41657D01*
X97585Y-41655D01*
X97585Y-41345D01*
X97585Y-41343D01*
X97466Y-40751D01*
X97466Y-40750D01*
X97347Y-40463D01*
X97347Y-40462D01*
X97345Y-40460D01*
X97012Y-39960D01*
X97010Y-39958D01*
X96791Y-39739D01*
X96789Y-39738D01*
X96287Y-39402D01*
X95998Y-39283D01*
X95993Y-39283D01*
X95407Y-39166D01*
X95405Y-39165D01*
X95095Y-39165D01*
X95093Y-39165D01*
X94500Y-39284D01*
X94212Y-39403D01*
X94210Y-39404D01*
X93710Y-39738D01*
X93708Y-39740D01*
X93489Y-39959D01*
X93488Y-39960D01*
X93488Y-39961D01*
X93152Y-40463D01*
X93033Y-40752D01*
X93033Y-40756D01*
X92916Y-41342D01*
X92915Y-41345D01*
X92915Y-41500D01*
X92915Y-41655D01*
X92916Y-41657D01*
X93033Y-42243D01*
X93033Y-42248D01*
X93152Y-42537D01*
X93488Y-43039D01*
X93489Y-43041D01*
X93708Y-43260D01*
X93710Y-43262D01*
X94210Y-43595D01*
X94212Y-43597D01*
X94213Y-43597D01*
X94500Y-43716D01*
X94501Y-43716D01*
X95093Y-43835D01*
X95095Y-43835D01*
X95405Y-43835D01*
X95407Y-43834D01*
X95407Y-43833D01*
X95993Y-43717D01*
X95998Y-43717D01*
X95999Y-43716D01*
X96287Y-43598D01*
X96789Y-43262D01*
X96789Y-43261D01*
X96791Y-43261D01*
X97010Y-43042D01*
X97012Y-43040D01*
X97345Y-42539D01*
X97347Y-42538D01*
X97347Y-42537D01*
X97466Y-42250D01*
X97466Y-42249D01*
X97585Y-41657D01*
X97585Y-46369D01*
X97497Y-46282D01*
X96671Y-45729D01*
X96670Y-45728D01*
X96381Y-45608D01*
X95405Y-45415D01*
X95093Y-45416D01*
X95091Y-45416D01*
X94119Y-45609D01*
X94116Y-45609D01*
X94116Y-45610D01*
X93828Y-45729D01*
X93002Y-46282D01*
X92782Y-46503D01*
X92229Y-47328D01*
X92228Y-47330D01*
X92108Y-47619D01*
X91915Y-48595D01*
X91915Y-48750D01*
X91915Y-48905D01*
X92108Y-49881D01*
X92228Y-50170D01*
X92229Y-50171D01*
X92782Y-50997D01*
X93002Y-51218D01*
X93828Y-51771D01*
X93830Y-51771D01*
X94116Y-51890D01*
X94119Y-51891D01*
X95091Y-52083D01*
X95093Y-52084D01*
X95095Y-52084D01*
X95405Y-52085D01*
X95407Y-52084D01*
X96381Y-51892D01*
X96383Y-51890D01*
X96670Y-51772D01*
X96671Y-51771D01*
X96671Y-51770D01*
X97497Y-51218D01*
X97718Y-50998D01*
X98271Y-50172D01*
X98271Y-50170D01*
X98390Y-49884D01*
X98390Y-49883D01*
X98391Y-49881D01*
X98583Y-48908D01*
X98584Y-48907D01*
X98584Y-63899D01*
X98284Y-63698D01*
X98284Y-57157D01*
X98284Y-57155D01*
X98284Y-56845D01*
X98284Y-56843D01*
X98283Y-56841D01*
X98000Y-55410D01*
X97880Y-55121D01*
X97876Y-55117D01*
X97068Y-53904D01*
X97067Y-53903D01*
X97067Y-53902D01*
X96846Y-53681D01*
X95629Y-52869D01*
X95341Y-52749D01*
X93905Y-52465D01*
X93593Y-52466D01*
X93591Y-52466D01*
X92160Y-52750D01*
X91871Y-52870D01*
X91867Y-52873D01*
X90654Y-53682D01*
X90653Y-53682D01*
X90652Y-53683D01*
X90431Y-53904D01*
X89619Y-55121D01*
X89499Y-55409D01*
X89215Y-56845D01*
X89215Y-57000D01*
X89215Y-57155D01*
X89499Y-58591D01*
X89619Y-58879D01*
X90431Y-60096D01*
X90652Y-60317D01*
X90653Y-60317D01*
X90654Y-60318D01*
X91867Y-61126D01*
X91871Y-61130D01*
X92160Y-61250D01*
X93591Y-61533D01*
X93593Y-61534D01*
X93595Y-61534D01*
X93905Y-61535D01*
X93907Y-61534D01*
X95341Y-61251D01*
X95629Y-61131D01*
X96846Y-60319D01*
X96847Y-60317D01*
X97067Y-60098D01*
X97067Y-60096D01*
X97068Y-60096D01*
X97876Y-58882D01*
X97879Y-58879D01*
X97880Y-58879D01*
X98000Y-58590D01*
X98283Y-57158D01*
X98284Y-57157D01*
X98284Y-63698D01*
X97439Y-63133D01*
X97435Y-63129D01*
X97147Y-63010D01*
X95405Y-62665D01*
X95093Y-62666D01*
X95091Y-62666D01*
X93354Y-63010D01*
X93351Y-63011D01*
X93063Y-63131D01*
X91588Y-64118D01*
X91368Y-64339D01*
X91366Y-64342D01*
X90383Y-65810D01*
X90379Y-65815D01*
X90260Y-66103D01*
X90199Y-66410D01*
X90145Y-66142D01*
X90145Y-66140D01*
X90026Y-65853D01*
X90026Y-65852D01*
X90023Y-65849D01*
X89063Y-64409D01*
X89062Y-64408D01*
X89062Y-64407D01*
X88842Y-64188D01*
X88841Y-64187D01*
X88834Y-64182D01*
X88834Y-57156D01*
X88833Y-57000D01*
X88833Y-56844D01*
X88834Y-56844D01*
X88565Y-55486D01*
X88564Y-55483D01*
X88484Y-55290D01*
X88484Y-48906D01*
X88484Y-48594D01*
X88299Y-47657D01*
X88298Y-47655D01*
X88179Y-47368D01*
X88178Y-47367D01*
X88177Y-47366D01*
X87647Y-46573D01*
X87485Y-46410D01*
X87485Y-41656D01*
X87484Y-41500D01*
X87484Y-41344D01*
X87485Y-41344D01*
X87375Y-40790D01*
X87374Y-40788D01*
X87255Y-40501D01*
X87254Y-40500D01*
X87254Y-40499D01*
X86940Y-40030D01*
X86720Y-39810D01*
X86250Y-39495D01*
X86248Y-39494D01*
X85962Y-39376D01*
X85960Y-39375D01*
X85405Y-39265D01*
X85249Y-39265D01*
X85094Y-39265D01*
X84540Y-39375D01*
X84251Y-39495D01*
X84250Y-39495D01*
X84249Y-39496D01*
X83780Y-39810D01*
X83560Y-40030D01*
X83245Y-40500D01*
X83244Y-40501D01*
X83244Y-40502D01*
X83125Y-40790D01*
X83015Y-41345D01*
X83015Y-41500D01*
X83015Y-41655D01*
X83125Y-42210D01*
X83126Y-42212D01*
X83244Y-42498D01*
X83245Y-42500D01*
X83560Y-42970D01*
X83780Y-43190D01*
X84249Y-43504D01*
X84250Y-43504D01*
X84251Y-43505D01*
X84538Y-43624D01*
X84540Y-43625D01*
X85093Y-43734D01*
X85094Y-43735D01*
X85249Y-43734D01*
X85405Y-43735D01*
X85406Y-43734D01*
X85960Y-43625D01*
X85962Y-43624D01*
X86248Y-43506D01*
X86248Y-43505D01*
X86250Y-43505D01*
X86719Y-43190D01*
X86720Y-43190D01*
X86940Y-42970D01*
X87254Y-42501D01*
X87254Y-42499D01*
X87255Y-42499D01*
X87374Y-42212D01*
X87375Y-42210D01*
X87484Y-41656D01*
X87485Y-41656D01*
X87485Y-46410D01*
X87427Y-46352D01*
X86633Y-45821D01*
X86632Y-45820D01*
X86345Y-45702D01*
X86343Y-45701D01*
X85405Y-45515D01*
X85093Y-45516D01*
X85092Y-45516D01*
X84157Y-45701D01*
X83868Y-45821D01*
X83866Y-45822D01*
X83073Y-46353D01*
X82852Y-46573D01*
X82321Y-47366D01*
X82320Y-47368D01*
X82201Y-47657D01*
X82015Y-48595D01*
X82015Y-48750D01*
X82015Y-48905D01*
X82201Y-49843D01*
X82202Y-49845D01*
X82320Y-50132D01*
X82321Y-50133D01*
X82852Y-50927D01*
X83073Y-51147D01*
X83866Y-51677D01*
X83867Y-51678D01*
X83868Y-51679D01*
X84155Y-51798D01*
X84157Y-51799D01*
X85092Y-51983D01*
X85093Y-51984D01*
X85094Y-51984D01*
X85405Y-51985D01*
X85406Y-51984D01*
X86343Y-51799D01*
X86345Y-51798D01*
X86632Y-51680D01*
X86633Y-51679D01*
X86633Y-51678D01*
X87427Y-51148D01*
X87647Y-50927D01*
X88177Y-50133D01*
X88178Y-50133D01*
X88179Y-50132D01*
X88298Y-49845D01*
X88299Y-49843D01*
X88484Y-48906D01*
X88484Y-55290D01*
X88445Y-55197D01*
X88445Y-55195D01*
X87675Y-54045D01*
X87454Y-53825D01*
X86304Y-53055D01*
X86302Y-53054D01*
X86014Y-52934D01*
X84655Y-52665D01*
X84343Y-52666D01*
X84342Y-52666D01*
X82986Y-52935D01*
X82983Y-52935D01*
X82983Y-52936D01*
X82695Y-53055D01*
X81545Y-53825D01*
X81325Y-54046D01*
X80555Y-55196D01*
X80554Y-55197D01*
X80554Y-55198D01*
X80434Y-55486D01*
X80165Y-56845D01*
X80165Y-57000D01*
X80165Y-57155D01*
X80434Y-58514D01*
X80554Y-58802D01*
X80555Y-58804D01*
X81325Y-59954D01*
X81545Y-60175D01*
X82695Y-60945D01*
X82697Y-60945D01*
X82983Y-61064D01*
X82986Y-61065D01*
X84342Y-61333D01*
X84343Y-61334D01*
X84344Y-61334D01*
X84655Y-61335D01*
X86014Y-61066D01*
X86016Y-61064D01*
X86302Y-60946D01*
X86302Y-60945D01*
X86304Y-60945D01*
X87454Y-60175D01*
X87675Y-59955D01*
X88445Y-58805D01*
X88445Y-58803D01*
X88564Y-58517D01*
X88564Y-58516D01*
X88565Y-58514D01*
X88833Y-57156D01*
X88834Y-57156D01*
X88834Y-64182D01*
X87397Y-63223D01*
X87108Y-63104D01*
X87098Y-63104D01*
X85412Y-62767D01*
X85405Y-62764D01*
X85093Y-62764D01*
X83390Y-63105D01*
X83102Y-63224D01*
X83099Y-63226D01*
X81659Y-64187D01*
X81658Y-64187D01*
X81657Y-64188D01*
X81437Y-64409D01*
X80473Y-65853D01*
X80354Y-66142D01*
X80354Y-66151D01*
X80335Y-66243D01*
X80321Y-66173D01*
X80321Y-66171D01*
X80202Y-65885D01*
X80202Y-65883D01*
X80198Y-65879D01*
X79905Y-65439D01*
X79905Y-57157D01*
X79905Y-57155D01*
X79905Y-56845D01*
X79905Y-56843D01*
X79647Y-55555D01*
X79647Y-55553D01*
X79528Y-55266D01*
X79528Y-55265D01*
X79525Y-55262D01*
X78799Y-54173D01*
X78798Y-54172D01*
X78798Y-54171D01*
X78654Y-54027D01*
X78654Y-48906D01*
X78654Y-48594D01*
X78475Y-47688D01*
X78474Y-47685D01*
X78355Y-47399D01*
X78355Y-47397D01*
X77841Y-46629D01*
X77654Y-46442D01*
X77654Y-41656D01*
X77654Y-41344D01*
X77551Y-40821D01*
X77431Y-40532D01*
X77135Y-40087D01*
X77134Y-40086D01*
X76914Y-39866D01*
X76913Y-39865D01*
X76468Y-39568D01*
X76179Y-39449D01*
X75655Y-39345D01*
X75343Y-39346D01*
X75342Y-39346D01*
X74821Y-39449D01*
X74532Y-39569D01*
X74087Y-39865D01*
X74086Y-39866D01*
X73866Y-40086D01*
X73865Y-40087D01*
X73568Y-40532D01*
X73449Y-40821D01*
X73345Y-41345D01*
X73345Y-41500D01*
X73345Y-41655D01*
X73449Y-42179D01*
X73568Y-42468D01*
X73865Y-42913D01*
X73866Y-42914D01*
X74086Y-43134D01*
X74087Y-43135D01*
X74532Y-43431D01*
X74821Y-43551D01*
X75342Y-43653D01*
X75343Y-43654D01*
X75344Y-43654D01*
X75655Y-43655D01*
X75656Y-43654D01*
X76179Y-43551D01*
X76468Y-43432D01*
X76913Y-43135D01*
X76914Y-43134D01*
X77134Y-42914D01*
X77135Y-42913D01*
X77431Y-42468D01*
X77550Y-42179D01*
X77551Y-42179D01*
X77654Y-41656D01*
X77654Y-46442D01*
X77620Y-46409D01*
X76852Y-45895D01*
X76850Y-45894D01*
X76564Y-45776D01*
X76562Y-45775D01*
X75655Y-45595D01*
X75343Y-45596D01*
X75342Y-45596D01*
X74438Y-45775D01*
X74435Y-45775D01*
X74435Y-45776D01*
X74147Y-45895D01*
X73379Y-46409D01*
X73159Y-46630D01*
X72645Y-47398D01*
X72644Y-47399D01*
X72644Y-47400D01*
X72525Y-47688D01*
X72345Y-48595D01*
X72345Y-48750D01*
X72345Y-48905D01*
X72525Y-49812D01*
X72526Y-49814D01*
X72644Y-50100D01*
X72645Y-50102D01*
X73159Y-50870D01*
X73379Y-51091D01*
X74147Y-51605D01*
X74149Y-51605D01*
X74435Y-51724D01*
X74438Y-51725D01*
X75342Y-51903D01*
X75343Y-51904D01*
X75344Y-51904D01*
X75655Y-51905D01*
X75656Y-51904D01*
X76562Y-51725D01*
X76564Y-51724D01*
X76850Y-51606D01*
X76850Y-51605D01*
X76852Y-51605D01*
X77620Y-51091D01*
X77841Y-50871D01*
X78355Y-50103D01*
X78355Y-50101D01*
X78474Y-49815D01*
X78474Y-49814D01*
X78475Y-49812D01*
X78654Y-48906D01*
X78654Y-54027D01*
X78578Y-53952D01*
X78577Y-53951D01*
X77484Y-53221D01*
X77195Y-53102D01*
X77190Y-53102D01*
X75907Y-52846D01*
X75905Y-52845D01*
X75595Y-52845D01*
X75593Y-52845D01*
X74303Y-53103D01*
X74015Y-53222D01*
X74012Y-53224D01*
X72923Y-53951D01*
X72922Y-53951D01*
X72921Y-53952D01*
X72701Y-54173D01*
X71971Y-55266D01*
X71852Y-55555D01*
X71852Y-55559D01*
X71604Y-56798D01*
X71362Y-55571D01*
X71242Y-55282D01*
X71238Y-55278D01*
X70521Y-54201D01*
X70519Y-54199D01*
X70300Y-53980D01*
X70299Y-53978D01*
X69218Y-53257D01*
X69133Y-53222D01*
X69124Y-53218D01*
X69124Y-48906D01*
X69124Y-48594D01*
X68947Y-47700D01*
X68946Y-47699D01*
X68827Y-47411D01*
X68321Y-46651D01*
X68114Y-46444D01*
X68114Y-41656D01*
X68114Y-41344D01*
X68014Y-40836D01*
X67894Y-40547D01*
X67893Y-40546D01*
X67893Y-40545D01*
X67605Y-40115D01*
X67384Y-39894D01*
X66954Y-39606D01*
X66952Y-39605D01*
X66666Y-39487D01*
X66664Y-39486D01*
X66155Y-39385D01*
X65843Y-39386D01*
X65842Y-39386D01*
X65336Y-39486D01*
X65047Y-39606D01*
X65046Y-39606D01*
X65045Y-39607D01*
X64615Y-39895D01*
X64394Y-40116D01*
X64106Y-40546D01*
X64105Y-40547D01*
X64105Y-40548D01*
X63986Y-40836D01*
X63885Y-41345D01*
X63885Y-41500D01*
X63885Y-41655D01*
X63986Y-42164D01*
X63987Y-42166D01*
X64105Y-42452D01*
X64106Y-42454D01*
X64394Y-42884D01*
X64615Y-43105D01*
X65045Y-43393D01*
X65046Y-43393D01*
X65047Y-43394D01*
X65336Y-43514D01*
X65842Y-43613D01*
X65843Y-43614D01*
X65844Y-43614D01*
X66155Y-43615D01*
X66156Y-43614D01*
X66664Y-43514D01*
X66666Y-43513D01*
X66952Y-43395D01*
X66952Y-43394D01*
X66954Y-43394D01*
X67384Y-43106D01*
X67384Y-43105D01*
X67605Y-42885D01*
X67893Y-42455D01*
X67893Y-42453D01*
X67894Y-42453D01*
X68012Y-42166D01*
X68014Y-42164D01*
X68114Y-41656D01*
X68114Y-46444D01*
X68100Y-46430D01*
X68098Y-46429D01*
X67339Y-45922D01*
X67254Y-45887D01*
X67050Y-45802D01*
X66155Y-45625D01*
X65843Y-45626D01*
X65842Y-45626D01*
X64950Y-45803D01*
X64661Y-45923D01*
X63901Y-46429D01*
X63680Y-46650D01*
X63679Y-46651D01*
X63679Y-46652D01*
X63172Y-47411D01*
X63137Y-47496D01*
X63052Y-47700D01*
X62875Y-48595D01*
X62875Y-48750D01*
X62875Y-48905D01*
X63052Y-49800D01*
X63137Y-50004D01*
X63172Y-50089D01*
X63679Y-50848D01*
X63680Y-50850D01*
X63901Y-51071D01*
X64661Y-51577D01*
X64949Y-51696D01*
X64950Y-51697D01*
X65842Y-51873D01*
X65843Y-51874D01*
X65844Y-51874D01*
X66155Y-51875D01*
X66156Y-51874D01*
X67050Y-51698D01*
X67050Y-51697D01*
X67254Y-51613D01*
X67338Y-51578D01*
X67339Y-51578D01*
X68098Y-51071D01*
X68098Y-51070D01*
X68100Y-51070D01*
X68319Y-50850D01*
X68321Y-50849D01*
X68827Y-50089D01*
X68946Y-49801D01*
X68947Y-49800D01*
X69124Y-48906D01*
X69124Y-53218D01*
X68929Y-53137D01*
X67655Y-52885D01*
X67343Y-52886D01*
X67342Y-52886D01*
X66071Y-53138D01*
X65782Y-53258D01*
X65778Y-53261D01*
X64701Y-53979D01*
X64699Y-53981D01*
X64478Y-54201D01*
X63757Y-55282D01*
X63722Y-55367D01*
X63637Y-55571D01*
X63385Y-56845D01*
X63385Y-57000D01*
X63385Y-57155D01*
X63637Y-58429D01*
X63722Y-58633D01*
X63757Y-58718D01*
X64478Y-59799D01*
X64480Y-59800D01*
X64699Y-60019D01*
X64701Y-60021D01*
X65778Y-60738D01*
X65782Y-60742D01*
X66071Y-60862D01*
X67342Y-61113D01*
X67343Y-61114D01*
X67344Y-61114D01*
X67655Y-61115D01*
X68929Y-60863D01*
X68929Y-60862D01*
X69133Y-60778D01*
X69217Y-60743D01*
X69218Y-60743D01*
X70299Y-60022D01*
X70300Y-60020D01*
X70519Y-59801D01*
X70521Y-59799D01*
X71238Y-58721D01*
X71241Y-58718D01*
X71242Y-58718D01*
X71362Y-58429D01*
X71604Y-57201D01*
X71852Y-58440D01*
X71852Y-58445D01*
X71971Y-58734D01*
X72701Y-59827D01*
X72702Y-59828D01*
X72921Y-60048D01*
X72922Y-60048D01*
X72923Y-60049D01*
X74012Y-60775D01*
X74015Y-60778D01*
X74016Y-60778D01*
X74303Y-60897D01*
X74305Y-60897D01*
X75593Y-61155D01*
X75595Y-61155D01*
X75905Y-61155D01*
X75907Y-61154D01*
X75907Y-61153D01*
X77190Y-60898D01*
X77195Y-60898D01*
X77196Y-60897D01*
X77484Y-60779D01*
X78577Y-60049D01*
X78578Y-60048D01*
X78798Y-59829D01*
X78798Y-59827D01*
X78799Y-59827D01*
X79525Y-58737D01*
X79528Y-58735D01*
X79528Y-58734D01*
X79647Y-58447D01*
X79647Y-58445D01*
X79905Y-57157D01*
X79905Y-65439D01*
X79256Y-64466D01*
X79255Y-64465D01*
X79255Y-64464D01*
X79034Y-64243D01*
X77616Y-63297D01*
X77327Y-63178D01*
X77322Y-63178D01*
X75660Y-62846D01*
X75654Y-62844D01*
X75342Y-62845D01*
X73671Y-63179D01*
X73383Y-63298D01*
X73379Y-63302D01*
X71966Y-64244D01*
X71965Y-64244D01*
X71964Y-64245D01*
X71743Y-64466D01*
X70797Y-65884D01*
X70728Y-66051D01*
X70665Y-65899D01*
X70665Y-65898D01*
X70662Y-65895D01*
X69728Y-64494D01*
X69727Y-64493D01*
X69727Y-64492D01*
X69507Y-64273D01*
X69506Y-64272D01*
X68101Y-63334D01*
X67812Y-63215D01*
X67807Y-63215D01*
X66162Y-62887D01*
X66155Y-62884D01*
X65843Y-62885D01*
X64186Y-63216D01*
X63898Y-63335D01*
X63895Y-63337D01*
X62494Y-64272D01*
X62493Y-64272D01*
X62492Y-64273D01*
X62272Y-64494D01*
X61800Y-65200D01*
X61800Y-36300D01*
X99450Y-36300D01*
X99450Y-64813D01*
X99450Y-64813D01*
G37*
G54D19*
X99450Y-64813D02*
X99132Y-64338D01*
X98911Y-64118D01*
X98907Y-64116D01*
X98584Y-63899D01*
X98584Y-48907D01*
X98584Y-48905D01*
X98584Y-48595D01*
X98584Y-48593D01*
X98583Y-48591D01*
X98391Y-47619D01*
X98390Y-47616D01*
X98271Y-47330D01*
X98271Y-47328D01*
X97718Y-46502D01*
X97585Y-46369D01*
X97585Y-41657D01*
X97585Y-41655D01*
X97585Y-41345D01*
X97585Y-41343D01*
X97466Y-40751D01*
X97466Y-40750D01*
X97347Y-40463D01*
X97347Y-40462D01*
X97345Y-40460D01*
X97012Y-39960D01*
X97010Y-39958D01*
X96791Y-39739D01*
X96789Y-39738D01*
X96287Y-39402D01*
X95998Y-39283D01*
X95993Y-39283D01*
X95407Y-39166D01*
X95405Y-39165D01*
X95095Y-39165D01*
X95093Y-39165D01*
X94500Y-39284D01*
X94212Y-39403D01*
X94210Y-39404D01*
X93710Y-39738D01*
X93708Y-39740D01*
X93489Y-39959D01*
X93488Y-39960D01*
X93488Y-39961D01*
X93152Y-40463D01*
X93033Y-40752D01*
X93033Y-40756D01*
X92916Y-41342D01*
X92915Y-41345D01*
X92915Y-41500D01*
X92915Y-41655D01*
X92916Y-41657D01*
X93033Y-42243D01*
X93033Y-42248D01*
X93152Y-42537D01*
X93488Y-43039D01*
X93489Y-43041D01*
X93708Y-43260D01*
X93710Y-43262D01*
X94210Y-43595D01*
X94212Y-43597D01*
X94213Y-43597D01*
X94500Y-43716D01*
X94501Y-43716D01*
X95093Y-43835D01*
X95095Y-43835D01*
X95405Y-43835D01*
X95407Y-43834D01*
X95407Y-43833D01*
X95993Y-43717D01*
X95998Y-43717D01*
X95999Y-43716D01*
X96287Y-43598D01*
X96789Y-43262D01*
X96789Y-43261D01*
X96791Y-43261D01*
X97010Y-43042D01*
X97012Y-43040D01*
X97345Y-42539D01*
X97347Y-42538D01*
X97347Y-42537D01*
X97466Y-42250D01*
X97466Y-42249D01*
X97585Y-41657D01*
X97585Y-46369D01*
X97497Y-46282D01*
X96671Y-45729D01*
X96670Y-45728D01*
X96381Y-45608D01*
X95405Y-45415D01*
X95093Y-45416D01*
X95091Y-45416D01*
X94119Y-45609D01*
X94116Y-45609D01*
X94116Y-45610D01*
X93828Y-45729D01*
X93002Y-46282D01*
X92782Y-46503D01*
X92229Y-47328D01*
X92228Y-47330D01*
X92108Y-47619D01*
X91915Y-48595D01*
X91915Y-48750D01*
X91915Y-48905D01*
X92108Y-49881D01*
X92228Y-50170D01*
X92229Y-50171D01*
X92782Y-50997D01*
X93002Y-51218D01*
X93828Y-51771D01*
X93830Y-51771D01*
X94116Y-51890D01*
X94119Y-51891D01*
X95091Y-52083D01*
X95093Y-52084D01*
X95095Y-52084D01*
X95405Y-52085D01*
X95407Y-52084D01*
X96381Y-51892D01*
X96383Y-51890D01*
X96670Y-51772D01*
X96671Y-51771D01*
X96671Y-51770D01*
X97497Y-51218D01*
X97718Y-50998D01*
X98271Y-50172D01*
X98271Y-50170D01*
X98390Y-49884D01*
X98390Y-49883D01*
X98391Y-49881D01*
X98583Y-48908D01*
X98584Y-48907D01*
X98584Y-63899D01*
X98284Y-63698D01*
X98284Y-57157D01*
X98284Y-57155D01*
X98284Y-56845D01*
X98284Y-56843D01*
X98283Y-56841D01*
X98000Y-55410D01*
X97880Y-55121D01*
X97876Y-55117D01*
X97068Y-53904D01*
X97067Y-53903D01*
X97067Y-53902D01*
X96846Y-53681D01*
X95629Y-52869D01*
X95341Y-52749D01*
X93905Y-52465D01*
X93593Y-52466D01*
X93591Y-52466D01*
X92160Y-52750D01*
X91871Y-52870D01*
X91867Y-52873D01*
X90654Y-53682D01*
X90653Y-53682D01*
X90652Y-53683D01*
X90431Y-53904D01*
X89619Y-55121D01*
X89499Y-55409D01*
X89215Y-56845D01*
X89215Y-57000D01*
X89215Y-57155D01*
X89499Y-58591D01*
X89619Y-58879D01*
X90431Y-60096D01*
X90652Y-60317D01*
X90653Y-60317D01*
X90654Y-60318D01*
X91867Y-61126D01*
X91871Y-61130D01*
X92160Y-61250D01*
X93591Y-61533D01*
X93593Y-61534D01*
X93595Y-61534D01*
X93905Y-61535D01*
X93907Y-61534D01*
X95341Y-61251D01*
X95629Y-61131D01*
X96846Y-60319D01*
X96847Y-60317D01*
X97067Y-60098D01*
X97067Y-60096D01*
X97068Y-60096D01*
X97876Y-58882D01*
X97879Y-58879D01*
X97880Y-58879D01*
X98000Y-58590D01*
X98283Y-57158D01*
X98284Y-57157D01*
X98284Y-63698D01*
X97439Y-63133D01*
X97435Y-63129D01*
X97147Y-63010D01*
X95405Y-62665D01*
X95093Y-62666D01*
X95091Y-62666D01*
X93354Y-63010D01*
X93351Y-63011D01*
X93063Y-63131D01*
X91588Y-64118D01*
X91368Y-64339D01*
X91366Y-64342D01*
X90383Y-65810D01*
X90379Y-65815D01*
X90260Y-66103D01*
X90199Y-66410D01*
X90145Y-66142D01*
X90145Y-66140D01*
X90026Y-65853D01*
X90026Y-65852D01*
X90023Y-65849D01*
X89063Y-64409D01*
X89062Y-64408D01*
X89062Y-64407D01*
X88842Y-64188D01*
X88841Y-64187D01*
X88834Y-64182D01*
X88834Y-57156D01*
X88833Y-57000D01*
X88833Y-56844D01*
X88834Y-56844D01*
X88565Y-55486D01*
X88564Y-55483D01*
X88484Y-55290D01*
X88484Y-48906D01*
X88484Y-48594D01*
X88299Y-47657D01*
X88298Y-47655D01*
X88179Y-47368D01*
X88178Y-47367D01*
X88177Y-47366D01*
X87647Y-46573D01*
X87485Y-46410D01*
X87485Y-41656D01*
X87484Y-41500D01*
X87484Y-41344D01*
X87485Y-41344D01*
X87375Y-40790D01*
X87374Y-40788D01*
X87255Y-40501D01*
X87254Y-40500D01*
X87254Y-40499D01*
X86940Y-40030D01*
X86720Y-39810D01*
X86250Y-39495D01*
X86248Y-39494D01*
X85962Y-39376D01*
X85960Y-39375D01*
X85405Y-39265D01*
X85249Y-39265D01*
X85094Y-39265D01*
X84540Y-39375D01*
X84251Y-39495D01*
X84250Y-39495D01*
X84249Y-39496D01*
X83780Y-39810D01*
X83560Y-40030D01*
X83245Y-40500D01*
X83244Y-40501D01*
X83244Y-40502D01*
X83125Y-40790D01*
X83015Y-41345D01*
X83015Y-41500D01*
X83015Y-41655D01*
X83125Y-42210D01*
X83126Y-42212D01*
X83244Y-42498D01*
X83245Y-42500D01*
X83560Y-42970D01*
X83780Y-43190D01*
X84249Y-43504D01*
X84250Y-43504D01*
X84251Y-43505D01*
X84538Y-43624D01*
X84540Y-43625D01*
X85093Y-43734D01*
X85094Y-43735D01*
X85249Y-43734D01*
X85405Y-43735D01*
X85406Y-43734D01*
X85960Y-43625D01*
X85962Y-43624D01*
X86248Y-43506D01*
X86248Y-43505D01*
X86250Y-43505D01*
X86719Y-43190D01*
X86720Y-43190D01*
X86940Y-42970D01*
X87254Y-42501D01*
X87254Y-42499D01*
X87255Y-42499D01*
X87374Y-42212D01*
X87375Y-42210D01*
X87484Y-41656D01*
X87485Y-41656D01*
X87485Y-46410D01*
X87427Y-46352D01*
X86633Y-45821D01*
X86632Y-45820D01*
X86345Y-45702D01*
X86343Y-45701D01*
X85405Y-45515D01*
X85093Y-45516D01*
X85092Y-45516D01*
X84157Y-45701D01*
X83868Y-45821D01*
X83866Y-45822D01*
X83073Y-46353D01*
X82852Y-46573D01*
X82321Y-47366D01*
X82320Y-47368D01*
X82201Y-47657D01*
X82015Y-48595D01*
X82015Y-48750D01*
X82015Y-48905D01*
X82201Y-49843D01*
X82202Y-49845D01*
X82320Y-50132D01*
X82321Y-50133D01*
X82852Y-50927D01*
X83073Y-51147D01*
X83866Y-51677D01*
X83867Y-51678D01*
X83868Y-51679D01*
X84155Y-51798D01*
X84157Y-51799D01*
X85092Y-51983D01*
X85093Y-51984D01*
X85094Y-51984D01*
X85405Y-51985D01*
X85406Y-51984D01*
X86343Y-51799D01*
X86345Y-51798D01*
X86632Y-51680D01*
X86633Y-51679D01*
X86633Y-51678D01*
X87427Y-51148D01*
X87647Y-50927D01*
X88177Y-50133D01*
X88178Y-50133D01*
X88179Y-50132D01*
X88298Y-49845D01*
X88299Y-49843D01*
X88484Y-48906D01*
X88484Y-55290D01*
X88445Y-55197D01*
X88445Y-55195D01*
X87675Y-54045D01*
X87454Y-53825D01*
X86304Y-53055D01*
X86302Y-53054D01*
X86014Y-52934D01*
X84655Y-52665D01*
X84343Y-52666D01*
X84342Y-52666D01*
X82986Y-52935D01*
X82983Y-52935D01*
X82983Y-52936D01*
X82695Y-53055D01*
X81545Y-53825D01*
X81325Y-54046D01*
X80555Y-55196D01*
X80554Y-55197D01*
X80554Y-55198D01*
X80434Y-55486D01*
X80165Y-56845D01*
X80165Y-57000D01*
X80165Y-57155D01*
X80434Y-58514D01*
X80554Y-58802D01*
X80555Y-58804D01*
X81325Y-59954D01*
X81545Y-60175D01*
X82695Y-60945D01*
X82697Y-60945D01*
X82983Y-61064D01*
X82986Y-61065D01*
X84342Y-61333D01*
X84343Y-61334D01*
X84344Y-61334D01*
X84655Y-61335D01*
X86014Y-61066D01*
X86016Y-61064D01*
X86302Y-60946D01*
X86302Y-60945D01*
X86304Y-60945D01*
X87454Y-60175D01*
X87675Y-59955D01*
X88445Y-58805D01*
X88445Y-58803D01*
X88564Y-58517D01*
X88564Y-58516D01*
X88565Y-58514D01*
X88833Y-57156D01*
X88834Y-57156D01*
X88834Y-64182D01*
X87397Y-63223D01*
X87108Y-63104D01*
X87098Y-63104D01*
X85412Y-62767D01*
X85405Y-62764D01*
X85093Y-62764D01*
X83390Y-63105D01*
X83102Y-63224D01*
X83099Y-63226D01*
X81659Y-64187D01*
X81658Y-64187D01*
X81657Y-64188D01*
X81437Y-64409D01*
X80473Y-65853D01*
X80354Y-66142D01*
X80354Y-66151D01*
X80335Y-66243D01*
X80321Y-66173D01*
X80321Y-66171D01*
X80202Y-65885D01*
X80202Y-65883D01*
X80198Y-65879D01*
X79905Y-65439D01*
X79905Y-57157D01*
X79905Y-57155D01*
X79905Y-56845D01*
X79905Y-56843D01*
X79647Y-55555D01*
X79647Y-55553D01*
X79528Y-55266D01*
X79528Y-55265D01*
X79525Y-55262D01*
X78799Y-54173D01*
X78798Y-54172D01*
X78798Y-54171D01*
X78654Y-54027D01*
X78654Y-48906D01*
X78654Y-48594D01*
X78475Y-47688D01*
X78474Y-47685D01*
X78355Y-47399D01*
X78355Y-47397D01*
X77841Y-46629D01*
X77654Y-46442D01*
X77654Y-41656D01*
X77654Y-41344D01*
X77551Y-40821D01*
X77431Y-40532D01*
X77135Y-40087D01*
X77134Y-40086D01*
X76914Y-39866D01*
X76913Y-39865D01*
X76468Y-39568D01*
X76179Y-39449D01*
X75655Y-39345D01*
X75343Y-39346D01*
X75342Y-39346D01*
X74821Y-39449D01*
X74532Y-39569D01*
X74087Y-39865D01*
X74086Y-39866D01*
X73866Y-40086D01*
X73865Y-40087D01*
X73568Y-40532D01*
X73449Y-40821D01*
X73345Y-41345D01*
X73345Y-41500D01*
X73345Y-41655D01*
X73449Y-42179D01*
X73568Y-42468D01*
X73865Y-42913D01*
X73866Y-42914D01*
X74086Y-43134D01*
X74087Y-43135D01*
X74532Y-43431D01*
X74821Y-43551D01*
X75342Y-43653D01*
X75343Y-43654D01*
X75344Y-43654D01*
X75655Y-43655D01*
X75656Y-43654D01*
X76179Y-43551D01*
X76468Y-43432D01*
X76913Y-43135D01*
X76914Y-43134D01*
X77134Y-42914D01*
X77135Y-42913D01*
X77431Y-42468D01*
X77550Y-42179D01*
X77551Y-42179D01*
X77654Y-41656D01*
X77654Y-46442D01*
X77620Y-46409D01*
X76852Y-45895D01*
X76850Y-45894D01*
X76564Y-45776D01*
X76562Y-45775D01*
X75655Y-45595D01*
X75343Y-45596D01*
X75342Y-45596D01*
X74438Y-45775D01*
X74435Y-45775D01*
X74435Y-45776D01*
X74147Y-45895D01*
X73379Y-46409D01*
X73159Y-46630D01*
X72645Y-47398D01*
X72644Y-47399D01*
X72644Y-47400D01*
X72525Y-47688D01*
X72345Y-48595D01*
X72345Y-48750D01*
X72345Y-48905D01*
X72525Y-49812D01*
X72526Y-49814D01*
X72644Y-50100D01*
X72645Y-50102D01*
X73159Y-50870D01*
X73379Y-51091D01*
X74147Y-51605D01*
X74149Y-51605D01*
X74435Y-51724D01*
X74438Y-51725D01*
X75342Y-51903D01*
X75343Y-51904D01*
X75344Y-51904D01*
X75655Y-51905D01*
X75656Y-51904D01*
X76562Y-51725D01*
X76564Y-51724D01*
X76850Y-51606D01*
X76850Y-51605D01*
X76852Y-51605D01*
X77620Y-51091D01*
X77841Y-50871D01*
X78355Y-50103D01*
X78355Y-50101D01*
X78474Y-49815D01*
X78474Y-49814D01*
X78475Y-49812D01*
X78654Y-48906D01*
X78654Y-54027D01*
X78578Y-53952D01*
X78577Y-53951D01*
X77484Y-53221D01*
X77195Y-53102D01*
X77190Y-53102D01*
X75907Y-52846D01*
X75905Y-52845D01*
X75595Y-52845D01*
X75593Y-52845D01*
X74303Y-53103D01*
X74015Y-53222D01*
X74012Y-53224D01*
X72923Y-53951D01*
X72922Y-53951D01*
X72921Y-53952D01*
X72701Y-54173D01*
X71971Y-55266D01*
X71852Y-55555D01*
X71852Y-55559D01*
X71604Y-56798D01*
X71362Y-55571D01*
X71242Y-55282D01*
X71238Y-55278D01*
X70521Y-54201D01*
X70519Y-54199D01*
X70300Y-53980D01*
X70299Y-53978D01*
X69218Y-53257D01*
X69133Y-53222D01*
X69124Y-53218D01*
X69124Y-48906D01*
X69124Y-48594D01*
X68947Y-47700D01*
X68946Y-47699D01*
X68827Y-47411D01*
X68321Y-46651D01*
X68114Y-46444D01*
X68114Y-41656D01*
X68114Y-41344D01*
X68014Y-40836D01*
X67894Y-40547D01*
X67893Y-40546D01*
X67893Y-40545D01*
X67605Y-40115D01*
X67384Y-39894D01*
X66954Y-39606D01*
X66952Y-39605D01*
X66666Y-39487D01*
X66664Y-39486D01*
X66155Y-39385D01*
X65843Y-39386D01*
X65842Y-39386D01*
X65336Y-39486D01*
X65047Y-39606D01*
X65046Y-39606D01*
X65045Y-39607D01*
X64615Y-39895D01*
X64394Y-40116D01*
X64106Y-40546D01*
X64105Y-40547D01*
X64105Y-40548D01*
X63986Y-40836D01*
X63885Y-41345D01*
X63885Y-41500D01*
X63885Y-41655D01*
X63986Y-42164D01*
X63987Y-42166D01*
X64105Y-42452D01*
X64106Y-42454D01*
X64394Y-42884D01*
X64615Y-43105D01*
X65045Y-43393D01*
X65046Y-43393D01*
X65047Y-43394D01*
X65336Y-43514D01*
X65842Y-43613D01*
X65843Y-43614D01*
X65844Y-43614D01*
X66155Y-43615D01*
X66156Y-43614D01*
X66664Y-43514D01*
X66666Y-43513D01*
X66952Y-43395D01*
X66952Y-43394D01*
X66954Y-43394D01*
X67384Y-43106D01*
X67384Y-43105D01*
X67605Y-42885D01*
X67893Y-42455D01*
X67893Y-42453D01*
X67894Y-42453D01*
X68012Y-42166D01*
X68014Y-42164D01*
X68114Y-41656D01*
X68114Y-46444D01*
X68100Y-46430D01*
X68098Y-46429D01*
X67339Y-45922D01*
X67254Y-45887D01*
X67050Y-45802D01*
X66155Y-45625D01*
X65843Y-45626D01*
X65842Y-45626D01*
X64950Y-45803D01*
X64661Y-45923D01*
X63901Y-46429D01*
X63680Y-46650D01*
X63679Y-46651D01*
X63679Y-46652D01*
X63172Y-47411D01*
X63137Y-47496D01*
X63052Y-47700D01*
X62875Y-48595D01*
X62875Y-48750D01*
X62875Y-48905D01*
X63052Y-49800D01*
X63137Y-50004D01*
X63172Y-50089D01*
X63679Y-50848D01*
X63680Y-50850D01*
X63901Y-51071D01*
X64661Y-51577D01*
X64949Y-51696D01*
X64950Y-51697D01*
X65842Y-51873D01*
X65843Y-51874D01*
X65844Y-51874D01*
X66155Y-51875D01*
X66156Y-51874D01*
X67050Y-51698D01*
X67050Y-51697D01*
X67254Y-51613D01*
X67338Y-51578D01*
X67339Y-51578D01*
X68098Y-51071D01*
X68098Y-51070D01*
X68100Y-51070D01*
X68319Y-50850D01*
X68321Y-50849D01*
X68827Y-50089D01*
X68946Y-49801D01*
X68947Y-49800D01*
X69124Y-48906D01*
X69124Y-53218D01*
X68929Y-53137D01*
X67655Y-52885D01*
X67343Y-52886D01*
X67342Y-52886D01*
X66071Y-53138D01*
X65782Y-53258D01*
X65778Y-53261D01*
X64701Y-53979D01*
X64699Y-53981D01*
X64478Y-54201D01*
X63757Y-55282D01*
X63722Y-55367D01*
X63637Y-55571D01*
X63385Y-56845D01*
X63385Y-57000D01*
X63385Y-57155D01*
X63637Y-58429D01*
X63722Y-58633D01*
X63757Y-58718D01*
X64478Y-59799D01*
X64480Y-59800D01*
X64699Y-60019D01*
X64701Y-60021D01*
X65778Y-60738D01*
X65782Y-60742D01*
X66071Y-60862D01*
X67342Y-61113D01*
X67343Y-61114D01*
X67344Y-61114D01*
X67655Y-61115D01*
X68929Y-60863D01*
X68929Y-60862D01*
X69133Y-60778D01*
X69217Y-60743D01*
X69218Y-60743D01*
X70299Y-60022D01*
X70300Y-60020D01*
X70519Y-59801D01*
X70521Y-59799D01*
X71238Y-58721D01*
X71241Y-58718D01*
X71242Y-58718D01*
X71362Y-58429D01*
X71604Y-57201D01*
X71852Y-58440D01*
X71852Y-58445D01*
X71971Y-58734D01*
X72701Y-59827D01*
X72702Y-59828D01*
X72921Y-60048D01*
X72922Y-60048D01*
X72923Y-60049D01*
X74012Y-60775D01*
X74015Y-60778D01*
X74016Y-60778D01*
X74303Y-60897D01*
X74305Y-60897D01*
X75593Y-61155D01*
X75595Y-61155D01*
X75905Y-61155D01*
X75907Y-61154D01*
X75907Y-61153D01*
X77190Y-60898D01*
X77195Y-60898D01*
X77196Y-60897D01*
X77484Y-60779D01*
X78577Y-60049D01*
X78578Y-60048D01*
X78798Y-59829D01*
X78798Y-59827D01*
X78799Y-59827D01*
X79525Y-58737D01*
X79528Y-58735D01*
X79528Y-58734D01*
X79647Y-58447D01*
X79647Y-58445D01*
X79905Y-57157D01*
X79905Y-65439D01*
X79256Y-64466D01*
X79255Y-64465D01*
X79255Y-64464D01*
X79034Y-64243D01*
X77616Y-63297D01*
X77327Y-63178D01*
X77322Y-63178D01*
X75660Y-62846D01*
X75654Y-62844D01*
X75342Y-62845D01*
X73671Y-63179D01*
X73383Y-63298D01*
X73379Y-63302D01*
X71966Y-64244D01*
X71965Y-64244D01*
X71964Y-64245D01*
X71743Y-64466D01*
X70797Y-65884D01*
X70728Y-66051D01*
X70665Y-65899D01*
X70665Y-65898D01*
X70662Y-65895D01*
X69728Y-64494D01*
X69727Y-64493D01*
X69727Y-64492D01*
X69507Y-64273D01*
X69506Y-64272D01*
X68101Y-63334D01*
X67812Y-63215D01*
X67807Y-63215D01*
X66162Y-62887D01*
X66155Y-62884D01*
X65843Y-62885D01*
X64186Y-63216D01*
X63898Y-63335D01*
X63895Y-63337D01*
X62494Y-64272D01*
X62493Y-64272D01*
X62492Y-64273D01*
X62272Y-64494D01*
X61800Y-65200D01*
X61800Y-36300D01*
X99450Y-36300D01*
X99450Y-64813D01*
G54D10*
G36*
X99450Y-74178D02*
X61800Y-74178D01*
X61800Y-70799D01*
X62272Y-71506D01*
X62273Y-71507D01*
X62492Y-71727D01*
X62493Y-71727D01*
X62494Y-71728D01*
X63895Y-72662D01*
X63898Y-72665D01*
X63899Y-72665D01*
X64186Y-72784D01*
X64188Y-72784D01*
X65843Y-73115D01*
X65845Y-73115D01*
X66155Y-73116D01*
X66157Y-73114D01*
X66162Y-73112D01*
X67807Y-72785D01*
X67812Y-72785D01*
X67813Y-72784D01*
X68101Y-72666D01*
X69506Y-71728D01*
X69507Y-71727D01*
X69727Y-71508D01*
X69727Y-71506D01*
X69728Y-71506D01*
X70662Y-70104D01*
X70665Y-70102D01*
X70665Y-70101D01*
X70728Y-69948D01*
X70797Y-70116D01*
X71743Y-71534D01*
X71964Y-71755D01*
X71965Y-71755D01*
X71966Y-71756D01*
X73379Y-72698D01*
X73383Y-72702D01*
X73385Y-72702D01*
X73671Y-72821D01*
X73673Y-72821D01*
X75342Y-73155D01*
X75345Y-73155D01*
X75654Y-73156D01*
X75657Y-73154D01*
X75660Y-73153D01*
X77322Y-72822D01*
X77327Y-72822D01*
X77328Y-72821D01*
X77616Y-72703D01*
X79034Y-71757D01*
X79035Y-71755D01*
X79255Y-71536D01*
X79255Y-71534D01*
X79256Y-71534D01*
X80198Y-70121D01*
X80202Y-70117D01*
X80202Y-70115D01*
X80321Y-69829D01*
X80321Y-69827D01*
X80335Y-69756D01*
X80354Y-69848D01*
X80354Y-69858D01*
X80473Y-70147D01*
X81437Y-71591D01*
X81438Y-71592D01*
X81657Y-71812D01*
X81658Y-71812D01*
X81659Y-71813D01*
X83099Y-72773D01*
X83102Y-72776D01*
X83103Y-72776D01*
X83390Y-72895D01*
X83392Y-72895D01*
X85093Y-73236D01*
X85405Y-73236D01*
X85407Y-73234D01*
X85412Y-73232D01*
X87098Y-72896D01*
X87108Y-72896D01*
X87397Y-72777D01*
X88841Y-71813D01*
X88842Y-71812D01*
X89062Y-71593D01*
X89062Y-71591D01*
X89063Y-71591D01*
X90023Y-70150D01*
X90026Y-70148D01*
X90026Y-70147D01*
X90145Y-69860D01*
X90145Y-69858D01*
X90199Y-69589D01*
X90260Y-69897D01*
X90379Y-70185D01*
X90383Y-70189D01*
X91366Y-71657D01*
X91368Y-71661D01*
X91588Y-71882D01*
X93063Y-72869D01*
X93065Y-72869D01*
X93351Y-72989D01*
X93354Y-72989D01*
X95091Y-73333D01*
X95093Y-73334D01*
X95095Y-73334D01*
X95405Y-73335D01*
X97147Y-72990D01*
X97435Y-72871D01*
X97436Y-72869D01*
X97439Y-72866D01*
X98907Y-71883D01*
X98911Y-71882D01*
X98911Y-71881D01*
X99132Y-71662D01*
X99450Y-71186D01*
X99450Y-74178D01*
X99450Y-74178D01*
G37*
G54D19*
X99450Y-74178D02*
X61800Y-74178D01*
X61800Y-70799D01*
X62272Y-71506D01*
X62273Y-71507D01*
X62492Y-71727D01*
X62493Y-71727D01*
X62494Y-71728D01*
X63895Y-72662D01*
X63898Y-72665D01*
X63899Y-72665D01*
X64186Y-72784D01*
X64188Y-72784D01*
X65843Y-73115D01*
X65845Y-73115D01*
X66155Y-73116D01*
X66157Y-73114D01*
X66162Y-73112D01*
X67807Y-72785D01*
X67812Y-72785D01*
X67813Y-72784D01*
X68101Y-72666D01*
X69506Y-71728D01*
X69507Y-71727D01*
X69727Y-71508D01*
X69727Y-71506D01*
X69728Y-71506D01*
X70662Y-70104D01*
X70665Y-70102D01*
X70665Y-70101D01*
X70728Y-69948D01*
X70797Y-70116D01*
X71743Y-71534D01*
X71964Y-71755D01*
X71965Y-71755D01*
X71966Y-71756D01*
X73379Y-72698D01*
X73383Y-72702D01*
X73385Y-72702D01*
X73671Y-72821D01*
X73673Y-72821D01*
X75342Y-73155D01*
X75345Y-73155D01*
X75654Y-73156D01*
X75657Y-73154D01*
X75660Y-73153D01*
X77322Y-72822D01*
X77327Y-72822D01*
X77328Y-72821D01*
X77616Y-72703D01*
X79034Y-71757D01*
X79035Y-71755D01*
X79255Y-71536D01*
X79255Y-71534D01*
X79256Y-71534D01*
X80198Y-70121D01*
X80202Y-70117D01*
X80202Y-70115D01*
X80321Y-69829D01*
X80321Y-69827D01*
X80335Y-69756D01*
X80354Y-69848D01*
X80354Y-69858D01*
X80473Y-70147D01*
X81437Y-71591D01*
X81438Y-71592D01*
X81657Y-71812D01*
X81658Y-71812D01*
X81659Y-71813D01*
X83099Y-72773D01*
X83102Y-72776D01*
X83103Y-72776D01*
X83390Y-72895D01*
X83392Y-72895D01*
X85093Y-73236D01*
X85405Y-73236D01*
X85407Y-73234D01*
X85412Y-73232D01*
X87098Y-72896D01*
X87108Y-72896D01*
X87397Y-72777D01*
X88841Y-71813D01*
X88842Y-71812D01*
X89062Y-71593D01*
X89062Y-71591D01*
X89063Y-71591D01*
X90023Y-70150D01*
X90026Y-70148D01*
X90026Y-70147D01*
X90145Y-69860D01*
X90145Y-69858D01*
X90199Y-69589D01*
X90260Y-69897D01*
X90379Y-70185D01*
X90383Y-70189D01*
X91366Y-71657D01*
X91368Y-71661D01*
X91588Y-71882D01*
X93063Y-72869D01*
X93065Y-72869D01*
X93351Y-72989D01*
X93354Y-72989D01*
X95091Y-73333D01*
X95093Y-73334D01*
X95095Y-73334D01*
X95405Y-73335D01*
X97147Y-72990D01*
X97435Y-72871D01*
X97436Y-72869D01*
X97439Y-72866D01*
X98907Y-71883D01*
X98911Y-71882D01*
X98911Y-71881D01*
X99132Y-71662D01*
X99450Y-71186D01*
X99450Y-74178D01*
M02*
