M48
;DRILL file {Pcbnew (2011-nov-30)-testing} date Sat 18 Aug 2012 05:52:13 PM EDT
;FORMAT={-:-/ absolute / inch / decimal}
FMAT,2
INCH,TZ
T1C0.025
T2C0.125
%
G90
G05
M72
T1
X6.25Y5.975
X7.675Y7.4
X7.875Y3.9
X9.875Y6.025
T2
X6.6Y4.15
X6.6Y4.875
X6.6Y6.8
X6.75Y5.7
X7.55Y4.15
X7.55Y4.875
X7.55Y6.8
X7.575Y5.7
X8.45Y5.7
X8.525Y4.15
X8.525Y4.875
X8.525Y6.8
X9.375Y5.7
X9.525Y4.15
X9.525Y4.875
X9.525Y6.8
T0
M30
