G04 (created by PCBNEW-RS274X (2011-nov-30)-testing) date Mon 20 Aug 2012 01:42:57 PM EDT*
%MOIN*%
G04 Gerber Fmt 3.4, Leading zero omitted, Abs format*
%FSLAX34Y34*%
G01*
G70*
G90*
G04 APERTURE LIST*
%ADD10C,0.006*%
%ADD11C,0.015*%
%ADD12C,0.05*%
%ADD13C,0.3*%
%ADD14C,0.4*%
%ADD15C,0.2*%
%ADD16C,0.1*%
%ADD17C,0.14*%
%ADD18R,0.01X0.01*%
%ADD19C,0.17*%
%ADD20C,0.035*%
%ADD21C,0.01*%
G04 APERTURE END LIST*
G54D10*
G54D11*
X24Y-53D02*
X24Y39317D01*
X39394Y-53D02*
X24Y-53D01*
X39394Y39317D02*
X39394Y-53D01*
X24Y39317D02*
X39394Y39317D01*
G54D12*
X8330Y17750D02*
G75*
G03X8330Y17750I-3330J0D01*
G74*
G01*
G54D13*
X6500Y17750D02*
G75*
G03X6500Y17750I-1500J0D01*
G74*
G01*
G54D12*
X9330Y6750D02*
G75*
G03X9330Y6750I-4330J0D01*
G74*
G01*
G54D14*
X7000Y6750D02*
G75*
G03X7000Y6750I-2000J0D01*
G74*
G01*
G54D12*
X38800Y6750D02*
G75*
G03X38800Y6750I-4550J0D01*
G74*
G01*
G54D14*
X36250Y6750D02*
G75*
G03X36250Y6750I-2000J0D01*
G74*
G01*
G54D12*
X26700Y26000D02*
G75*
G03X26700Y26000I-2450J0D01*
G74*
G01*
G54D15*
X25250Y26000D02*
G75*
G03X25250Y26000I-1000J0D01*
G74*
G01*
G54D12*
X36800Y26000D02*
G75*
G03X36800Y26000I-2550J0D01*
G74*
G01*
G54D15*
X35250Y26000D02*
G75*
G03X35250Y26000I-1000J0D01*
G74*
G01*
G54D12*
X17870Y17750D02*
G75*
G03X17870Y17750I-3370J0D01*
G74*
G01*
G54D13*
X16000Y17750D02*
G75*
G03X16000Y17750I-1500J0D01*
G74*
G01*
G54D12*
X27800Y17750D02*
G75*
G03X27800Y17750I-3550J0D01*
G74*
G01*
G54D13*
X25750Y17750D02*
G75*
G03X25750Y17750I-1500J0D01*
G74*
G01*
G54D12*
X6330Y33250D02*
G75*
G03X6330Y33250I-1330J0D01*
G74*
G01*
G54D16*
X5500Y33250D02*
G75*
G03X5500Y33250I-500J0D01*
G74*
G01*
G54D12*
X25700Y33250D02*
G75*
G03X25700Y33250I-1450J0D01*
G74*
G01*
G54D16*
X24750Y33250D02*
G75*
G03X24750Y33250I-500J0D01*
G74*
G01*
G54D12*
X15870Y33250D02*
G75*
G03X15870Y33250I-1370J0D01*
G74*
G01*
G54D16*
X15000Y33250D02*
G75*
G03X15000Y33250I-500J0D01*
G74*
G01*
G54D12*
X35800Y33250D02*
G75*
G03X35800Y33250I-1550J0D01*
G74*
G01*
G54D16*
X34750Y33250D02*
G75*
G03X34750Y33250I-500J0D01*
G74*
G01*
G54D12*
X18870Y6750D02*
G75*
G03X18870Y6750I-4370J0D01*
G74*
G01*
G54D14*
X16500Y6750D02*
G75*
G03X16500Y6750I-2000J0D01*
G74*
G01*
G54D12*
X28700Y6750D02*
G75*
G03X28700Y6750I-4450J0D01*
G74*
G01*
G54D14*
X26250Y6750D02*
G75*
G03X26250Y6750I-2000J0D01*
G74*
G01*
G54D12*
X38000Y17750D02*
G75*
G03X38000Y17750I-3750J0D01*
G74*
G01*
G54D13*
X35750Y17750D02*
G75*
G03X35750Y17750I-1500J0D01*
G74*
G01*
G54D12*
X7340Y26000D02*
G75*
G03X7340Y26000I-2340J0D01*
G74*
G01*
G54D15*
X6000Y26000D02*
G75*
G03X6000Y26000I-1000J0D01*
G74*
G01*
G54D12*
X16870Y26000D02*
G75*
G03X16870Y26000I-2370J0D01*
G74*
G01*
G54D15*
X15500Y26000D02*
G75*
G03X15500Y26000I-1000J0D01*
G74*
G01*
G54D17*
X5000Y17750D03*
G54D18*
X1600Y17750D03*
G54D17*
X5000Y6750D03*
G54D18*
X5000Y11150D03*
G54D17*
X34250Y6750D03*
G54D18*
X34250Y11350D03*
G54D17*
X24250Y26000D03*
G54D18*
X24250Y28500D03*
G54D19*
X1500Y1250D03*
X38000Y1250D03*
X38000Y37750D03*
X1500Y37750D03*
G54D17*
X34250Y26000D03*
G54D18*
X34250Y28600D03*
G54D17*
X14500Y17750D03*
G54D18*
X14500Y21200D03*
G54D17*
X24250Y17750D03*
G54D18*
X24250Y21350D03*
G54D17*
X5000Y33250D03*
G54D18*
X5000Y34580D03*
G54D17*
X24250Y33250D03*
G54D18*
X24250Y34800D03*
G54D17*
X14500Y33250D03*
G54D18*
X14500Y34700D03*
G54D17*
X34250Y33250D03*
G54D18*
X34250Y34850D03*
G54D17*
X14500Y6750D03*
G54D18*
X14505Y11195D03*
G54D17*
X24250Y6750D03*
G54D18*
X24250Y11250D03*
G54D17*
X34250Y17750D03*
G54D18*
X30450Y17750D03*
G54D17*
X5000Y26000D03*
G54D18*
X5000Y28400D03*
G54D17*
X14500Y26000D03*
G54D18*
X14500Y28400D03*
G54D20*
X19500Y13250D03*
X37750Y14500D03*
X17750Y35750D03*
X1500Y15000D03*
G54D12*
X1600Y17750D02*
X1500Y17750D01*
X1500Y17750D02*
X1500Y21250D01*
X5000Y11150D02*
X5000Y12250D01*
X5000Y34580D02*
X5000Y35000D01*
X5000Y35000D02*
X5000Y36000D01*
X34250Y11350D02*
X34250Y12500D01*
X34250Y12500D02*
X34500Y12750D01*
X24250Y28500D02*
X24250Y29500D01*
X24250Y29500D02*
X24000Y29750D01*
X34250Y28600D02*
X34250Y29750D01*
X14500Y21200D02*
X14500Y22250D01*
X24250Y21350D02*
X24250Y22500D01*
X30450Y17750D02*
X29000Y17750D01*
X24250Y34800D02*
X24250Y35750D01*
X14500Y34700D02*
X14500Y35750D01*
X34250Y34850D02*
X34250Y36500D01*
X14505Y11195D02*
X14505Y12745D01*
X14505Y12745D02*
X14500Y12750D01*
X24250Y11250D02*
X24250Y12500D01*
X5000Y28400D02*
X5000Y30000D01*
X14500Y28400D02*
X14500Y29750D01*
G54D10*
G36*
X38450Y9937D02*
X38132Y10412D01*
X37911Y10632D01*
X37907Y10634D01*
X36439Y11617D01*
X36435Y11621D01*
X36147Y11740D01*
X34405Y12085D01*
X34093Y12084D01*
X34091Y12084D01*
X32354Y11740D01*
X32351Y11739D01*
X32063Y11619D01*
X30588Y10632D01*
X30368Y10411D01*
X30366Y10408D01*
X29383Y8940D01*
X29379Y8935D01*
X29260Y8647D01*
X29199Y8340D01*
X29145Y8608D01*
X29145Y8610D01*
X29026Y8897D01*
X29026Y8898D01*
X29023Y8901D01*
X28584Y9560D01*
X28584Y17594D01*
X28583Y17750D01*
X28583Y17906D01*
X28584Y17906D01*
X28315Y19264D01*
X28314Y19267D01*
X28195Y19553D01*
X28195Y19555D01*
X27484Y20617D01*
X27484Y25844D01*
X27484Y26156D01*
X27299Y27093D01*
X27298Y27095D01*
X27179Y27382D01*
X27178Y27383D01*
X27177Y27384D01*
X26647Y28177D01*
X26485Y28340D01*
X26485Y33094D01*
X26484Y33250D01*
X26484Y33406D01*
X26485Y33406D01*
X26375Y33960D01*
X26374Y33962D01*
X26255Y34249D01*
X26254Y34250D01*
X26254Y34251D01*
X25940Y34720D01*
X25720Y34940D01*
X25250Y35255D01*
X25248Y35256D01*
X24962Y35374D01*
X24960Y35375D01*
X24405Y35485D01*
X24249Y35485D01*
X24094Y35485D01*
X23540Y35375D01*
X23251Y35255D01*
X23250Y35255D01*
X23249Y35254D01*
X22780Y34940D01*
X22560Y34720D01*
X22245Y34250D01*
X22244Y34249D01*
X22244Y34248D01*
X22125Y33960D01*
X22015Y33405D01*
X22015Y33250D01*
X22015Y33095D01*
X22125Y32540D01*
X22126Y32538D01*
X22244Y32252D01*
X22245Y32250D01*
X22560Y31780D01*
X22780Y31560D01*
X23249Y31246D01*
X23250Y31246D01*
X23251Y31245D01*
X23538Y31126D01*
X23540Y31125D01*
X24093Y31016D01*
X24094Y31015D01*
X24249Y31016D01*
X24405Y31015D01*
X24406Y31016D01*
X24960Y31125D01*
X24962Y31126D01*
X25248Y31244D01*
X25248Y31245D01*
X25250Y31245D01*
X25719Y31560D01*
X25720Y31560D01*
X25940Y31780D01*
X26254Y32249D01*
X26254Y32251D01*
X26255Y32251D01*
X26374Y32538D01*
X26375Y32540D01*
X26484Y33094D01*
X26485Y33094D01*
X26485Y28340D01*
X26427Y28398D01*
X25633Y28929D01*
X25632Y28930D01*
X25345Y29048D01*
X25343Y29049D01*
X24405Y29235D01*
X24093Y29234D01*
X24092Y29234D01*
X23157Y29049D01*
X22868Y28929D01*
X22866Y28928D01*
X22073Y28397D01*
X21852Y28177D01*
X21321Y27384D01*
X21320Y27382D01*
X21201Y27093D01*
X21015Y26155D01*
X21015Y26000D01*
X21015Y25845D01*
X21201Y24907D01*
X21202Y24905D01*
X21320Y24618D01*
X21321Y24617D01*
X21852Y23823D01*
X22073Y23603D01*
X22866Y23073D01*
X22867Y23072D01*
X22868Y23071D01*
X23155Y22952D01*
X23157Y22951D01*
X24092Y22767D01*
X24093Y22766D01*
X24094Y22766D01*
X24405Y22765D01*
X24406Y22766D01*
X25343Y22951D01*
X25345Y22952D01*
X25632Y23070D01*
X25633Y23071D01*
X25633Y23072D01*
X26427Y23602D01*
X26647Y23823D01*
X27177Y24617D01*
X27178Y24617D01*
X27179Y24618D01*
X27298Y24905D01*
X27299Y24907D01*
X27484Y25844D01*
X27484Y20617D01*
X27425Y20705D01*
X27204Y20925D01*
X26054Y21695D01*
X26052Y21696D01*
X25764Y21816D01*
X24405Y22085D01*
X24093Y22084D01*
X24092Y22084D01*
X22736Y21815D01*
X22733Y21815D01*
X22733Y21814D01*
X22445Y21695D01*
X21295Y20925D01*
X21075Y20704D01*
X20305Y19554D01*
X20304Y19553D01*
X20304Y19552D01*
X20184Y19264D01*
X19915Y17905D01*
X19915Y17750D01*
X19915Y17595D01*
X20184Y16236D01*
X20304Y15948D01*
X20305Y15946D01*
X21075Y14796D01*
X21295Y14575D01*
X22445Y13805D01*
X22447Y13805D01*
X22733Y13686D01*
X22736Y13685D01*
X24092Y13417D01*
X24093Y13416D01*
X24094Y13416D01*
X24405Y13415D01*
X25764Y13684D01*
X25766Y13686D01*
X26052Y13804D01*
X26052Y13805D01*
X26054Y13805D01*
X27204Y14575D01*
X27425Y14795D01*
X28195Y15945D01*
X28195Y15947D01*
X28314Y16233D01*
X28314Y16234D01*
X28315Y16236D01*
X28583Y17594D01*
X28584Y17594D01*
X28584Y9560D01*
X28063Y10341D01*
X28062Y10342D01*
X28062Y10343D01*
X27842Y10562D01*
X27841Y10563D01*
X26397Y11527D01*
X26108Y11646D01*
X26098Y11646D01*
X24412Y11983D01*
X24405Y11986D01*
X24093Y11986D01*
X22390Y11645D01*
X22102Y11526D01*
X22099Y11524D01*
X20659Y10563D01*
X20658Y10563D01*
X20657Y10562D01*
X20437Y10341D01*
X19473Y8897D01*
X19354Y8608D01*
X19354Y8599D01*
X19335Y8507D01*
X19321Y8577D01*
X19321Y8579D01*
X19202Y8865D01*
X19202Y8867D01*
X19198Y8871D01*
X18655Y9686D01*
X18655Y17593D01*
X18655Y17595D01*
X18655Y17905D01*
X18655Y17907D01*
X18397Y19195D01*
X18397Y19197D01*
X18278Y19484D01*
X18278Y19485D01*
X18275Y19488D01*
X17654Y20420D01*
X17654Y25844D01*
X17654Y26156D01*
X17475Y27062D01*
X17474Y27065D01*
X17355Y27351D01*
X17355Y27353D01*
X16841Y28121D01*
X16654Y28308D01*
X16654Y33094D01*
X16654Y33406D01*
X16551Y33929D01*
X16431Y34218D01*
X16135Y34663D01*
X16134Y34664D01*
X15914Y34884D01*
X15913Y34885D01*
X15468Y35182D01*
X15179Y35301D01*
X14655Y35405D01*
X14343Y35404D01*
X14342Y35404D01*
X13821Y35301D01*
X13532Y35181D01*
X13087Y34885D01*
X13086Y34884D01*
X12866Y34664D01*
X12865Y34663D01*
X12568Y34218D01*
X12449Y33929D01*
X12345Y33405D01*
X12345Y33250D01*
X12345Y33095D01*
X12449Y32571D01*
X12568Y32282D01*
X12865Y31837D01*
X12866Y31836D01*
X13086Y31616D01*
X13087Y31615D01*
X13532Y31319D01*
X13821Y31199D01*
X14342Y31097D01*
X14343Y31096D01*
X14344Y31096D01*
X14655Y31095D01*
X14656Y31096D01*
X15179Y31199D01*
X15468Y31318D01*
X15913Y31615D01*
X15914Y31616D01*
X16134Y31836D01*
X16135Y31837D01*
X16431Y32282D01*
X16550Y32571D01*
X16551Y32571D01*
X16654Y33094D01*
X16654Y28308D01*
X16620Y28341D01*
X15852Y28855D01*
X15850Y28856D01*
X15564Y28974D01*
X15562Y28975D01*
X14655Y29155D01*
X14343Y29154D01*
X14342Y29154D01*
X13438Y28975D01*
X13435Y28975D01*
X13435Y28974D01*
X13147Y28855D01*
X12379Y28341D01*
X12159Y28120D01*
X11645Y27352D01*
X11644Y27351D01*
X11644Y27350D01*
X11525Y27062D01*
X11345Y26155D01*
X11345Y26000D01*
X11345Y25845D01*
X11525Y24938D01*
X11526Y24936D01*
X11644Y24650D01*
X11645Y24648D01*
X12159Y23880D01*
X12379Y23659D01*
X13147Y23145D01*
X13149Y23145D01*
X13435Y23026D01*
X13438Y23025D01*
X14342Y22847D01*
X14343Y22846D01*
X14344Y22846D01*
X14655Y22845D01*
X14656Y22846D01*
X15562Y23025D01*
X15564Y23026D01*
X15850Y23144D01*
X15850Y23145D01*
X15852Y23145D01*
X16620Y23659D01*
X16841Y23879D01*
X17355Y24647D01*
X17355Y24649D01*
X17474Y24935D01*
X17474Y24936D01*
X17475Y24938D01*
X17654Y25844D01*
X17654Y20420D01*
X17549Y20577D01*
X17548Y20578D01*
X17548Y20579D01*
X17328Y20798D01*
X17327Y20799D01*
X16234Y21529D01*
X15945Y21648D01*
X15940Y21648D01*
X14657Y21904D01*
X14655Y21905D01*
X14345Y21905D01*
X14343Y21905D01*
X13053Y21647D01*
X12765Y21528D01*
X12762Y21526D01*
X11673Y20799D01*
X11672Y20799D01*
X11671Y20798D01*
X11451Y20577D01*
X10721Y19484D01*
X10602Y19195D01*
X10602Y19191D01*
X10346Y17908D01*
X10345Y17905D01*
X10345Y17750D01*
X10345Y17595D01*
X10346Y17593D01*
X10602Y16310D01*
X10602Y16305D01*
X10721Y16016D01*
X11451Y14923D01*
X11452Y14922D01*
X11671Y14702D01*
X11672Y14702D01*
X11673Y14701D01*
X12762Y13975D01*
X12765Y13972D01*
X12766Y13972D01*
X13053Y13853D01*
X13055Y13853D01*
X14343Y13595D01*
X14345Y13595D01*
X14655Y13595D01*
X14657Y13596D01*
X14657Y13597D01*
X15940Y13852D01*
X15945Y13852D01*
X15946Y13853D01*
X16234Y13971D01*
X17327Y14701D01*
X17328Y14702D01*
X17548Y14921D01*
X17548Y14923D01*
X17549Y14923D01*
X18275Y16013D01*
X18278Y16015D01*
X18278Y16016D01*
X18397Y16303D01*
X18397Y16305D01*
X18655Y17593D01*
X18655Y9686D01*
X18256Y10284D01*
X18255Y10285D01*
X18255Y10286D01*
X18034Y10507D01*
X16616Y11453D01*
X16327Y11572D01*
X16322Y11572D01*
X14660Y11904D01*
X14654Y11906D01*
X14342Y11905D01*
X12671Y11571D01*
X12383Y11452D01*
X12379Y11448D01*
X10966Y10506D01*
X10965Y10506D01*
X10964Y10505D01*
X10743Y10284D01*
X9797Y8866D01*
X9728Y8699D01*
X9665Y8851D01*
X9665Y8852D01*
X9662Y8855D01*
X9114Y9677D01*
X9114Y17594D01*
X9113Y17750D01*
X9113Y17906D01*
X9114Y17906D01*
X8862Y19179D01*
X8742Y19468D01*
X8738Y19472D01*
X8124Y20395D01*
X8124Y25844D01*
X8124Y26156D01*
X7947Y27050D01*
X7946Y27051D01*
X7827Y27339D01*
X7321Y28099D01*
X7114Y28306D01*
X7114Y33094D01*
X7114Y33406D01*
X7014Y33914D01*
X6894Y34203D01*
X6893Y34204D01*
X6893Y34205D01*
X6605Y34635D01*
X6384Y34856D01*
X5954Y35144D01*
X5952Y35145D01*
X5666Y35263D01*
X5664Y35264D01*
X5155Y35365D01*
X4843Y35364D01*
X4842Y35364D01*
X4336Y35264D01*
X4047Y35144D01*
X4046Y35144D01*
X4045Y35143D01*
X3615Y34855D01*
X3394Y34634D01*
X3106Y34204D01*
X3105Y34203D01*
X3105Y34202D01*
X2986Y33914D01*
X2885Y33405D01*
X2885Y33250D01*
X2885Y33095D01*
X2986Y32586D01*
X2987Y32584D01*
X3105Y32298D01*
X3106Y32296D01*
X3394Y31866D01*
X3615Y31645D01*
X4045Y31357D01*
X4046Y31357D01*
X4047Y31356D01*
X4336Y31236D01*
X4842Y31137D01*
X4843Y31136D01*
X4844Y31136D01*
X5155Y31135D01*
X5156Y31136D01*
X5664Y31236D01*
X5666Y31237D01*
X5952Y31355D01*
X5952Y31356D01*
X5954Y31356D01*
X6384Y31644D01*
X6384Y31645D01*
X6605Y31865D01*
X6893Y32295D01*
X6893Y32297D01*
X6894Y32297D01*
X7012Y32584D01*
X7014Y32586D01*
X7114Y33094D01*
X7114Y28306D01*
X7100Y28320D01*
X7098Y28321D01*
X6339Y28828D01*
X6254Y28863D01*
X6050Y28948D01*
X5155Y29125D01*
X4843Y29124D01*
X4842Y29124D01*
X3950Y28947D01*
X3661Y28827D01*
X2901Y28321D01*
X2680Y28100D01*
X2679Y28099D01*
X2679Y28098D01*
X2172Y27339D01*
X2137Y27254D01*
X2052Y27050D01*
X1875Y26155D01*
X1875Y26000D01*
X1875Y25845D01*
X2052Y24950D01*
X2137Y24746D01*
X2172Y24661D01*
X2679Y23902D01*
X2680Y23900D01*
X2901Y23679D01*
X3661Y23173D01*
X3949Y23054D01*
X3950Y23053D01*
X4842Y22877D01*
X4843Y22876D01*
X4844Y22876D01*
X5155Y22875D01*
X5156Y22876D01*
X6050Y23052D01*
X6050Y23053D01*
X6254Y23137D01*
X6338Y23172D01*
X6339Y23172D01*
X7098Y23679D01*
X7098Y23680D01*
X7100Y23680D01*
X7319Y23900D01*
X7321Y23901D01*
X7827Y24661D01*
X7946Y24949D01*
X7947Y24950D01*
X8124Y25844D01*
X8124Y20395D01*
X8021Y20549D01*
X8019Y20551D01*
X7800Y20770D01*
X7799Y20772D01*
X6718Y21493D01*
X6633Y21528D01*
X6429Y21613D01*
X5155Y21865D01*
X4843Y21864D01*
X4842Y21864D01*
X3571Y21612D01*
X3282Y21492D01*
X3278Y21489D01*
X2201Y20771D01*
X2199Y20769D01*
X1978Y20549D01*
X1257Y19468D01*
X1222Y19383D01*
X1137Y19179D01*
X885Y17905D01*
X885Y17750D01*
X885Y17595D01*
X1137Y16321D01*
X1222Y16117D01*
X1257Y16032D01*
X1978Y14951D01*
X1980Y14950D01*
X2199Y14731D01*
X2201Y14729D01*
X3278Y14012D01*
X3282Y14008D01*
X3571Y13888D01*
X4842Y13637D01*
X4843Y13636D01*
X4844Y13636D01*
X5155Y13635D01*
X6429Y13887D01*
X6429Y13888D01*
X6633Y13972D01*
X6717Y14007D01*
X6718Y14007D01*
X7799Y14728D01*
X7800Y14730D01*
X8019Y14949D01*
X8021Y14951D01*
X8738Y16029D01*
X8741Y16032D01*
X8742Y16032D01*
X8862Y16321D01*
X9113Y17594D01*
X9114Y17594D01*
X9114Y9677D01*
X8728Y10256D01*
X8727Y10257D01*
X8727Y10258D01*
X8507Y10477D01*
X8506Y10478D01*
X7101Y11416D01*
X6812Y11535D01*
X6807Y11535D01*
X5162Y11863D01*
X5155Y11866D01*
X4843Y11865D01*
X3186Y11534D01*
X2898Y11415D01*
X2895Y11413D01*
X1494Y10478D01*
X1493Y10478D01*
X1492Y10477D01*
X1272Y10256D01*
X800Y9550D01*
X800Y36526D01*
X1220Y36351D01*
X1777Y36350D01*
X2292Y36563D01*
X2686Y36956D01*
X2899Y37470D01*
X2900Y38027D01*
X2725Y38450D01*
X36775Y38450D01*
X36601Y38030D01*
X36600Y37473D01*
X36813Y36958D01*
X37206Y36564D01*
X37720Y36351D01*
X38277Y36350D01*
X38450Y36422D01*
X38450Y19461D01*
X38380Y19629D01*
X38376Y19633D01*
X37584Y20822D01*
X37584Y25843D01*
X37584Y25845D01*
X37584Y26155D01*
X37584Y26157D01*
X37583Y26159D01*
X37391Y27131D01*
X37390Y27134D01*
X37271Y27420D01*
X37271Y27422D01*
X36718Y28248D01*
X36585Y28381D01*
X36585Y33093D01*
X36585Y33095D01*
X36585Y33405D01*
X36585Y33407D01*
X36466Y33999D01*
X36466Y34000D01*
X36347Y34287D01*
X36347Y34288D01*
X36345Y34290D01*
X36012Y34790D01*
X36010Y34792D01*
X35791Y35011D01*
X35789Y35012D01*
X35287Y35348D01*
X34998Y35467D01*
X34993Y35467D01*
X34407Y35584D01*
X34405Y35585D01*
X34095Y35585D01*
X34093Y35585D01*
X33500Y35466D01*
X33212Y35347D01*
X33210Y35346D01*
X32710Y35012D01*
X32708Y35010D01*
X32489Y34791D01*
X32488Y34790D01*
X32488Y34789D01*
X32152Y34287D01*
X32033Y33998D01*
X32033Y33994D01*
X31916Y33408D01*
X31915Y33405D01*
X31915Y33250D01*
X31915Y33095D01*
X31916Y33093D01*
X32033Y32507D01*
X32033Y32502D01*
X32152Y32213D01*
X32488Y31711D01*
X32489Y31709D01*
X32708Y31490D01*
X32710Y31488D01*
X33210Y31155D01*
X33212Y31153D01*
X33213Y31153D01*
X33500Y31034D01*
X33501Y31034D01*
X34093Y30915D01*
X34095Y30915D01*
X34405Y30915D01*
X34407Y30916D01*
X34407Y30917D01*
X34993Y31033D01*
X34998Y31033D01*
X34999Y31034D01*
X35287Y31152D01*
X35789Y31488D01*
X35789Y31489D01*
X35791Y31489D01*
X36010Y31708D01*
X36012Y31710D01*
X36345Y32211D01*
X36347Y32212D01*
X36347Y32213D01*
X36466Y32500D01*
X36466Y32501D01*
X36585Y33093D01*
X36585Y28381D01*
X36497Y28468D01*
X35671Y29021D01*
X35670Y29022D01*
X35381Y29142D01*
X34405Y29335D01*
X34093Y29334D01*
X34091Y29334D01*
X33119Y29141D01*
X33116Y29141D01*
X33116Y29140D01*
X32828Y29021D01*
X32002Y28468D01*
X31782Y28247D01*
X31229Y27422D01*
X31228Y27420D01*
X31108Y27131D01*
X30915Y26155D01*
X30915Y26000D01*
X30915Y25845D01*
X31108Y24869D01*
X31228Y24580D01*
X31229Y24579D01*
X31782Y23753D01*
X32002Y23532D01*
X32828Y22979D01*
X32830Y22979D01*
X33116Y22860D01*
X33119Y22859D01*
X34091Y22667D01*
X34093Y22666D01*
X34095Y22666D01*
X34405Y22665D01*
X34407Y22666D01*
X35381Y22858D01*
X35383Y22860D01*
X35670Y22978D01*
X35671Y22979D01*
X35671Y22980D01*
X36497Y23532D01*
X36718Y23752D01*
X37271Y24578D01*
X37271Y24580D01*
X37390Y24866D01*
X37390Y24867D01*
X37391Y24869D01*
X37583Y25842D01*
X37584Y25843D01*
X37584Y20822D01*
X37568Y20846D01*
X37567Y20847D01*
X37567Y20848D01*
X37346Y21069D01*
X36129Y21881D01*
X35841Y22001D01*
X34405Y22285D01*
X34093Y22284D01*
X34091Y22284D01*
X32660Y22000D01*
X32371Y21880D01*
X32367Y21877D01*
X31154Y21068D01*
X31153Y21068D01*
X31152Y21067D01*
X30931Y20846D01*
X30119Y19629D01*
X29999Y19341D01*
X29715Y17905D01*
X29715Y17750D01*
X29715Y17595D01*
X29999Y16159D01*
X30119Y15871D01*
X30931Y14654D01*
X31152Y14433D01*
X31153Y14433D01*
X31154Y14432D01*
X32367Y13624D01*
X32371Y13620D01*
X32660Y13500D01*
X34091Y13217D01*
X34093Y13216D01*
X34095Y13216D01*
X34405Y13215D01*
X34407Y13216D01*
X35841Y13499D01*
X36129Y13619D01*
X37346Y14431D01*
X37347Y14433D01*
X37567Y14652D01*
X37567Y14654D01*
X37568Y14654D01*
X38376Y15868D01*
X38379Y15871D01*
X38380Y15871D01*
X38450Y16040D01*
X38450Y9937D01*
X38450Y9937D01*
G37*
G54D21*
X38450Y9937D02*
X38132Y10412D01*
X37911Y10632D01*
X37907Y10634D01*
X36439Y11617D01*
X36435Y11621D01*
X36147Y11740D01*
X34405Y12085D01*
X34093Y12084D01*
X34091Y12084D01*
X32354Y11740D01*
X32351Y11739D01*
X32063Y11619D01*
X30588Y10632D01*
X30368Y10411D01*
X30366Y10408D01*
X29383Y8940D01*
X29379Y8935D01*
X29260Y8647D01*
X29199Y8340D01*
X29145Y8608D01*
X29145Y8610D01*
X29026Y8897D01*
X29026Y8898D01*
X29023Y8901D01*
X28584Y9560D01*
X28584Y17594D01*
X28583Y17750D01*
X28583Y17906D01*
X28584Y17906D01*
X28315Y19264D01*
X28314Y19267D01*
X28195Y19553D01*
X28195Y19555D01*
X27484Y20617D01*
X27484Y25844D01*
X27484Y26156D01*
X27299Y27093D01*
X27298Y27095D01*
X27179Y27382D01*
X27178Y27383D01*
X27177Y27384D01*
X26647Y28177D01*
X26485Y28340D01*
X26485Y33094D01*
X26484Y33250D01*
X26484Y33406D01*
X26485Y33406D01*
X26375Y33960D01*
X26374Y33962D01*
X26255Y34249D01*
X26254Y34250D01*
X26254Y34251D01*
X25940Y34720D01*
X25720Y34940D01*
X25250Y35255D01*
X25248Y35256D01*
X24962Y35374D01*
X24960Y35375D01*
X24405Y35485D01*
X24249Y35485D01*
X24094Y35485D01*
X23540Y35375D01*
X23251Y35255D01*
X23250Y35255D01*
X23249Y35254D01*
X22780Y34940D01*
X22560Y34720D01*
X22245Y34250D01*
X22244Y34249D01*
X22244Y34248D01*
X22125Y33960D01*
X22015Y33405D01*
X22015Y33250D01*
X22015Y33095D01*
X22125Y32540D01*
X22126Y32538D01*
X22244Y32252D01*
X22245Y32250D01*
X22560Y31780D01*
X22780Y31560D01*
X23249Y31246D01*
X23250Y31246D01*
X23251Y31245D01*
X23538Y31126D01*
X23540Y31125D01*
X24093Y31016D01*
X24094Y31015D01*
X24249Y31016D01*
X24405Y31015D01*
X24406Y31016D01*
X24960Y31125D01*
X24962Y31126D01*
X25248Y31244D01*
X25248Y31245D01*
X25250Y31245D01*
X25719Y31560D01*
X25720Y31560D01*
X25940Y31780D01*
X26254Y32249D01*
X26254Y32251D01*
X26255Y32251D01*
X26374Y32538D01*
X26375Y32540D01*
X26484Y33094D01*
X26485Y33094D01*
X26485Y28340D01*
X26427Y28398D01*
X25633Y28929D01*
X25632Y28930D01*
X25345Y29048D01*
X25343Y29049D01*
X24405Y29235D01*
X24093Y29234D01*
X24092Y29234D01*
X23157Y29049D01*
X22868Y28929D01*
X22866Y28928D01*
X22073Y28397D01*
X21852Y28177D01*
X21321Y27384D01*
X21320Y27382D01*
X21201Y27093D01*
X21015Y26155D01*
X21015Y26000D01*
X21015Y25845D01*
X21201Y24907D01*
X21202Y24905D01*
X21320Y24618D01*
X21321Y24617D01*
X21852Y23823D01*
X22073Y23603D01*
X22866Y23073D01*
X22867Y23072D01*
X22868Y23071D01*
X23155Y22952D01*
X23157Y22951D01*
X24092Y22767D01*
X24093Y22766D01*
X24094Y22766D01*
X24405Y22765D01*
X24406Y22766D01*
X25343Y22951D01*
X25345Y22952D01*
X25632Y23070D01*
X25633Y23071D01*
X25633Y23072D01*
X26427Y23602D01*
X26647Y23823D01*
X27177Y24617D01*
X27178Y24617D01*
X27179Y24618D01*
X27298Y24905D01*
X27299Y24907D01*
X27484Y25844D01*
X27484Y20617D01*
X27425Y20705D01*
X27204Y20925D01*
X26054Y21695D01*
X26052Y21696D01*
X25764Y21816D01*
X24405Y22085D01*
X24093Y22084D01*
X24092Y22084D01*
X22736Y21815D01*
X22733Y21815D01*
X22733Y21814D01*
X22445Y21695D01*
X21295Y20925D01*
X21075Y20704D01*
X20305Y19554D01*
X20304Y19553D01*
X20304Y19552D01*
X20184Y19264D01*
X19915Y17905D01*
X19915Y17750D01*
X19915Y17595D01*
X20184Y16236D01*
X20304Y15948D01*
X20305Y15946D01*
X21075Y14796D01*
X21295Y14575D01*
X22445Y13805D01*
X22447Y13805D01*
X22733Y13686D01*
X22736Y13685D01*
X24092Y13417D01*
X24093Y13416D01*
X24094Y13416D01*
X24405Y13415D01*
X25764Y13684D01*
X25766Y13686D01*
X26052Y13804D01*
X26052Y13805D01*
X26054Y13805D01*
X27204Y14575D01*
X27425Y14795D01*
X28195Y15945D01*
X28195Y15947D01*
X28314Y16233D01*
X28314Y16234D01*
X28315Y16236D01*
X28583Y17594D01*
X28584Y17594D01*
X28584Y9560D01*
X28063Y10341D01*
X28062Y10342D01*
X28062Y10343D01*
X27842Y10562D01*
X27841Y10563D01*
X26397Y11527D01*
X26108Y11646D01*
X26098Y11646D01*
X24412Y11983D01*
X24405Y11986D01*
X24093Y11986D01*
X22390Y11645D01*
X22102Y11526D01*
X22099Y11524D01*
X20659Y10563D01*
X20658Y10563D01*
X20657Y10562D01*
X20437Y10341D01*
X19473Y8897D01*
X19354Y8608D01*
X19354Y8599D01*
X19335Y8507D01*
X19321Y8577D01*
X19321Y8579D01*
X19202Y8865D01*
X19202Y8867D01*
X19198Y8871D01*
X18655Y9686D01*
X18655Y17593D01*
X18655Y17595D01*
X18655Y17905D01*
X18655Y17907D01*
X18397Y19195D01*
X18397Y19197D01*
X18278Y19484D01*
X18278Y19485D01*
X18275Y19488D01*
X17654Y20420D01*
X17654Y25844D01*
X17654Y26156D01*
X17475Y27062D01*
X17474Y27065D01*
X17355Y27351D01*
X17355Y27353D01*
X16841Y28121D01*
X16654Y28308D01*
X16654Y33094D01*
X16654Y33406D01*
X16551Y33929D01*
X16431Y34218D01*
X16135Y34663D01*
X16134Y34664D01*
X15914Y34884D01*
X15913Y34885D01*
X15468Y35182D01*
X15179Y35301D01*
X14655Y35405D01*
X14343Y35404D01*
X14342Y35404D01*
X13821Y35301D01*
X13532Y35181D01*
X13087Y34885D01*
X13086Y34884D01*
X12866Y34664D01*
X12865Y34663D01*
X12568Y34218D01*
X12449Y33929D01*
X12345Y33405D01*
X12345Y33250D01*
X12345Y33095D01*
X12449Y32571D01*
X12568Y32282D01*
X12865Y31837D01*
X12866Y31836D01*
X13086Y31616D01*
X13087Y31615D01*
X13532Y31319D01*
X13821Y31199D01*
X14342Y31097D01*
X14343Y31096D01*
X14344Y31096D01*
X14655Y31095D01*
X14656Y31096D01*
X15179Y31199D01*
X15468Y31318D01*
X15913Y31615D01*
X15914Y31616D01*
X16134Y31836D01*
X16135Y31837D01*
X16431Y32282D01*
X16550Y32571D01*
X16551Y32571D01*
X16654Y33094D01*
X16654Y28308D01*
X16620Y28341D01*
X15852Y28855D01*
X15850Y28856D01*
X15564Y28974D01*
X15562Y28975D01*
X14655Y29155D01*
X14343Y29154D01*
X14342Y29154D01*
X13438Y28975D01*
X13435Y28975D01*
X13435Y28974D01*
X13147Y28855D01*
X12379Y28341D01*
X12159Y28120D01*
X11645Y27352D01*
X11644Y27351D01*
X11644Y27350D01*
X11525Y27062D01*
X11345Y26155D01*
X11345Y26000D01*
X11345Y25845D01*
X11525Y24938D01*
X11526Y24936D01*
X11644Y24650D01*
X11645Y24648D01*
X12159Y23880D01*
X12379Y23659D01*
X13147Y23145D01*
X13149Y23145D01*
X13435Y23026D01*
X13438Y23025D01*
X14342Y22847D01*
X14343Y22846D01*
X14344Y22846D01*
X14655Y22845D01*
X14656Y22846D01*
X15562Y23025D01*
X15564Y23026D01*
X15850Y23144D01*
X15850Y23145D01*
X15852Y23145D01*
X16620Y23659D01*
X16841Y23879D01*
X17355Y24647D01*
X17355Y24649D01*
X17474Y24935D01*
X17474Y24936D01*
X17475Y24938D01*
X17654Y25844D01*
X17654Y20420D01*
X17549Y20577D01*
X17548Y20578D01*
X17548Y20579D01*
X17328Y20798D01*
X17327Y20799D01*
X16234Y21529D01*
X15945Y21648D01*
X15940Y21648D01*
X14657Y21904D01*
X14655Y21905D01*
X14345Y21905D01*
X14343Y21905D01*
X13053Y21647D01*
X12765Y21528D01*
X12762Y21526D01*
X11673Y20799D01*
X11672Y20799D01*
X11671Y20798D01*
X11451Y20577D01*
X10721Y19484D01*
X10602Y19195D01*
X10602Y19191D01*
X10346Y17908D01*
X10345Y17905D01*
X10345Y17750D01*
X10345Y17595D01*
X10346Y17593D01*
X10602Y16310D01*
X10602Y16305D01*
X10721Y16016D01*
X11451Y14923D01*
X11452Y14922D01*
X11671Y14702D01*
X11672Y14702D01*
X11673Y14701D01*
X12762Y13975D01*
X12765Y13972D01*
X12766Y13972D01*
X13053Y13853D01*
X13055Y13853D01*
X14343Y13595D01*
X14345Y13595D01*
X14655Y13595D01*
X14657Y13596D01*
X14657Y13597D01*
X15940Y13852D01*
X15945Y13852D01*
X15946Y13853D01*
X16234Y13971D01*
X17327Y14701D01*
X17328Y14702D01*
X17548Y14921D01*
X17548Y14923D01*
X17549Y14923D01*
X18275Y16013D01*
X18278Y16015D01*
X18278Y16016D01*
X18397Y16303D01*
X18397Y16305D01*
X18655Y17593D01*
X18655Y9686D01*
X18256Y10284D01*
X18255Y10285D01*
X18255Y10286D01*
X18034Y10507D01*
X16616Y11453D01*
X16327Y11572D01*
X16322Y11572D01*
X14660Y11904D01*
X14654Y11906D01*
X14342Y11905D01*
X12671Y11571D01*
X12383Y11452D01*
X12379Y11448D01*
X10966Y10506D01*
X10965Y10506D01*
X10964Y10505D01*
X10743Y10284D01*
X9797Y8866D01*
X9728Y8699D01*
X9665Y8851D01*
X9665Y8852D01*
X9662Y8855D01*
X9114Y9677D01*
X9114Y17594D01*
X9113Y17750D01*
X9113Y17906D01*
X9114Y17906D01*
X8862Y19179D01*
X8742Y19468D01*
X8738Y19472D01*
X8124Y20395D01*
X8124Y25844D01*
X8124Y26156D01*
X7947Y27050D01*
X7946Y27051D01*
X7827Y27339D01*
X7321Y28099D01*
X7114Y28306D01*
X7114Y33094D01*
X7114Y33406D01*
X7014Y33914D01*
X6894Y34203D01*
X6893Y34204D01*
X6893Y34205D01*
X6605Y34635D01*
X6384Y34856D01*
X5954Y35144D01*
X5952Y35145D01*
X5666Y35263D01*
X5664Y35264D01*
X5155Y35365D01*
X4843Y35364D01*
X4842Y35364D01*
X4336Y35264D01*
X4047Y35144D01*
X4046Y35144D01*
X4045Y35143D01*
X3615Y34855D01*
X3394Y34634D01*
X3106Y34204D01*
X3105Y34203D01*
X3105Y34202D01*
X2986Y33914D01*
X2885Y33405D01*
X2885Y33250D01*
X2885Y33095D01*
X2986Y32586D01*
X2987Y32584D01*
X3105Y32298D01*
X3106Y32296D01*
X3394Y31866D01*
X3615Y31645D01*
X4045Y31357D01*
X4046Y31357D01*
X4047Y31356D01*
X4336Y31236D01*
X4842Y31137D01*
X4843Y31136D01*
X4844Y31136D01*
X5155Y31135D01*
X5156Y31136D01*
X5664Y31236D01*
X5666Y31237D01*
X5952Y31355D01*
X5952Y31356D01*
X5954Y31356D01*
X6384Y31644D01*
X6384Y31645D01*
X6605Y31865D01*
X6893Y32295D01*
X6893Y32297D01*
X6894Y32297D01*
X7012Y32584D01*
X7014Y32586D01*
X7114Y33094D01*
X7114Y28306D01*
X7100Y28320D01*
X7098Y28321D01*
X6339Y28828D01*
X6254Y28863D01*
X6050Y28948D01*
X5155Y29125D01*
X4843Y29124D01*
X4842Y29124D01*
X3950Y28947D01*
X3661Y28827D01*
X2901Y28321D01*
X2680Y28100D01*
X2679Y28099D01*
X2679Y28098D01*
X2172Y27339D01*
X2137Y27254D01*
X2052Y27050D01*
X1875Y26155D01*
X1875Y26000D01*
X1875Y25845D01*
X2052Y24950D01*
X2137Y24746D01*
X2172Y24661D01*
X2679Y23902D01*
X2680Y23900D01*
X2901Y23679D01*
X3661Y23173D01*
X3949Y23054D01*
X3950Y23053D01*
X4842Y22877D01*
X4843Y22876D01*
X4844Y22876D01*
X5155Y22875D01*
X5156Y22876D01*
X6050Y23052D01*
X6050Y23053D01*
X6254Y23137D01*
X6338Y23172D01*
X6339Y23172D01*
X7098Y23679D01*
X7098Y23680D01*
X7100Y23680D01*
X7319Y23900D01*
X7321Y23901D01*
X7827Y24661D01*
X7946Y24949D01*
X7947Y24950D01*
X8124Y25844D01*
X8124Y20395D01*
X8021Y20549D01*
X8019Y20551D01*
X7800Y20770D01*
X7799Y20772D01*
X6718Y21493D01*
X6633Y21528D01*
X6429Y21613D01*
X5155Y21865D01*
X4843Y21864D01*
X4842Y21864D01*
X3571Y21612D01*
X3282Y21492D01*
X3278Y21489D01*
X2201Y20771D01*
X2199Y20769D01*
X1978Y20549D01*
X1257Y19468D01*
X1222Y19383D01*
X1137Y19179D01*
X885Y17905D01*
X885Y17750D01*
X885Y17595D01*
X1137Y16321D01*
X1222Y16117D01*
X1257Y16032D01*
X1978Y14951D01*
X1980Y14950D01*
X2199Y14731D01*
X2201Y14729D01*
X3278Y14012D01*
X3282Y14008D01*
X3571Y13888D01*
X4842Y13637D01*
X4843Y13636D01*
X4844Y13636D01*
X5155Y13635D01*
X6429Y13887D01*
X6429Y13888D01*
X6633Y13972D01*
X6717Y14007D01*
X6718Y14007D01*
X7799Y14728D01*
X7800Y14730D01*
X8019Y14949D01*
X8021Y14951D01*
X8738Y16029D01*
X8741Y16032D01*
X8742Y16032D01*
X8862Y16321D01*
X9113Y17594D01*
X9114Y17594D01*
X9114Y9677D01*
X8728Y10256D01*
X8727Y10257D01*
X8727Y10258D01*
X8507Y10477D01*
X8506Y10478D01*
X7101Y11416D01*
X6812Y11535D01*
X6807Y11535D01*
X5162Y11863D01*
X5155Y11866D01*
X4843Y11865D01*
X3186Y11534D01*
X2898Y11415D01*
X2895Y11413D01*
X1494Y10478D01*
X1493Y10478D01*
X1492Y10477D01*
X1272Y10256D01*
X800Y9550D01*
X800Y36526D01*
X1220Y36351D01*
X1777Y36350D01*
X2292Y36563D01*
X2686Y36956D01*
X2899Y37470D01*
X2900Y38027D01*
X2725Y38450D01*
X36775Y38450D01*
X36601Y38030D01*
X36600Y37473D01*
X36813Y36958D01*
X37206Y36564D01*
X37720Y36351D01*
X38277Y36350D01*
X38450Y36422D01*
X38450Y19461D01*
X38380Y19629D01*
X38376Y19633D01*
X37584Y20822D01*
X37584Y25843D01*
X37584Y25845D01*
X37584Y26155D01*
X37584Y26157D01*
X37583Y26159D01*
X37391Y27131D01*
X37390Y27134D01*
X37271Y27420D01*
X37271Y27422D01*
X36718Y28248D01*
X36585Y28381D01*
X36585Y33093D01*
X36585Y33095D01*
X36585Y33405D01*
X36585Y33407D01*
X36466Y33999D01*
X36466Y34000D01*
X36347Y34287D01*
X36347Y34288D01*
X36345Y34290D01*
X36012Y34790D01*
X36010Y34792D01*
X35791Y35011D01*
X35789Y35012D01*
X35287Y35348D01*
X34998Y35467D01*
X34993Y35467D01*
X34407Y35584D01*
X34405Y35585D01*
X34095Y35585D01*
X34093Y35585D01*
X33500Y35466D01*
X33212Y35347D01*
X33210Y35346D01*
X32710Y35012D01*
X32708Y35010D01*
X32489Y34791D01*
X32488Y34790D01*
X32488Y34789D01*
X32152Y34287D01*
X32033Y33998D01*
X32033Y33994D01*
X31916Y33408D01*
X31915Y33405D01*
X31915Y33250D01*
X31915Y33095D01*
X31916Y33093D01*
X32033Y32507D01*
X32033Y32502D01*
X32152Y32213D01*
X32488Y31711D01*
X32489Y31709D01*
X32708Y31490D01*
X32710Y31488D01*
X33210Y31155D01*
X33212Y31153D01*
X33213Y31153D01*
X33500Y31034D01*
X33501Y31034D01*
X34093Y30915D01*
X34095Y30915D01*
X34405Y30915D01*
X34407Y30916D01*
X34407Y30917D01*
X34993Y31033D01*
X34998Y31033D01*
X34999Y31034D01*
X35287Y31152D01*
X35789Y31488D01*
X35789Y31489D01*
X35791Y31489D01*
X36010Y31708D01*
X36012Y31710D01*
X36345Y32211D01*
X36347Y32212D01*
X36347Y32213D01*
X36466Y32500D01*
X36466Y32501D01*
X36585Y33093D01*
X36585Y28381D01*
X36497Y28468D01*
X35671Y29021D01*
X35670Y29022D01*
X35381Y29142D01*
X34405Y29335D01*
X34093Y29334D01*
X34091Y29334D01*
X33119Y29141D01*
X33116Y29141D01*
X33116Y29140D01*
X32828Y29021D01*
X32002Y28468D01*
X31782Y28247D01*
X31229Y27422D01*
X31228Y27420D01*
X31108Y27131D01*
X30915Y26155D01*
X30915Y26000D01*
X30915Y25845D01*
X31108Y24869D01*
X31228Y24580D01*
X31229Y24579D01*
X31782Y23753D01*
X32002Y23532D01*
X32828Y22979D01*
X32830Y22979D01*
X33116Y22860D01*
X33119Y22859D01*
X34091Y22667D01*
X34093Y22666D01*
X34095Y22666D01*
X34405Y22665D01*
X34407Y22666D01*
X35381Y22858D01*
X35383Y22860D01*
X35670Y22978D01*
X35671Y22979D01*
X35671Y22980D01*
X36497Y23532D01*
X36718Y23752D01*
X37271Y24578D01*
X37271Y24580D01*
X37390Y24866D01*
X37390Y24867D01*
X37391Y24869D01*
X37583Y25842D01*
X37584Y25843D01*
X37584Y20822D01*
X37568Y20846D01*
X37567Y20847D01*
X37567Y20848D01*
X37346Y21069D01*
X36129Y21881D01*
X35841Y22001D01*
X34405Y22285D01*
X34093Y22284D01*
X34091Y22284D01*
X32660Y22000D01*
X32371Y21880D01*
X32367Y21877D01*
X31154Y21068D01*
X31153Y21068D01*
X31152Y21067D01*
X30931Y20846D01*
X30119Y19629D01*
X29999Y19341D01*
X29715Y17905D01*
X29715Y17750D01*
X29715Y17595D01*
X29999Y16159D01*
X30119Y15871D01*
X30931Y14654D01*
X31152Y14433D01*
X31153Y14433D01*
X31154Y14432D01*
X32367Y13624D01*
X32371Y13620D01*
X32660Y13500D01*
X34091Y13217D01*
X34093Y13216D01*
X34095Y13216D01*
X34405Y13215D01*
X34407Y13216D01*
X35841Y13499D01*
X36129Y13619D01*
X37346Y14431D01*
X37347Y14433D01*
X37567Y14652D01*
X37567Y14654D01*
X37568Y14654D01*
X38376Y15868D01*
X38379Y15871D01*
X38380Y15871D01*
X38450Y16040D01*
X38450Y9937D01*
M02*
