G04 (created by PCBNEW-RS274X (2011-nov-30)-testing) date Sun 19 Aug 2012 05:26:13 PM EDT*
%MOIN*%
G04 Gerber Fmt 3.4, Leading zero omitted, Abs format*
%FSLAX34Y34*%
G01*
G70*
G90*
G04 APERTURE LIST*
%ADD10C,0.006*%
%ADD11C,0.015*%
%ADD12C,0.01*%
%ADD13R,0.12X0.07*%
%ADD14C,0.19*%
%ADD15R,0.32X0.17*%
%ADD16R,0.17X0.32*%
%ADD17R,0.07X0.12*%
G04 APERTURE END LIST*
G54D10*
G54D11*
X24Y-53D02*
X24Y39317D01*
X39394Y-53D02*
X24Y-53D01*
X39394Y39317D02*
X39394Y-53D01*
X24Y39317D02*
X39394Y39317D01*
G54D12*
X7800Y6150D02*
X7800Y6350D01*
X7800Y6350D02*
X7800Y6250D01*
X7800Y6250D02*
X7700Y6250D01*
X7700Y6250D02*
X7900Y6250D01*
X37050Y6150D02*
X37050Y6350D01*
X37050Y6350D02*
X37050Y6250D01*
X37050Y6250D02*
X36950Y6250D01*
X36950Y6250D02*
X37150Y6250D01*
X26550Y25900D02*
X26550Y26100D01*
X26550Y26100D02*
X26550Y26000D01*
X26550Y26000D02*
X26450Y26000D01*
X26450Y26000D02*
X26650Y26000D01*
X36550Y25900D02*
X36550Y26100D01*
X36550Y26100D02*
X36550Y26000D01*
X36550Y26000D02*
X36450Y26000D01*
X36450Y26000D02*
X36650Y26000D01*
X17300Y17150D02*
X17300Y17350D01*
X17300Y17350D02*
X17300Y17250D01*
X17300Y17250D02*
X17200Y17250D01*
X17200Y17250D02*
X17400Y17250D01*
X27050Y17150D02*
X27050Y17350D01*
X27050Y17350D02*
X27050Y17250D01*
X27050Y17250D02*
X26950Y17250D01*
X26950Y17250D02*
X27150Y17250D01*
X7300Y33150D02*
X7300Y33350D01*
X7300Y33350D02*
X7300Y33250D01*
X7300Y33250D02*
X7200Y33250D01*
X7200Y33250D02*
X7400Y33250D01*
X26550Y33150D02*
X26550Y33350D01*
X26550Y33350D02*
X26550Y33250D01*
X26550Y33250D02*
X26450Y33250D01*
X26450Y33250D02*
X26650Y33250D01*
X16800Y33150D02*
X16800Y33350D01*
X16800Y33350D02*
X16800Y33250D01*
X16800Y33250D02*
X16700Y33250D01*
X16700Y33250D02*
X16900Y33250D01*
X36550Y33150D02*
X36550Y33350D01*
X36550Y33350D02*
X36550Y33250D01*
X36550Y33250D02*
X36450Y33250D01*
X36450Y33250D02*
X36650Y33250D01*
X17300Y6150D02*
X17300Y6350D01*
X17300Y6350D02*
X17300Y6250D01*
X17300Y6250D02*
X17200Y6250D01*
X17200Y6250D02*
X17400Y6250D01*
X37744Y16526D02*
X37744Y15526D01*
X38244Y24026D02*
X37244Y24026D01*
X37744Y24526D02*
X37744Y23526D01*
X16209Y1596D02*
X15209Y1596D01*
X23709Y1096D02*
X23709Y2096D01*
X24209Y1596D02*
X23209Y1596D01*
X16209Y37817D02*
X15209Y37817D01*
X23709Y37317D02*
X23709Y38317D01*
X24209Y37817D02*
X23209Y37817D01*
X1524Y16132D02*
X1524Y15132D01*
X2024Y23632D02*
X1024Y23632D01*
X1524Y24132D02*
X1524Y23132D01*
X27050Y6150D02*
X27050Y6350D01*
X27050Y6350D02*
X27050Y6250D01*
X27050Y6250D02*
X26950Y6250D01*
X26950Y6250D02*
X27150Y6250D01*
X5600Y20550D02*
X5400Y20550D01*
X5400Y20550D02*
X5500Y20550D01*
X5500Y20550D02*
X5500Y20450D01*
X5500Y20450D02*
X5500Y20650D01*
X34850Y20550D02*
X34650Y20550D01*
X34650Y20550D02*
X34750Y20550D01*
X34750Y20550D02*
X34750Y20450D01*
X34750Y20450D02*
X34750Y20650D01*
X7300Y25900D02*
X7300Y26100D01*
X7300Y26100D02*
X7300Y26000D01*
X7300Y26000D02*
X7200Y26000D01*
X7200Y26000D02*
X7400Y26000D01*
X16800Y25900D02*
X16800Y26100D01*
X16800Y26100D02*
X16800Y26000D01*
X16800Y26000D02*
X16700Y26000D01*
X16700Y26000D02*
X16900Y26000D01*
%LPC*%
G54D13*
X6500Y6750D03*
X3500Y6750D03*
X35750Y6750D03*
X32750Y6750D03*
X25750Y26000D03*
X22750Y26000D03*
G54D14*
X1500Y1250D03*
X38000Y1250D03*
X38000Y37750D03*
X1500Y37750D03*
G54D13*
X35750Y26000D03*
X32750Y26000D03*
X16000Y17750D03*
X13000Y17750D03*
X25750Y17750D03*
X22750Y17750D03*
X6500Y33250D03*
X3500Y33250D03*
X25750Y33250D03*
X22750Y33250D03*
X16000Y33250D03*
X13000Y33250D03*
X35750Y33250D03*
X32750Y33250D03*
X16000Y6750D03*
X13000Y6750D03*
G54D15*
X37744Y22026D03*
X37744Y18026D03*
G54D16*
X21709Y1596D03*
X17709Y1596D03*
X21709Y37817D03*
X17709Y37817D03*
G54D15*
X1524Y21632D03*
X1524Y17632D03*
G54D13*
X25750Y6750D03*
X22750Y6750D03*
G54D17*
X5000Y19250D03*
X5000Y16250D03*
X34250Y19250D03*
X34250Y16250D03*
G54D13*
X6500Y26000D03*
X3500Y26000D03*
X16000Y26000D03*
X13000Y26000D03*
M02*
