M48
;DRILL file {Pcbnew (2011-nov-30)-testing} date Mon 20 Aug 2012 01:43:13 PM EDT
;FORMAT={2:4/ absolute / inch / suppress trailing zeros}
FMAT,2
INCH,LZ
T1C0.025
T2C0.125
T3C0.140
%
G90
G05
M72
T1
X0015Y015
X01775Y03575
X0195Y01325
X03775Y0145
T2
X005Y03325
X005Y026
X005Y01775
X005Y00675
X0145Y03325
X0145Y026
X0145Y01775
X0145Y00675
X02425Y03325
X02425Y026
X02425Y01775
X02425Y00675
X03425Y03325
X03425Y026
X03425Y01775
X03425Y00675
T3
X0015Y03775
X0015Y00125
X038Y03775
X038Y00125
T0
M30
