G04 (created by PCBNEW-RS274X (2011-nov-30)-testing) date Sun 19 Aug 2012 05:26:13 PM EDT*
%MOIN*%
G04 Gerber Fmt 3.4, Leading zero omitted, Abs format*
%FSLAX34Y34*%
G01*
G70*
G90*
G04 APERTURE LIST*
%ADD10C,0.006*%
%ADD11C,0.012*%
%ADD12C,0.015*%
%ADD13C,0.01*%
%ADD14C,0.05*%
%ADD15C,0.4*%
%ADD16C,0.2*%
%ADD17C,0.3*%
%ADD18C,0.1*%
%ADD19C,0.16*%
%ADD20R,0.03X0.03*%
%ADD21C,0.19*%
G04 APERTURE END LIST*
G54D10*
G54D11*
X3843Y38345D02*
X3929Y38307D01*
X3957Y38269D01*
X3986Y38193D01*
X3986Y38079D01*
X3957Y38002D01*
X3929Y37964D01*
X3871Y37926D01*
X3643Y37926D01*
X3643Y38726D01*
X3843Y38726D01*
X3900Y38688D01*
X3929Y38650D01*
X3957Y38574D01*
X3957Y38498D01*
X3929Y38421D01*
X3900Y38383D01*
X3843Y38345D01*
X3643Y38345D01*
X4243Y38726D02*
X4243Y38079D01*
X4271Y38002D01*
X4300Y37964D01*
X4357Y37926D01*
X4471Y37926D01*
X4529Y37964D01*
X4557Y38002D01*
X4586Y38079D01*
X4586Y38726D01*
X4872Y37926D02*
X4872Y38726D01*
X5444Y37926D02*
X5158Y37926D01*
X5158Y38726D01*
X5644Y37926D02*
X5644Y38726D01*
X5787Y38726D01*
X5872Y38688D01*
X5930Y38612D01*
X5958Y38536D01*
X5987Y38383D01*
X5987Y38269D01*
X5958Y38117D01*
X5930Y38040D01*
X5872Y37964D01*
X5787Y37926D01*
X5644Y37926D01*
X6215Y37964D02*
X6301Y37926D01*
X6444Y37926D01*
X6501Y37964D01*
X6530Y38002D01*
X6558Y38079D01*
X6558Y38155D01*
X6530Y38231D01*
X6501Y38269D01*
X6444Y38307D01*
X6330Y38345D01*
X6272Y38383D01*
X6244Y38421D01*
X6215Y38498D01*
X6215Y38574D01*
X6244Y38650D01*
X6272Y38688D01*
X6330Y38726D01*
X6472Y38726D01*
X6558Y38688D01*
X7215Y38726D02*
X7358Y37926D01*
X7472Y38498D01*
X7586Y37926D01*
X7729Y38726D01*
X8215Y37926D02*
X8215Y38345D01*
X8186Y38421D01*
X8129Y38460D01*
X8015Y38460D01*
X7958Y38421D01*
X8215Y37964D02*
X8158Y37926D01*
X8015Y37926D01*
X7958Y37964D01*
X7929Y38040D01*
X7929Y38117D01*
X7958Y38193D01*
X8015Y38231D01*
X8158Y38231D01*
X8215Y38269D01*
X8415Y38460D02*
X8644Y38460D01*
X8501Y38726D02*
X8501Y38040D01*
X8529Y37964D01*
X8587Y37926D01*
X8644Y37926D01*
X9072Y37964D02*
X9015Y37926D01*
X8901Y37926D01*
X8844Y37964D01*
X8815Y38040D01*
X8815Y38345D01*
X8844Y38421D01*
X8901Y38460D01*
X9015Y38460D01*
X9072Y38421D01*
X9101Y38345D01*
X9101Y38269D01*
X8815Y38193D01*
X9358Y37926D02*
X9358Y38460D01*
X9358Y38307D02*
X9386Y38383D01*
X9415Y38421D01*
X9472Y38460D01*
X9529Y38460D01*
X10472Y37926D02*
X10186Y37926D01*
X10186Y38726D01*
X10672Y38345D02*
X10872Y38345D01*
X10958Y37926D02*
X10672Y37926D01*
X10672Y38726D01*
X10958Y38726D01*
X11215Y37926D02*
X11215Y38726D01*
X11358Y38726D01*
X11443Y38688D01*
X11501Y38612D01*
X11529Y38536D01*
X11558Y38383D01*
X11558Y38269D01*
X11529Y38117D01*
X11501Y38040D01*
X11443Y37964D01*
X11358Y37926D01*
X11215Y37926D01*
X11786Y37964D02*
X11872Y37926D01*
X12015Y37926D01*
X12072Y37964D01*
X12101Y38002D01*
X12129Y38079D01*
X12129Y38155D01*
X12101Y38231D01*
X12072Y38269D01*
X12015Y38307D01*
X11901Y38345D01*
X11843Y38383D01*
X11815Y38421D01*
X11786Y38498D01*
X11786Y38574D01*
X11815Y38650D01*
X11843Y38688D01*
X11901Y38726D01*
X12043Y38726D01*
X12129Y38688D01*
X12757Y38726D02*
X13100Y38726D01*
X12929Y37926D02*
X12929Y38726D01*
X13528Y37964D02*
X13471Y37926D01*
X13357Y37926D01*
X13300Y37964D01*
X13271Y38040D01*
X13271Y38345D01*
X13300Y38421D01*
X13357Y38460D01*
X13471Y38460D01*
X13528Y38421D01*
X13557Y38345D01*
X13557Y38269D01*
X13271Y38193D01*
X13785Y37964D02*
X13842Y37926D01*
X13957Y37926D01*
X14014Y37964D01*
X14042Y38040D01*
X14042Y38079D01*
X14014Y38155D01*
X13957Y38193D01*
X13871Y38193D01*
X13814Y38231D01*
X13785Y38307D01*
X13785Y38345D01*
X13814Y38421D01*
X13871Y38460D01*
X13957Y38460D01*
X14014Y38421D01*
X14214Y38460D02*
X14443Y38460D01*
X14300Y38726D02*
X14300Y38040D01*
X14328Y37964D01*
X14386Y37926D01*
X14443Y37926D01*
X15271Y37660D02*
X15128Y37660D01*
X15128Y38802D01*
X15271Y38802D01*
X15843Y37926D02*
X15643Y38307D01*
X15500Y37926D02*
X15500Y38726D01*
X15728Y38726D01*
X15786Y38688D01*
X15814Y38650D01*
X15843Y38574D01*
X15843Y38460D01*
X15814Y38383D01*
X15786Y38345D01*
X15728Y38307D01*
X15500Y38307D01*
X16328Y37964D02*
X16271Y37926D01*
X16157Y37926D01*
X16100Y37964D01*
X16071Y38040D01*
X16071Y38345D01*
X16100Y38421D01*
X16157Y38460D01*
X16271Y38460D01*
X16328Y38421D01*
X16357Y38345D01*
X16357Y38269D01*
X16071Y38193D01*
X16557Y38460D02*
X16700Y37926D01*
X16842Y38460D01*
X17071Y38002D02*
X17099Y37964D01*
X17071Y37926D01*
X17042Y37964D01*
X17071Y38002D01*
X17071Y37926D01*
X17785Y38155D02*
X18071Y38155D01*
X17728Y37926D02*
X17928Y38726D01*
X18128Y37926D01*
X18271Y37660D02*
X18414Y37660D01*
X18414Y38802D01*
X18271Y38802D01*
X3986Y36762D02*
X3957Y36724D01*
X3871Y36686D01*
X3814Y36686D01*
X3729Y36724D01*
X3671Y36800D01*
X3643Y36877D01*
X3614Y37029D01*
X3614Y37143D01*
X3643Y37296D01*
X3671Y37372D01*
X3729Y37448D01*
X3814Y37486D01*
X3871Y37486D01*
X3957Y37448D01*
X3986Y37410D01*
X4243Y36686D02*
X4243Y37486D01*
X4500Y36686D02*
X4500Y37105D01*
X4471Y37181D01*
X4414Y37220D01*
X4329Y37220D01*
X4271Y37181D01*
X4243Y37143D01*
X4786Y36686D02*
X4786Y37220D01*
X4786Y37067D02*
X4814Y37143D01*
X4843Y37181D01*
X4900Y37220D01*
X4957Y37220D01*
X5157Y36686D02*
X5157Y37220D01*
X5157Y37486D02*
X5128Y37448D01*
X5157Y37410D01*
X5185Y37448D01*
X5157Y37486D01*
X5157Y37410D01*
X5414Y36724D02*
X5471Y36686D01*
X5586Y36686D01*
X5643Y36724D01*
X5671Y36800D01*
X5671Y36839D01*
X5643Y36915D01*
X5586Y36953D01*
X5500Y36953D01*
X5443Y36991D01*
X5414Y37067D01*
X5414Y37105D01*
X5443Y37181D01*
X5500Y37220D01*
X5586Y37220D01*
X5643Y37181D01*
X6329Y37486D02*
X6472Y36686D01*
X6586Y37258D01*
X6700Y36686D01*
X6843Y37486D01*
X7158Y36686D02*
X7100Y36724D01*
X7072Y36762D01*
X7043Y36839D01*
X7043Y37067D01*
X7072Y37143D01*
X7100Y37181D01*
X7158Y37220D01*
X7243Y37220D01*
X7300Y37181D01*
X7329Y37143D01*
X7358Y37067D01*
X7358Y36839D01*
X7329Y36762D01*
X7300Y36724D01*
X7243Y36686D01*
X7158Y36686D01*
X7701Y36686D02*
X7643Y36724D01*
X7615Y36762D01*
X7586Y36839D01*
X7586Y37067D01*
X7615Y37143D01*
X7643Y37181D01*
X7701Y37220D01*
X7786Y37220D01*
X7843Y37181D01*
X7872Y37143D01*
X7901Y37067D01*
X7901Y36839D01*
X7872Y36762D01*
X7843Y36724D01*
X7786Y36686D01*
X7701Y36686D01*
X8415Y36686D02*
X8415Y37486D01*
X8415Y36724D02*
X8358Y36686D01*
X8244Y36686D01*
X8186Y36724D01*
X8158Y36762D01*
X8129Y36839D01*
X8129Y37067D01*
X8158Y37143D01*
X8186Y37181D01*
X8244Y37220D01*
X8358Y37220D01*
X8415Y37181D01*
X8958Y36686D02*
X8958Y37105D01*
X8929Y37181D01*
X8872Y37220D01*
X8758Y37220D01*
X8701Y37181D01*
X8958Y36724D02*
X8901Y36686D01*
X8758Y36686D01*
X8701Y36724D01*
X8672Y36800D01*
X8672Y36877D01*
X8701Y36953D01*
X8758Y36991D01*
X8901Y36991D01*
X8958Y37029D01*
X9330Y36686D02*
X9272Y36724D01*
X9244Y36800D01*
X9244Y37486D01*
X9644Y36686D02*
X9586Y36724D01*
X9558Y36800D01*
X9558Y37486D01*
X10472Y36420D02*
X10472Y37562D01*
X11328Y36915D02*
X11614Y36915D01*
X11271Y36686D02*
X11471Y37486D01*
X11671Y36686D01*
X12128Y37220D02*
X12128Y36686D01*
X11871Y37220D02*
X11871Y36800D01*
X11899Y36724D01*
X11957Y36686D01*
X12042Y36686D01*
X12099Y36724D01*
X12128Y36762D01*
X12671Y37220D02*
X12671Y36572D01*
X12642Y36496D01*
X12614Y36458D01*
X12557Y36420D01*
X12471Y36420D01*
X12414Y36458D01*
X12671Y36724D02*
X12614Y36686D01*
X12500Y36686D01*
X12442Y36724D01*
X12414Y36762D01*
X12385Y36839D01*
X12385Y37067D01*
X12414Y37143D01*
X12442Y37181D01*
X12500Y37220D01*
X12614Y37220D01*
X12671Y37181D01*
X13385Y37410D02*
X13414Y37448D01*
X13471Y37486D01*
X13614Y37486D01*
X13671Y37448D01*
X13700Y37410D01*
X13728Y37334D01*
X13728Y37258D01*
X13700Y37143D01*
X13357Y36686D01*
X13728Y36686D01*
X14099Y37486D02*
X14156Y37486D01*
X14213Y37448D01*
X14242Y37410D01*
X14271Y37334D01*
X14299Y37181D01*
X14299Y36991D01*
X14271Y36839D01*
X14242Y36762D01*
X14213Y36724D01*
X14156Y36686D01*
X14099Y36686D01*
X14042Y36724D01*
X14013Y36762D01*
X13985Y36839D01*
X13956Y36991D01*
X13956Y37181D01*
X13985Y37334D01*
X14013Y37410D01*
X14042Y37448D01*
X14099Y37486D01*
X14870Y36686D02*
X14527Y36686D01*
X14699Y36686D02*
X14699Y37486D01*
X14642Y37372D01*
X14584Y37296D01*
X14527Y37258D01*
X15098Y37410D02*
X15127Y37448D01*
X15184Y37486D01*
X15327Y37486D01*
X15384Y37448D01*
X15413Y37410D01*
X15441Y37334D01*
X15441Y37258D01*
X15413Y37143D01*
X15070Y36686D01*
X15441Y36686D01*
X3757Y36246D02*
X3871Y36246D01*
X3929Y36208D01*
X3986Y36132D01*
X4014Y35980D01*
X4014Y35713D01*
X3986Y35560D01*
X3929Y35484D01*
X3871Y35446D01*
X3757Y35446D01*
X3700Y35484D01*
X3643Y35560D01*
X3614Y35713D01*
X3614Y35980D01*
X3643Y36132D01*
X3700Y36208D01*
X3757Y36246D01*
X4272Y35980D02*
X4272Y35180D01*
X4272Y35941D02*
X4329Y35980D01*
X4443Y35980D01*
X4500Y35941D01*
X4529Y35903D01*
X4558Y35827D01*
X4558Y35599D01*
X4529Y35522D01*
X4500Y35484D01*
X4443Y35446D01*
X4329Y35446D01*
X4272Y35484D01*
X5043Y35484D02*
X4986Y35446D01*
X4872Y35446D01*
X4815Y35484D01*
X4786Y35560D01*
X4786Y35865D01*
X4815Y35941D01*
X4872Y35980D01*
X4986Y35980D01*
X5043Y35941D01*
X5072Y35865D01*
X5072Y35789D01*
X4786Y35713D01*
X5329Y35980D02*
X5329Y35446D01*
X5329Y35903D02*
X5357Y35941D01*
X5415Y35980D01*
X5500Y35980D01*
X5557Y35941D01*
X5586Y35865D01*
X5586Y35446D01*
X6300Y35484D02*
X6386Y35446D01*
X6529Y35446D01*
X6586Y35484D01*
X6615Y35522D01*
X6643Y35599D01*
X6643Y35675D01*
X6615Y35751D01*
X6586Y35789D01*
X6529Y35827D01*
X6415Y35865D01*
X6357Y35903D01*
X6329Y35941D01*
X6300Y36018D01*
X6300Y36094D01*
X6329Y36170D01*
X6357Y36208D01*
X6415Y36246D01*
X6557Y36246D01*
X6643Y36208D01*
X6986Y35446D02*
X6928Y35484D01*
X6900Y35522D01*
X6871Y35599D01*
X6871Y35827D01*
X6900Y35903D01*
X6928Y35941D01*
X6986Y35980D01*
X7071Y35980D01*
X7128Y35941D01*
X7157Y35903D01*
X7186Y35827D01*
X7186Y35599D01*
X7157Y35522D01*
X7128Y35484D01*
X7071Y35446D01*
X6986Y35446D01*
X7700Y35980D02*
X7700Y35446D01*
X7443Y35980D02*
X7443Y35560D01*
X7471Y35484D01*
X7529Y35446D01*
X7614Y35446D01*
X7671Y35484D01*
X7700Y35522D01*
X7986Y35446D02*
X7986Y35980D01*
X7986Y35827D02*
X8014Y35903D01*
X8043Y35941D01*
X8100Y35980D01*
X8157Y35980D01*
X8614Y35484D02*
X8557Y35446D01*
X8443Y35446D01*
X8385Y35484D01*
X8357Y35522D01*
X8328Y35599D01*
X8328Y35827D01*
X8357Y35903D01*
X8385Y35941D01*
X8443Y35980D01*
X8557Y35980D01*
X8614Y35941D01*
X9099Y35484D02*
X9042Y35446D01*
X8928Y35446D01*
X8871Y35484D01*
X8842Y35560D01*
X8842Y35865D01*
X8871Y35941D01*
X8928Y35980D01*
X9042Y35980D01*
X9099Y35941D01*
X9128Y35865D01*
X9128Y35789D01*
X8842Y35713D01*
X9842Y35446D02*
X9842Y36246D01*
X9842Y35865D02*
X10185Y35865D01*
X10185Y35446D02*
X10185Y36246D01*
X10728Y35446D02*
X10728Y35865D01*
X10699Y35941D01*
X10642Y35980D01*
X10528Y35980D01*
X10471Y35941D01*
X10728Y35484D02*
X10671Y35446D01*
X10528Y35446D01*
X10471Y35484D01*
X10442Y35560D01*
X10442Y35637D01*
X10471Y35713D01*
X10528Y35751D01*
X10671Y35751D01*
X10728Y35789D01*
X11014Y35446D02*
X11014Y35980D01*
X11014Y35827D02*
X11042Y35903D01*
X11071Y35941D01*
X11128Y35980D01*
X11185Y35980D01*
X11642Y35446D02*
X11642Y36246D01*
X11642Y35484D02*
X11585Y35446D01*
X11471Y35446D01*
X11413Y35484D01*
X11385Y35522D01*
X11356Y35599D01*
X11356Y35827D01*
X11385Y35903D01*
X11413Y35941D01*
X11471Y35980D01*
X11585Y35980D01*
X11642Y35941D01*
X11871Y35980D02*
X11985Y35446D01*
X12099Y35827D01*
X12214Y35446D01*
X12328Y35980D01*
X12814Y35446D02*
X12814Y35865D01*
X12785Y35941D01*
X12728Y35980D01*
X12614Y35980D01*
X12557Y35941D01*
X12814Y35484D02*
X12757Y35446D01*
X12614Y35446D01*
X12557Y35484D01*
X12528Y35560D01*
X12528Y35637D01*
X12557Y35713D01*
X12614Y35751D01*
X12757Y35751D01*
X12814Y35789D01*
X13100Y35446D02*
X13100Y35980D01*
X13100Y35827D02*
X13128Y35903D01*
X13157Y35941D01*
X13214Y35980D01*
X13271Y35980D01*
X13699Y35484D02*
X13642Y35446D01*
X13528Y35446D01*
X13471Y35484D01*
X13442Y35560D01*
X13442Y35865D01*
X13471Y35941D01*
X13528Y35980D01*
X13642Y35980D01*
X13699Y35941D01*
X13728Y35865D01*
X13728Y35789D01*
X13442Y35713D01*
G54D12*
X24Y-53D02*
X24Y39317D01*
X39394Y-53D02*
X24Y-53D01*
X39394Y39317D02*
X39394Y-53D01*
X24Y39317D02*
X39394Y39317D01*
G54D11*
X4558Y1007D02*
X4558Y1607D01*
X4701Y1607D01*
X4786Y1579D01*
X4844Y1521D01*
X4872Y1464D01*
X4901Y1350D01*
X4901Y1264D01*
X4872Y1150D01*
X4844Y1093D01*
X4786Y1036D01*
X4701Y1007D01*
X4558Y1007D01*
X5415Y1407D02*
X5415Y1007D01*
X5272Y1636D02*
X5129Y1207D01*
X5501Y1207D01*
X33522Y1007D02*
X33522Y1607D01*
X33665Y1607D01*
X33750Y1579D01*
X33808Y1521D01*
X33836Y1464D01*
X33865Y1350D01*
X33865Y1264D01*
X33836Y1150D01*
X33808Y1093D01*
X33750Y1036D01*
X33665Y1007D01*
X33522Y1007D01*
X34436Y1007D02*
X34093Y1007D01*
X34265Y1007D02*
X34265Y1607D01*
X34208Y1521D01*
X34150Y1464D01*
X34093Y1436D01*
X34721Y1007D02*
X34836Y1007D01*
X34893Y1036D01*
X34921Y1064D01*
X34979Y1150D01*
X35007Y1264D01*
X35007Y1493D01*
X34979Y1550D01*
X34950Y1579D01*
X34893Y1607D01*
X34779Y1607D01*
X34721Y1579D01*
X34693Y1550D01*
X34664Y1493D01*
X34664Y1350D01*
X34693Y1293D01*
X34721Y1264D01*
X34779Y1236D01*
X34893Y1236D01*
X34950Y1264D01*
X34979Y1293D01*
X35007Y1350D01*
X23522Y22257D02*
X23522Y22857D01*
X23665Y22857D01*
X23750Y22829D01*
X23808Y22771D01*
X23836Y22714D01*
X23865Y22600D01*
X23865Y22514D01*
X23836Y22400D01*
X23808Y22343D01*
X23750Y22286D01*
X23665Y22257D01*
X23522Y22257D01*
X24436Y22257D02*
X24093Y22257D01*
X24265Y22257D02*
X24265Y22857D01*
X24208Y22771D01*
X24150Y22714D01*
X24093Y22686D01*
X24664Y22800D02*
X24693Y22829D01*
X24750Y22857D01*
X24893Y22857D01*
X24950Y22829D01*
X24979Y22800D01*
X25007Y22743D01*
X25007Y22686D01*
X24979Y22600D01*
X24636Y22257D01*
X25007Y22257D01*
G54D13*
X1110Y2288D02*
X881Y2288D01*
X995Y2288D02*
X995Y2688D01*
X957Y2631D01*
X919Y2593D01*
X881Y2574D01*
X1281Y2288D02*
X1281Y2688D01*
X1434Y2688D01*
X1472Y2669D01*
X1491Y2650D01*
X1510Y2612D01*
X1510Y2555D01*
X1491Y2517D01*
X1472Y2498D01*
X1434Y2479D01*
X1281Y2479D01*
X1681Y2288D02*
X1681Y2688D01*
X1871Y2288D02*
X1871Y2688D01*
X2100Y2288D01*
X2100Y2688D01*
X37610Y2288D02*
X37381Y2288D01*
X37495Y2288D02*
X37495Y2688D01*
X37457Y2631D01*
X37419Y2593D01*
X37381Y2574D01*
X37781Y2288D02*
X37781Y2688D01*
X37934Y2688D01*
X37972Y2669D01*
X37991Y2650D01*
X38010Y2612D01*
X38010Y2555D01*
X37991Y2517D01*
X37972Y2498D01*
X37934Y2479D01*
X37781Y2479D01*
X38181Y2288D02*
X38181Y2688D01*
X38371Y2288D02*
X38371Y2688D01*
X38600Y2288D01*
X38600Y2688D01*
X37610Y38788D02*
X37381Y38788D01*
X37495Y38788D02*
X37495Y39188D01*
X37457Y39131D01*
X37419Y39093D01*
X37381Y39074D01*
X37781Y38788D02*
X37781Y39188D01*
X37934Y39188D01*
X37972Y39169D01*
X37991Y39150D01*
X38010Y39112D01*
X38010Y39055D01*
X37991Y39017D01*
X37972Y38998D01*
X37934Y38979D01*
X37781Y38979D01*
X38181Y38788D02*
X38181Y39188D01*
X38371Y38788D02*
X38371Y39188D01*
X38600Y38788D01*
X38600Y39188D01*
X1110Y38788D02*
X881Y38788D01*
X995Y38788D02*
X995Y39188D01*
X957Y39131D01*
X919Y39093D01*
X881Y39074D01*
X1281Y38788D02*
X1281Y39188D01*
X1434Y39188D01*
X1472Y39169D01*
X1491Y39150D01*
X1510Y39112D01*
X1510Y39055D01*
X1491Y39017D01*
X1472Y38998D01*
X1434Y38979D01*
X1281Y38979D01*
X1681Y38788D02*
X1681Y39188D01*
X1871Y38788D02*
X1871Y39188D01*
X2100Y38788D01*
X2100Y39188D01*
G54D11*
X29772Y22757D02*
X29772Y23357D01*
X29915Y23357D01*
X30000Y23329D01*
X30058Y23271D01*
X30086Y23214D01*
X30115Y23100D01*
X30115Y23014D01*
X30086Y22900D01*
X30058Y22843D01*
X30000Y22786D01*
X29915Y22757D01*
X29772Y22757D01*
X30686Y22757D02*
X30343Y22757D01*
X30515Y22757D02*
X30515Y23357D01*
X30458Y23271D01*
X30400Y23214D01*
X30343Y23186D01*
X30886Y23357D02*
X31286Y23357D01*
X31029Y22757D01*
X14058Y12507D02*
X14058Y13107D01*
X14201Y13107D01*
X14286Y13079D01*
X14344Y13021D01*
X14372Y12964D01*
X14401Y12850D01*
X14401Y12764D01*
X14372Y12650D01*
X14344Y12593D01*
X14286Y12536D01*
X14201Y12507D01*
X14058Y12507D01*
X14744Y12850D02*
X14686Y12879D01*
X14658Y12907D01*
X14629Y12964D01*
X14629Y12993D01*
X14658Y13050D01*
X14686Y13079D01*
X14744Y13107D01*
X14858Y13107D01*
X14915Y13079D01*
X14944Y13050D01*
X14972Y12993D01*
X14972Y12964D01*
X14944Y12907D01*
X14915Y12879D01*
X14858Y12850D01*
X14744Y12850D01*
X14686Y12821D01*
X14658Y12793D01*
X14629Y12736D01*
X14629Y12621D01*
X14658Y12564D01*
X14686Y12536D01*
X14744Y12507D01*
X14858Y12507D01*
X14915Y12536D01*
X14944Y12564D01*
X14972Y12621D01*
X14972Y12736D01*
X14944Y12793D01*
X14915Y12821D01*
X14858Y12850D01*
X23522Y12507D02*
X23522Y13107D01*
X23665Y13107D01*
X23750Y13079D01*
X23808Y13021D01*
X23836Y12964D01*
X23865Y12850D01*
X23865Y12764D01*
X23836Y12650D01*
X23808Y12593D01*
X23750Y12536D01*
X23665Y12507D01*
X23522Y12507D01*
X24436Y12507D02*
X24093Y12507D01*
X24265Y12507D02*
X24265Y13107D01*
X24208Y13021D01*
X24150Y12964D01*
X24093Y12936D01*
X24779Y12850D02*
X24721Y12879D01*
X24693Y12907D01*
X24664Y12964D01*
X24664Y12993D01*
X24693Y13050D01*
X24721Y13079D01*
X24779Y13107D01*
X24893Y13107D01*
X24950Y13079D01*
X24979Y13050D01*
X25007Y12993D01*
X25007Y12964D01*
X24979Y12907D01*
X24950Y12879D01*
X24893Y12850D01*
X24779Y12850D01*
X24721Y12821D01*
X24693Y12793D01*
X24664Y12736D01*
X24664Y12621D01*
X24693Y12564D01*
X24721Y12536D01*
X24779Y12507D01*
X24893Y12507D01*
X24950Y12536D01*
X24979Y12564D01*
X25007Y12621D01*
X25007Y12736D01*
X24979Y12793D01*
X24950Y12821D01*
X24893Y12850D01*
X4558Y30007D02*
X4558Y30607D01*
X4701Y30607D01*
X4786Y30579D01*
X4844Y30521D01*
X4872Y30464D01*
X4901Y30350D01*
X4901Y30264D01*
X4872Y30150D01*
X4844Y30093D01*
X4786Y30036D01*
X4701Y30007D01*
X4558Y30007D01*
X5472Y30007D02*
X5129Y30007D01*
X5301Y30007D02*
X5301Y30607D01*
X5244Y30521D01*
X5186Y30464D01*
X5129Y30436D01*
X23272Y30257D02*
X23272Y30857D01*
X23415Y30857D01*
X23500Y30829D01*
X23558Y30771D01*
X23586Y30714D01*
X23615Y30600D01*
X23615Y30514D01*
X23586Y30400D01*
X23558Y30343D01*
X23500Y30286D01*
X23415Y30257D01*
X23272Y30257D01*
X24186Y30257D02*
X23843Y30257D01*
X24015Y30257D02*
X24015Y30857D01*
X23958Y30771D01*
X23900Y30714D01*
X23843Y30686D01*
X24757Y30257D02*
X24414Y30257D01*
X24586Y30257D02*
X24586Y30857D01*
X24529Y30771D01*
X24471Y30714D01*
X24414Y30686D01*
X14058Y30007D02*
X14058Y30607D01*
X14201Y30607D01*
X14286Y30579D01*
X14344Y30521D01*
X14372Y30464D01*
X14401Y30350D01*
X14401Y30264D01*
X14372Y30150D01*
X14344Y30093D01*
X14286Y30036D01*
X14201Y30007D01*
X14058Y30007D01*
X14915Y30607D02*
X14801Y30607D01*
X14744Y30579D01*
X14715Y30550D01*
X14658Y30464D01*
X14629Y30350D01*
X14629Y30121D01*
X14658Y30064D01*
X14686Y30036D01*
X14744Y30007D01*
X14858Y30007D01*
X14915Y30036D01*
X14944Y30064D01*
X14972Y30121D01*
X14972Y30264D01*
X14944Y30321D01*
X14915Y30350D01*
X14858Y30379D01*
X14744Y30379D01*
X14686Y30350D01*
X14658Y30321D01*
X14629Y30264D01*
X33272Y30007D02*
X33272Y30607D01*
X33415Y30607D01*
X33500Y30579D01*
X33558Y30521D01*
X33586Y30464D01*
X33615Y30350D01*
X33615Y30264D01*
X33586Y30150D01*
X33558Y30093D01*
X33500Y30036D01*
X33415Y30007D01*
X33272Y30007D01*
X34186Y30007D02*
X33843Y30007D01*
X34015Y30007D02*
X34015Y30607D01*
X33958Y30521D01*
X33900Y30464D01*
X33843Y30436D01*
X34700Y30607D02*
X34586Y30607D01*
X34529Y30579D01*
X34500Y30550D01*
X34443Y30464D01*
X34414Y30350D01*
X34414Y30121D01*
X34443Y30064D01*
X34471Y30036D01*
X34529Y30007D01*
X34643Y30007D01*
X34700Y30036D01*
X34729Y30064D01*
X34757Y30121D01*
X34757Y30264D01*
X34729Y30321D01*
X34700Y30350D01*
X34643Y30379D01*
X34529Y30379D01*
X34471Y30350D01*
X34443Y30321D01*
X34414Y30264D01*
X14058Y1007D02*
X14058Y1607D01*
X14201Y1607D01*
X14286Y1579D01*
X14344Y1521D01*
X14372Y1464D01*
X14401Y1350D01*
X14401Y1264D01*
X14372Y1150D01*
X14344Y1093D01*
X14286Y1036D01*
X14201Y1007D01*
X14058Y1007D01*
X14686Y1007D02*
X14801Y1007D01*
X14858Y1036D01*
X14886Y1064D01*
X14944Y1150D01*
X14972Y1264D01*
X14972Y1493D01*
X14944Y1550D01*
X14915Y1579D01*
X14858Y1607D01*
X14744Y1607D01*
X14686Y1579D01*
X14658Y1550D01*
X14629Y1493D01*
X14629Y1350D01*
X14658Y1293D01*
X14686Y1264D01*
X14744Y1236D01*
X14858Y1236D01*
X14915Y1264D01*
X14944Y1293D01*
X14972Y1350D01*
X23522Y1007D02*
X23522Y1607D01*
X23665Y1607D01*
X23750Y1579D01*
X23808Y1521D01*
X23836Y1464D01*
X23865Y1350D01*
X23865Y1264D01*
X23836Y1150D01*
X23808Y1093D01*
X23750Y1036D01*
X23665Y1007D01*
X23522Y1007D01*
X24436Y1007D02*
X24093Y1007D01*
X24265Y1007D02*
X24265Y1607D01*
X24208Y1521D01*
X24150Y1464D01*
X24093Y1436D01*
X24950Y1407D02*
X24950Y1007D01*
X24807Y1636D02*
X24664Y1207D01*
X25036Y1207D01*
X4558Y12507D02*
X4558Y13107D01*
X4701Y13107D01*
X4786Y13079D01*
X4844Y13021D01*
X4872Y12964D01*
X4901Y12850D01*
X4901Y12764D01*
X4872Y12650D01*
X4844Y12593D01*
X4786Y12536D01*
X4701Y12507D01*
X4558Y12507D01*
X5101Y13107D02*
X5472Y13107D01*
X5272Y12879D01*
X5358Y12879D01*
X5415Y12850D01*
X5444Y12821D01*
X5472Y12764D01*
X5472Y12621D01*
X5444Y12564D01*
X5415Y12536D01*
X5358Y12507D01*
X5186Y12507D01*
X5129Y12536D01*
X5101Y12564D01*
X33772Y12257D02*
X33772Y12857D01*
X33915Y12857D01*
X34000Y12829D01*
X34058Y12771D01*
X34086Y12714D01*
X34115Y12600D01*
X34115Y12514D01*
X34086Y12400D01*
X34058Y12343D01*
X34000Y12286D01*
X33915Y12257D01*
X33772Y12257D01*
X34343Y12800D02*
X34372Y12829D01*
X34429Y12857D01*
X34572Y12857D01*
X34629Y12829D01*
X34658Y12800D01*
X34686Y12743D01*
X34686Y12686D01*
X34658Y12600D01*
X34315Y12257D01*
X34686Y12257D01*
X34886Y12857D02*
X35257Y12857D01*
X35057Y12629D01*
X35143Y12629D01*
X35200Y12600D01*
X35229Y12571D01*
X35257Y12514D01*
X35257Y12371D01*
X35229Y12314D01*
X35200Y12286D01*
X35143Y12257D01*
X34971Y12257D01*
X34914Y12286D01*
X34886Y12314D01*
X4558Y22257D02*
X4558Y22857D01*
X4701Y22857D01*
X4786Y22829D01*
X4844Y22771D01*
X4872Y22714D01*
X4901Y22600D01*
X4901Y22514D01*
X4872Y22400D01*
X4844Y22343D01*
X4786Y22286D01*
X4701Y22257D01*
X4558Y22257D01*
X5129Y22800D02*
X5158Y22829D01*
X5215Y22857D01*
X5358Y22857D01*
X5415Y22829D01*
X5444Y22800D01*
X5472Y22743D01*
X5472Y22686D01*
X5444Y22600D01*
X5101Y22257D01*
X5472Y22257D01*
X14058Y22257D02*
X14058Y22857D01*
X14201Y22857D01*
X14286Y22829D01*
X14344Y22771D01*
X14372Y22714D01*
X14401Y22600D01*
X14401Y22514D01*
X14372Y22400D01*
X14344Y22343D01*
X14286Y22286D01*
X14201Y22257D01*
X14058Y22257D01*
X14601Y22857D02*
X15001Y22857D01*
X14744Y22257D01*
%LPC*%
G54D14*
X9330Y6750D02*
G75*
G03X9330Y6750I-4330J0D01*
G74*
G01*
G54D15*
X7000Y6750D02*
G75*
G03X7000Y6750I-2000J0D01*
G74*
G01*
G54D14*
X38800Y6750D02*
G75*
G03X38800Y6750I-4550J0D01*
G74*
G01*
G54D15*
X36250Y6750D02*
G75*
G03X36250Y6750I-2000J0D01*
G74*
G01*
G54D14*
X26700Y26000D02*
G75*
G03X26700Y26000I-2450J0D01*
G74*
G01*
G54D16*
X25250Y26000D02*
G75*
G03X25250Y26000I-1000J0D01*
G74*
G01*
G54D14*
X36800Y26000D02*
G75*
G03X36800Y26000I-2550J0D01*
G74*
G01*
G54D16*
X35250Y26000D02*
G75*
G03X35250Y26000I-1000J0D01*
G74*
G01*
G54D14*
X17870Y17750D02*
G75*
G03X17870Y17750I-3370J0D01*
G74*
G01*
G54D17*
X16000Y17750D02*
G75*
G03X16000Y17750I-1500J0D01*
G74*
G01*
G54D14*
X27800Y17750D02*
G75*
G03X27800Y17750I-3550J0D01*
G74*
G01*
G54D17*
X25750Y17750D02*
G75*
G03X25750Y17750I-1500J0D01*
G74*
G01*
G54D14*
X6330Y33250D02*
G75*
G03X6330Y33250I-1330J0D01*
G74*
G01*
G54D18*
X5500Y33250D02*
G75*
G03X5500Y33250I-500J0D01*
G74*
G01*
G54D14*
X25700Y33250D02*
G75*
G03X25700Y33250I-1450J0D01*
G74*
G01*
G54D18*
X24750Y33250D02*
G75*
G03X24750Y33250I-500J0D01*
G74*
G01*
G54D14*
X15870Y33250D02*
G75*
G03X15870Y33250I-1370J0D01*
G74*
G01*
G54D18*
X15000Y33250D02*
G75*
G03X15000Y33250I-500J0D01*
G74*
G01*
G54D14*
X35800Y33250D02*
G75*
G03X35800Y33250I-1550J0D01*
G74*
G01*
G54D18*
X34750Y33250D02*
G75*
G03X34750Y33250I-500J0D01*
G74*
G01*
G54D14*
X18870Y6750D02*
G75*
G03X18870Y6750I-4370J0D01*
G74*
G01*
G54D15*
X16500Y6750D02*
G75*
G03X16500Y6750I-2000J0D01*
G74*
G01*
G54D14*
X28700Y6750D02*
G75*
G03X28700Y6750I-4450J0D01*
G74*
G01*
G54D15*
X26250Y6750D02*
G75*
G03X26250Y6750I-2000J0D01*
G74*
G01*
G54D14*
X8330Y17750D02*
G75*
G03X8330Y17750I-3330J0D01*
G74*
G01*
G54D17*
X6500Y17750D02*
G75*
G03X6500Y17750I-1500J0D01*
G74*
G01*
G54D14*
X38000Y17750D02*
G75*
G03X38000Y17750I-3750J0D01*
G74*
G01*
G54D17*
X35750Y17750D02*
G75*
G03X35750Y17750I-1500J0D01*
G74*
G01*
G54D14*
X7340Y26000D02*
G75*
G03X7340Y26000I-2340J0D01*
G74*
G01*
G54D16*
X6000Y26000D02*
G75*
G03X6000Y26000I-1000J0D01*
G74*
G01*
G54D14*
X16870Y26000D02*
G75*
G03X16870Y26000I-2370J0D01*
G74*
G01*
G54D16*
X15500Y26000D02*
G75*
G03X15500Y26000I-1000J0D01*
G74*
G01*
G54D19*
X5000Y6750D03*
G54D20*
X5000Y11150D03*
G54D19*
X34250Y6750D03*
G54D20*
X34250Y11350D03*
G54D19*
X24250Y26000D03*
G54D20*
X24250Y28500D03*
G54D21*
X1500Y1250D03*
X38000Y1250D03*
X38000Y37750D03*
X1500Y37750D03*
G54D19*
X34250Y26000D03*
G54D20*
X34250Y28600D03*
G54D19*
X14500Y17750D03*
G54D20*
X14500Y21200D03*
G54D19*
X24250Y17750D03*
G54D20*
X24250Y21350D03*
G54D19*
X5000Y33250D03*
G54D20*
X5000Y34580D03*
G54D19*
X24250Y33250D03*
G54D20*
X24250Y34800D03*
G54D19*
X14500Y33250D03*
G54D20*
X14500Y34700D03*
G54D19*
X34250Y33250D03*
G54D20*
X34250Y34850D03*
G54D19*
X14500Y6750D03*
G54D20*
X14505Y11195D03*
G54D19*
X24250Y6750D03*
G54D20*
X24250Y11250D03*
G54D19*
X5000Y17750D03*
G54D20*
X1700Y17750D03*
G54D19*
X34250Y17750D03*
G54D20*
X30450Y17750D03*
G54D19*
X5000Y26000D03*
G54D20*
X5000Y28400D03*
G54D19*
X14500Y26000D03*
G54D20*
X14500Y28400D03*
M02*
