G04 (created by PCBNEW-RS274X (2011-nov-30)-testing) date Sun 19 Aug 2012 05:26:13 PM EDT*
%MOIN*%
G04 Gerber Fmt 3.4, Leading zero omitted, Abs format*
%FSLAX34Y34*%
G01*
G70*
G90*
G04 APERTURE LIST*
%ADD10C,0.006*%
%ADD11C,0.015*%
%ADD12R,0.12X0.07*%
%ADD13C,0.19*%
%ADD14R,0.32X0.17*%
%ADD15R,0.17X0.32*%
%ADD16R,0.07X0.12*%
G04 APERTURE END LIST*
G54D10*
G54D11*
X24Y-53D02*
X24Y39317D01*
X39394Y-53D02*
X24Y-53D01*
X39394Y39317D02*
X39394Y-53D01*
X24Y39317D02*
X39394Y39317D01*
G54D12*
X6500Y6750D03*
X3500Y6750D03*
X35750Y6750D03*
X32750Y6750D03*
X25750Y26000D03*
X22750Y26000D03*
G54D13*
X1500Y1250D03*
X38000Y1250D03*
X38000Y37750D03*
X1500Y37750D03*
G54D12*
X35750Y26000D03*
X32750Y26000D03*
X16000Y17750D03*
X13000Y17750D03*
X25750Y17750D03*
X22750Y17750D03*
X6500Y33250D03*
X3500Y33250D03*
X25750Y33250D03*
X22750Y33250D03*
X16000Y33250D03*
X13000Y33250D03*
X35750Y33250D03*
X32750Y33250D03*
X16000Y6750D03*
X13000Y6750D03*
G54D14*
X37744Y22026D03*
X37744Y18026D03*
G54D15*
X21709Y1596D03*
X17709Y1596D03*
X21709Y37817D03*
X17709Y37817D03*
G54D14*
X1524Y21632D03*
X1524Y17632D03*
G54D12*
X25750Y6750D03*
X22750Y6750D03*
G54D16*
X5000Y19250D03*
X5000Y16250D03*
X34250Y19250D03*
X34250Y16250D03*
G54D12*
X6500Y26000D03*
X3500Y26000D03*
X16000Y26000D03*
X13000Y26000D03*
M02*
